solid OpenSCAD_Model
  facet normal -1 0 0
    outer loop
      vertex 0 0 0
      vertex 0 100 20
      vertex 0 100 0
    endloop
  endfacet
  facet normal -1 -0 0
    outer loop
      vertex 0 100 20
      vertex 0 0 0
      vertex 0 0 20
    endloop
  endfacet
  facet normal 0 0 1
    outer loop
      vertex 150 100 20
      vertex 145 90 20
      vertex 150 0 20
    endloop
  endfacet
  facet normal 0 0 1
    outer loop
      vertex 150 100 20
      vertex 144.904 90.9754 20
      vertex 145 90 20
    endloop
  endfacet
  facet normal 0 0 1
    outer loop
      vertex 150 100 20
      vertex 144.619 91.9134 20
      vertex 144.904 90.9754 20
    endloop
  endfacet
  facet normal 0 0 1
    outer loop
      vertex 150 100 20
      vertex 144.157 92.7778 20
      vertex 144.619 91.9134 20
    endloop
  endfacet
  facet normal 0 0 1
    outer loop
      vertex 150 100 20
      vertex 143.536 93.5355 20
      vertex 144.157 92.7778 20
    endloop
  endfacet
  facet normal 0 0 1
    outer loop
      vertex 150 100 20
      vertex 142.778 94.1573 20
      vertex 143.536 93.5355 20
    endloop
  endfacet
  facet normal 0 0 1
    outer loop
      vertex 150 100 20
      vertex 141.913 94.6194 20
      vertex 142.778 94.1573 20
    endloop
  endfacet
  facet normal 0 0 1
    outer loop
      vertex 150 100 20
      vertex 140.975 94.9039 20
      vertex 141.913 94.6194 20
    endloop
  endfacet
  facet normal 0 0 1
    outer loop
      vertex 150 100 20
      vertex 140 95 20
      vertex 140.975 94.9039 20
    endloop
  endfacet
  facet normal 0 0 1
    outer loop
      vertex 150 100 20
      vertex 10 95 20
      vertex 140 95 20
    endloop
  endfacet
  facet normal 0 0 1
    outer loop
      vertex 5 90 20
      vertex 0 100 20
      vertex 5 10 20
    endloop
  endfacet
  facet normal 0 0 1
    outer loop
      vertex 5.09607 90.9754 20
      vertex 0 100 20
      vertex 5 90 20
    endloop
  endfacet
  facet normal 0 0 1
    outer loop
      vertex 5.3806 91.9134 20
      vertex 0 100 20
      vertex 5.09607 90.9754 20
    endloop
  endfacet
  facet normal 0 0 1
    outer loop
      vertex 5.84265 92.7778 20
      vertex 0 100 20
      vertex 5.3806 91.9134 20
    endloop
  endfacet
  facet normal 0 0 1
    outer loop
      vertex 6.46447 93.5355 20
      vertex 0 100 20
      vertex 5.84265 92.7778 20
    endloop
  endfacet
  facet normal 0 0 1
    outer loop
      vertex 7.22215 94.1573 20
      vertex 0 100 20
      vertex 6.46447 93.5355 20
    endloop
  endfacet
  facet normal 0 0 1
    outer loop
      vertex 8.08658 94.6194 20
      vertex 0 100 20
      vertex 7.22215 94.1573 20
    endloop
  endfacet
  facet normal 0 0 1
    outer loop
      vertex 9.02455 94.9039 20
      vertex 0 100 20
      vertex 8.08658 94.6194 20
    endloop
  endfacet
  facet normal 0 0 1
    outer loop
      vertex 10 95 20
      vertex 0 100 20
      vertex 9.02455 94.9039 20
    endloop
  endfacet
  facet normal -0 0 1
    outer loop
      vertex 0 100 20
      vertex 10 95 20
      vertex 150 100 20
    endloop
  endfacet
  facet normal -0 0 1
    outer loop
      vertex 145 10 20
      vertex 150 0 20
      vertex 145 90 20
    endloop
  endfacet
  facet normal -0 0 1
    outer loop
      vertex 144.904 9.02455 20
      vertex 150 0 20
      vertex 145 10 20
    endloop
  endfacet
  facet normal -0 0 1
    outer loop
      vertex 144.619 8.08658 20
      vertex 150 0 20
      vertex 144.904 9.02455 20
    endloop
  endfacet
  facet normal -0 0 1
    outer loop
      vertex 144.157 7.22215 20
      vertex 150 0 20
      vertex 144.619 8.08658 20
    endloop
  endfacet
  facet normal -0 0 1
    outer loop
      vertex 143.536 6.46447 20
      vertex 150 0 20
      vertex 144.157 7.22215 20
    endloop
  endfacet
  facet normal -0 0 1
    outer loop
      vertex 142.778 5.84265 20
      vertex 150 0 20
      vertex 143.536 6.46447 20
    endloop
  endfacet
  facet normal -0 0 1
    outer loop
      vertex 141.913 5.3806 20
      vertex 150 0 20
      vertex 142.778 5.84265 20
    endloop
  endfacet
  facet normal -0 0 1
    outer loop
      vertex 140.975 5.09607 20
      vertex 150 0 20
      vertex 141.913 5.3806 20
    endloop
  endfacet
  facet normal -0 0 1
    outer loop
      vertex 140 5 20
      vertex 150 0 20
      vertex 140.975 5.09607 20
    endloop
  endfacet
  facet normal -0 0 1
    outer loop
      vertex 10 5 20
      vertex 150 0 20
      vertex 140 5 20
    endloop
  endfacet
  facet normal 0 0 1
    outer loop
      vertex 10 5 20
      vertex 0 0 20
      vertex 150 0 20
    endloop
  endfacet
  facet normal 0 0 1
    outer loop
      vertex 9.02455 5.09607 20
      vertex 0 0 20
      vertex 10 5 20
    endloop
  endfacet
  facet normal 0 0 1
    outer loop
      vertex 8.08658 5.3806 20
      vertex 0 0 20
      vertex 9.02455 5.09607 20
    endloop
  endfacet
  facet normal 0 0 1
    outer loop
      vertex 7.22215 5.84265 20
      vertex 0 0 20
      vertex 8.08658 5.3806 20
    endloop
  endfacet
  facet normal 0 0 1
    outer loop
      vertex 6.46447 6.46447 20
      vertex 0 0 20
      vertex 7.22215 5.84265 20
    endloop
  endfacet
  facet normal 0 0 1
    outer loop
      vertex 5.84265 7.22215 20
      vertex 0 0 20
      vertex 6.46447 6.46447 20
    endloop
  endfacet
  facet normal 0 0 1
    outer loop
      vertex 5.3806 8.08658 20
      vertex 0 0 20
      vertex 5.84265 7.22215 20
    endloop
  endfacet
  facet normal 0 0 1
    outer loop
      vertex 5.09607 9.02455 20
      vertex 0 0 20
      vertex 5.3806 8.08658 20
    endloop
  endfacet
  facet normal 0 0 1
    outer loop
      vertex 5 10 20
      vertex 0 0 20
      vertex 5.09607 9.02455 20
    endloop
  endfacet
  facet normal 0 0 1
    outer loop
      vertex 0 0 20
      vertex 5 10 20
      vertex 0 100 20
    endloop
  endfacet
  facet normal 1 -0 0
    outer loop
      vertex 150 0 20
      vertex 150 100 0
      vertex 150 100 20
    endloop
  endfacet
  facet normal 1 0 0
    outer loop
      vertex 150 100 0
      vertex 150 0 20
      vertex 150 0 0
    endloop
  endfacet
  facet normal 0 0 -1
    outer loop
      vertex 150 0 0
      vertex 135 20 0
      vertex 150 100 0
    endloop
  endfacet
  facet normal 0 0 -1
    outer loop
      vertex 150 0 0
      vertex 134.904 19.0245 0
      vertex 135 20 0
    endloop
  endfacet
  facet normal 0 0 -1
    outer loop
      vertex 150 0 0
      vertex 134.619 18.0866 0
      vertex 134.904 19.0245 0
    endloop
  endfacet
  facet normal 0 0 -1
    outer loop
      vertex 150 0 0
      vertex 134.157 17.2221 0
      vertex 134.619 18.0866 0
    endloop
  endfacet
  facet normal 0 0 -1
    outer loop
      vertex 150 0 0
      vertex 133.536 16.4645 0
      vertex 134.157 17.2221 0
    endloop
  endfacet
  facet normal 0 0 -1
    outer loop
      vertex 150 0 0
      vertex 132.778 15.8427 0
      vertex 133.536 16.4645 0
    endloop
  endfacet
  facet normal 0 0 -1
    outer loop
      vertex 150 0 0
      vertex 131.913 15.3806 0
      vertex 132.778 15.8427 0
    endloop
  endfacet
  facet normal 0 0 -1
    outer loop
      vertex 150 0 0
      vertex 130.975 15.0961 0
      vertex 131.913 15.3806 0
    endloop
  endfacet
  facet normal 0 0 -1
    outer loop
      vertex 150 0 0
      vertex 130 15 0
      vertex 130.975 15.0961 0
    endloop
  endfacet
  facet normal 0 0 -1
    outer loop
      vertex 150 0 0
      vertex 20 15 0
      vertex 130 15 0
    endloop
  endfacet
  facet normal 0 0 -1
    outer loop
      vertex 0 0 0
      vertex 20 15 0
      vertex 150 0 0
    endloop
  endfacet
  facet normal -0 0 -1
    outer loop
      vertex 15 20 0
      vertex 0 0 0
      vertex 15 80 0
    endloop
  endfacet
  facet normal -0 0 -1
    outer loop
      vertex 15.0961 19.0245 0
      vertex 0 0 0
      vertex 15 20 0
    endloop
  endfacet
  facet normal -0 0 -1
    outer loop
      vertex 15.3806 18.0866 0
      vertex 0 0 0
      vertex 15.0961 19.0245 0
    endloop
  endfacet
  facet normal -0 0 -1
    outer loop
      vertex 15.8427 17.2221 0
      vertex 0 0 0
      vertex 15.3806 18.0866 0
    endloop
  endfacet
  facet normal -0 0 -1
    outer loop
      vertex 16.4645 16.4645 0
      vertex 0 0 0
      vertex 15.8427 17.2221 0
    endloop
  endfacet
  facet normal -0 0 -1
    outer loop
      vertex 17.2221 15.8427 0
      vertex 0 0 0
      vertex 16.4645 16.4645 0
    endloop
  endfacet
  facet normal -0 0 -1
    outer loop
      vertex 18.0866 15.3806 0
      vertex 0 0 0
      vertex 17.2221 15.8427 0
    endloop
  endfacet
  facet normal -0 0 -1
    outer loop
      vertex 19.0245 15.0961 0
      vertex 0 0 0
      vertex 18.0866 15.3806 0
    endloop
  endfacet
  facet normal -0 0 -1
    outer loop
      vertex 20 15 0
      vertex 0 0 0
      vertex 19.0245 15.0961 0
    endloop
  endfacet
  facet normal 0 0 -1
    outer loop
      vertex 135 80 0
      vertex 150 100 0
      vertex 135 20 0
    endloop
  endfacet
  facet normal 0 0 -1
    outer loop
      vertex 134.904 80.9754 0
      vertex 150 100 0
      vertex 135 80 0
    endloop
  endfacet
  facet normal 0 0 -1
    outer loop
      vertex 134.619 81.9134 0
      vertex 150 100 0
      vertex 134.904 80.9754 0
    endloop
  endfacet
  facet normal 0 0 -1
    outer loop
      vertex 134.157 82.7778 0
      vertex 150 100 0
      vertex 134.619 81.9134 0
    endloop
  endfacet
  facet normal 0 0 -1
    outer loop
      vertex 133.536 83.5355 0
      vertex 150 100 0
      vertex 134.157 82.7778 0
    endloop
  endfacet
  facet normal 0 0 -1
    outer loop
      vertex 132.778 84.1573 0
      vertex 150 100 0
      vertex 133.536 83.5355 0
    endloop
  endfacet
  facet normal 0 0 -1
    outer loop
      vertex 131.913 84.6194 0
      vertex 150 100 0
      vertex 132.778 84.1573 0
    endloop
  endfacet
  facet normal 0 0 -1
    outer loop
      vertex 130.975 84.9039 0
      vertex 150 100 0
      vertex 131.913 84.6194 0
    endloop
  endfacet
  facet normal 0 0 -1
    outer loop
      vertex 130 85 0
      vertex 150 100 0
      vertex 130.975 84.9039 0
    endloop
  endfacet
  facet normal 0 0 -1
    outer loop
      vertex 20 85 0
      vertex 150 100 0
      vertex 130 85 0
    endloop
  endfacet
  facet normal 0 0 -1
    outer loop
      vertex 0 100 0
      vertex 20 85 0
      vertex 19.0245 84.9039 0
    endloop
  endfacet
  facet normal 0 0 -1
    outer loop
      vertex 0 100 0
      vertex 15 80 0
      vertex 0 0 0
    endloop
  endfacet
  facet normal 0 0 -1
    outer loop
      vertex 20 85 0
      vertex 0 100 0
      vertex 150 100 0
    endloop
  endfacet
  facet normal 0 0 -1
    outer loop
      vertex 18.0866 84.6194 0
      vertex 0 100 0
      vertex 19.0245 84.9039 0
    endloop
  endfacet
  facet normal 0 0 -1
    outer loop
      vertex 17.2221 84.1573 0
      vertex 0 100 0
      vertex 18.0866 84.6194 0
    endloop
  endfacet
  facet normal 0 0 -1
    outer loop
      vertex 16.4645 83.5355 0
      vertex 0 100 0
      vertex 17.2221 84.1573 0
    endloop
  endfacet
  facet normal 0 0 -1
    outer loop
      vertex 15.8427 82.7778 0
      vertex 0 100 0
      vertex 16.4645 83.5355 0
    endloop
  endfacet
  facet normal 0 0 -1
    outer loop
      vertex 15.3806 81.9134 0
      vertex 0 100 0
      vertex 15.8427 82.7778 0
    endloop
  endfacet
  facet normal 0 0 -1
    outer loop
      vertex 15.0961 80.9754 0
      vertex 0 100 0
      vertex 15.3806 81.9134 0
    endloop
  endfacet
  facet normal 0 0 -1
    outer loop
      vertex 15 80 0
      vertex 0 100 0
      vertex 15.0961 80.9754 0
    endloop
  endfacet
  facet normal 0 -1 0
    outer loop
      vertex 0 0 0
      vertex 150 0 20
      vertex 0 0 20
    endloop
  endfacet
  facet normal 0 -1 -0
    outer loop
      vertex 150 0 20
      vertex 0 0 0
      vertex 150 0 0
    endloop
  endfacet
  facet normal 0 1 -0
    outer loop
      vertex 150 100 0
      vertex 0 100 20
      vertex 150 100 20
    endloop
  endfacet
  facet normal 0 1 0
    outer loop
      vertex 0 100 20
      vertex 150 100 0
      vertex 0 100 0
    endloop
  endfacet
  facet normal 0.95694 0.290285 0
    outer loop
      vertex 5.3806 8.08658 20
      vertex 5.09607 9.02455 5
      vertex 5.09607 9.02455 20
    endloop
  endfacet
  facet normal 0.95694 0.290285 0
    outer loop
      vertex 5.09607 9.02455 5
      vertex 5.3806 8.08658 20
      vertex 5.3806 8.08658 5
    endloop
  endfacet
  facet normal 0.88192 0.471399 0
    outer loop
      vertex 5.84265 7.22215 20
      vertex 5.3806 8.08658 5
      vertex 5.3806 8.08658 20
    endloop
  endfacet
  facet normal 0.88192 0.471399 0
    outer loop
      vertex 5.3806 8.08658 5
      vertex 5.84265 7.22215 20
      vertex 5.84265 7.22215 5
    endloop
  endfacet
  facet normal 0 0 1
    outer loop
      vertex 140 95 5
      vertex 145 90 5
      vertex 144.904 90.9754 5
    endloop
  endfacet
  facet normal 0 0 1
    outer loop
      vertex 145 90 5
      vertex 135 80 5
      vertex 145 10 5
    endloop
  endfacet
  facet normal 0 0 1
    outer loop
      vertex 140 95 5
      vertex 144.904 90.9754 5
      vertex 144.619 91.9134 5
    endloop
  endfacet
  facet normal -0 0 1
    outer loop
      vertex 135 20 5
      vertex 145 10 5
      vertex 135 80 5
    endloop
  endfacet
  facet normal 0 0 1
    outer loop
      vertex 140 95 5
      vertex 144.619 91.9134 5
      vertex 144.157 92.7778 5
    endloop
  endfacet
  facet normal -0 0 1
    outer loop
      vertex 134.904 19.0245 5
      vertex 145 10 5
      vertex 135 20 5
    endloop
  endfacet
  facet normal 0 0 1
    outer loop
      vertex 140 95 5
      vertex 144.157 92.7778 5
      vertex 143.536 93.5355 5
    endloop
  endfacet
  facet normal -0 0 1
    outer loop
      vertex 134.619 18.0866 5
      vertex 145 10 5
      vertex 134.904 19.0245 5
    endloop
  endfacet
  facet normal 0 0 1
    outer loop
      vertex 140 95 5
      vertex 143.536 93.5355 5
      vertex 142.778 94.1573 5
    endloop
  endfacet
  facet normal -0 0 1
    outer loop
      vertex 134.157 17.2221 5
      vertex 145 10 5
      vertex 134.619 18.0866 5
    endloop
  endfacet
  facet normal 0 0 1
    outer loop
      vertex 140 95 5
      vertex 142.778 94.1573 5
      vertex 141.913 94.6194 5
    endloop
  endfacet
  facet normal -0 0 1
    outer loop
      vertex 133.536 16.4645 5
      vertex 145 10 5
      vertex 134.157 17.2221 5
    endloop
  endfacet
  facet normal 0 0 1
    outer loop
      vertex 140 95 5
      vertex 141.913 94.6194 5
      vertex 140.975 94.9039 5
    endloop
  endfacet
  facet normal 0 -0 1
    outer loop
      vertex 140 5 5
      vertex 145 10 5
      vertex 133.536 16.4645 5
    endloop
  endfacet
  facet normal 0 0 1
    outer loop
      vertex 145 90 5
      vertex 140 95 5
      vertex 133.536 83.5355 5
    endloop
  endfacet
  facet normal 0 0 1
    outer loop
      vertex 145 10 5
      vertex 140 5 5
      vertex 144.904 9.02455 5
    endloop
  endfacet
  facet normal 0 0 1
    outer loop
      vertex 144.904 9.02455 5
      vertex 140 5 5
      vertex 144.619 8.08658 5
    endloop
  endfacet
  facet normal 0 0 1
    outer loop
      vertex 145 90 5
      vertex 134.904 80.9754 5
      vertex 135 80 5
    endloop
  endfacet
  facet normal 0 0 1
    outer loop
      vertex 145 90 5
      vertex 134.619 81.9134 5
      vertex 134.904 80.9754 5
    endloop
  endfacet
  facet normal 0 0 1
    outer loop
      vertex 145 90 5
      vertex 134.157 82.7778 5
      vertex 134.619 81.9134 5
    endloop
  endfacet
  facet normal 0 0 1
    outer loop
      vertex 145 90 5
      vertex 133.536 83.5355 5
      vertex 134.157 82.7778 5
    endloop
  endfacet
  facet normal 0 0 1
    outer loop
      vertex 140 95 5
      vertex 132.778 84.1573 5
      vertex 133.536 83.5355 5
    endloop
  endfacet
  facet normal 0 0 1
    outer loop
      vertex 140 95 5
      vertex 131.913 84.6194 5
      vertex 132.778 84.1573 5
    endloop
  endfacet
  facet normal 0 0 1
    outer loop
      vertex 140 95 5
      vertex 130.975 84.9039 5
      vertex 131.913 84.6194 5
    endloop
  endfacet
  facet normal 0 0 1
    outer loop
      vertex 140 95 5
      vertex 130 85 5
      vertex 130.975 84.9039 5
    endloop
  endfacet
  facet normal 0 0 1
    outer loop
      vertex 140 95 5
      vertex 20 85 5
      vertex 130 85 5
    endloop
  endfacet
  facet normal 0 0 1
    outer loop
      vertex 15.0961 80.9754 5
      vertex 5 90 5
      vertex 15 80 5
    endloop
  endfacet
  facet normal 0 0 1
    outer loop
      vertex 15.3806 81.9134 5
      vertex 5 90 5
      vertex 15.0961 80.9754 5
    endloop
  endfacet
  facet normal 0 0 1
    outer loop
      vertex 15.8427 82.7778 5
      vertex 5 90 5
      vertex 15.3806 81.9134 5
    endloop
  endfacet
  facet normal 0 0 1
    outer loop
      vertex 16.4645 83.5355 5
      vertex 5 90 5
      vertex 15.8427 82.7778 5
    endloop
  endfacet
  facet normal -0 0 1
    outer loop
      vertex 5 90 5
      vertex 16.4645 83.5355 5
      vertex 10 95 5
    endloop
  endfacet
  facet normal 0 0 1
    outer loop
      vertex 17.2221 84.1573 5
      vertex 10 95 5
      vertex 16.4645 83.5355 5
    endloop
  endfacet
  facet normal 0 0 1
    outer loop
      vertex 18.0866 84.6194 5
      vertex 10 95 5
      vertex 17.2221 84.1573 5
    endloop
  endfacet
  facet normal 0 0 1
    outer loop
      vertex 19.0245 84.9039 5
      vertex 10 95 5
      vertex 18.0866 84.6194 5
    endloop
  endfacet
  facet normal 0 0 1
    outer loop
      vertex 20 85 5
      vertex 10 95 5
      vertex 19.0245 84.9039 5
    endloop
  endfacet
  facet normal -0 0 1
    outer loop
      vertex 10 95 5
      vertex 20 85 5
      vertex 140 95 5
    endloop
  endfacet
  facet normal 0 0 1
    outer loop
      vertex 144.619 8.08658 5
      vertex 140 5 5
      vertex 144.157 7.22215 5
    endloop
  endfacet
  facet normal 0 0 1
    outer loop
      vertex 144.157 7.22215 5
      vertex 140 5 5
      vertex 143.536 6.46447 5
    endloop
  endfacet
  facet normal 0 0 1
    outer loop
      vertex 142.778 5.84265 5
      vertex 140 5 5
      vertex 141.913 5.3806 5
    endloop
  endfacet
  facet normal 0 0 1
    outer loop
      vertex 141.913 5.3806 5
      vertex 140 5 5
      vertex 140.975 5.09607 5
    endloop
  endfacet
  facet normal 0 0 1
    outer loop
      vertex 143.536 6.46447 5
      vertex 140 5 5
      vertex 142.778 5.84265 5
    endloop
  endfacet
  facet normal -0 0 1
    outer loop
      vertex 132.778 15.8427 5
      vertex 140 5 5
      vertex 133.536 16.4645 5
    endloop
  endfacet
  facet normal -0 0 1
    outer loop
      vertex 131.913 15.3806 5
      vertex 140 5 5
      vertex 132.778 15.8427 5
    endloop
  endfacet
  facet normal -0 0 1
    outer loop
      vertex 130.975 15.0961 5
      vertex 140 5 5
      vertex 131.913 15.3806 5
    endloop
  endfacet
  facet normal -0 0 1
    outer loop
      vertex 130 15 5
      vertex 140 5 5
      vertex 130.975 15.0961 5
    endloop
  endfacet
  facet normal -0 0 1
    outer loop
      vertex 20 15 5
      vertex 140 5 5
      vertex 130 15 5
    endloop
  endfacet
  facet normal 0 0 1
    outer loop
      vertex 20 15 5
      vertex 10 5 5
      vertex 140 5 5
    endloop
  endfacet
  facet normal 0 0 1
    outer loop
      vertex 19.0245 15.0961 5
      vertex 10 5 5
      vertex 20 15 5
    endloop
  endfacet
  facet normal 0 0 1
    outer loop
      vertex 18.0866 15.3806 5
      vertex 10 5 5
      vertex 19.0245 15.0961 5
    endloop
  endfacet
  facet normal 0 0 1
    outer loop
      vertex 17.2221 15.8427 5
      vertex 10 5 5
      vertex 18.0866 15.3806 5
    endloop
  endfacet
  facet normal 0 0 1
    outer loop
      vertex 16.4645 16.4645 5
      vertex 10 5 5
      vertex 17.2221 15.8427 5
    endloop
  endfacet
  facet normal 0 0 1
    outer loop
      vertex 5 10 5
      vertex 16.4645 16.4645 5
      vertex 15.8427 17.2221 5
    endloop
  endfacet
  facet normal 0 0 1
    outer loop
      vertex 5 10 5
      vertex 15.8427 17.2221 5
      vertex 15.3806 18.0866 5
    endloop
  endfacet
  facet normal 0 0 1
    outer loop
      vertex 5 10 5
      vertex 15.3806 18.0866 5
      vertex 15.0961 19.0245 5
    endloop
  endfacet
  facet normal 0 0 1
    outer loop
      vertex 5 10 5
      vertex 15.0961 19.0245 5
      vertex 15 20 5
    endloop
  endfacet
  facet normal 0 0 1
    outer loop
      vertex 15 80 5
      vertex 5 90 5
      vertex 15 20 5
    endloop
  endfacet
  facet normal 0 0 1
    outer loop
      vertex 5 90 5
      vertex 10 95 5
      vertex 9.02455 94.9039 5
    endloop
  endfacet
  facet normal 0 0 1
    outer loop
      vertex 5 10 5
      vertex 15 20 5
      vertex 5 90 5
    endloop
  endfacet
  facet normal 0 0 1
    outer loop
      vertex 5 90 5
      vertex 9.02455 94.9039 5
      vertex 8.08658 94.6194 5
    endloop
  endfacet
  facet normal 0 0 1
    outer loop
      vertex 16.4645 16.4645 5
      vertex 5 10 5
      vertex 10 5 5
    endloop
  endfacet
  facet normal 0 0 1
    outer loop
      vertex 5 90 5
      vertex 8.08658 94.6194 5
      vertex 7.22215 94.1573 5
    endloop
  endfacet
  facet normal 0 0 1
    outer loop
      vertex 10 5 5
      vertex 5 10 5
      vertex 9.02455 5.09607 5
    endloop
  endfacet
  facet normal 0 0 1
    outer loop
      vertex 5 90 5
      vertex 7.22215 94.1573 5
      vertex 6.46447 93.5355 5
    endloop
  endfacet
  facet normal 0 0 1
    outer loop
      vertex 9.02455 5.09607 5
      vertex 5 10 5
      vertex 8.08658 5.3806 5
    endloop
  endfacet
  facet normal 0 0 1
    outer loop
      vertex 5 90 5
      vertex 6.46447 93.5355 5
      vertex 5.84265 92.7778 5
    endloop
  endfacet
  facet normal 0 0 1
    outer loop
      vertex 8.08658 5.3806 5
      vertex 5 10 5
      vertex 7.22215 5.84265 5
    endloop
  endfacet
  facet normal 0 0 1
    outer loop
      vertex 5 90 5
      vertex 5.84265 92.7778 5
      vertex 5.3806 91.9134 5
    endloop
  endfacet
  facet normal 0 0 1
    outer loop
      vertex 7.22215 5.84265 5
      vertex 5 10 5
      vertex 6.46447 6.46447 5
    endloop
  endfacet
  facet normal 0 0 1
    outer loop
      vertex 5 90 5
      vertex 5.3806 91.9134 5
      vertex 5.09607 90.9754 5
    endloop
  endfacet
  facet normal 0 0 1
    outer loop
      vertex 6.46447 6.46447 5
      vertex 5 10 5
      vertex 5.84265 7.22215 5
    endloop
  endfacet
  facet normal 0 0 1
    outer loop
      vertex 5.84265 7.22215 5
      vertex 5 10 5
      vertex 5.3806 8.08658 5
    endloop
  endfacet
  facet normal 0 0 1
    outer loop
      vertex 5.3806 8.08658 5
      vertex 5 10 5
      vertex 5.09607 9.02455 5
    endloop
  endfacet
  facet normal 0 1 -0
    outer loop
      vertex 140 5 5
      vertex 10 5 20
      vertex 140 5 20
    endloop
  endfacet
  facet normal 0 1 0
    outer loop
      vertex 10 5 20
      vertex 140 5 5
      vertex 10 5 5
    endloop
  endfacet
  facet normal -0.634226 -0.773148 0
    outer loop
      vertex 142.778 94.1573 5
      vertex 143.536 93.5355 20
      vertex 142.778 94.1573 20
    endloop
  endfacet
  facet normal -0.634226 -0.773148 -0
    outer loop
      vertex 143.536 93.5355 20
      vertex 142.778 94.1573 5
      vertex 143.536 93.5355 5
    endloop
  endfacet
  facet normal 0.995185 -0.0980186 0
    outer loop
      vertex 5 90 20
      vertex 5.09607 90.9754 5
      vertex 5.09607 90.9754 20
    endloop
  endfacet
  facet normal 0.995185 -0.0980186 0
    outer loop
      vertex 5.09607 90.9754 5
      vertex 5 90 20
      vertex 5 90 5
    endloop
  endfacet
  facet normal -1 0 0
    outer loop
      vertex 145 10 5
      vertex 145 90 20
      vertex 145 90 5
    endloop
  endfacet
  facet normal -1 -0 0
    outer loop
      vertex 145 90 20
      vertex 145 10 5
      vertex 145 10 20
    endloop
  endfacet
  facet normal -0.0980585 0.995181 0
    outer loop
      vertex 140.975 5.09607 5
      vertex 140 5 20
      vertex 140.975 5.09607 20
    endloop
  endfacet
  facet normal -0.0980585 0.995181 0
    outer loop
      vertex 140 5 20
      vertex 140.975 5.09607 5
      vertex 140 5 5
    endloop
  endfacet
  facet normal 0.995185 0.0980137 0
    outer loop
      vertex 5.09607 9.02455 20
      vertex 5 10 5
      vertex 5 10 20
    endloop
  endfacet
  facet normal 0.995185 0.0980137 0
    outer loop
      vertex 5 10 5
      vertex 5.09607 9.02455 20
      vertex 5.09607 9.02455 5
    endloop
  endfacet
  facet normal 1 -0 0
    outer loop
      vertex 5 10 20
      vertex 5 90 5
      vertex 5 90 20
    endloop
  endfacet
  facet normal 1 0 0
    outer loop
      vertex 5 90 5
      vertex 5 10 20
      vertex 5 10 5
    endloop
  endfacet
  facet normal 0.773015 -0.634388 0
    outer loop
      vertex 5.84265 92.7778 20
      vertex 6.46447 93.5355 5
      vertex 6.46447 93.5355 20
    endloop
  endfacet
  facet normal 0.773015 -0.634388 0
    outer loop
      vertex 6.46447 93.5355 5
      vertex 5.84265 92.7778 20
      vertex 5.84265 92.7778 5
    endloop
  endfacet
  facet normal 0.634386 -0.773016 0
    outer loop
      vertex 6.46447 93.5355 5
      vertex 7.22215 94.1573 20
      vertex 6.46447 93.5355 20
    endloop
  endfacet
  facet normal 0.634386 -0.773016 0
    outer loop
      vertex 7.22215 94.1573 20
      vertex 6.46447 93.5355 5
      vertex 7.22215 94.1573 5
    endloop
  endfacet
  facet normal 0 -1 0
    outer loop
      vertex 10 95 5
      vertex 140 95 20
      vertex 10 95 20
    endloop
  endfacet
  facet normal 0 -1 -0
    outer loop
      vertex 140 95 20
      vertex 10 95 5
      vertex 140 95 5
    endloop
  endfacet
  facet normal -0.95681 -0.290715 0
    outer loop
      vertex 144.904 90.9754 5
      vertex 144.619 91.9134 20
      vertex 144.619 91.9134 5
    endloop
  endfacet
  facet normal -0.95681 -0.290715 0
    outer loop
      vertex 144.619 91.9134 20
      vertex 144.904 90.9754 5
      vertex 144.904 90.9754 20
    endloop
  endfacet
  facet normal -0.634238 0.773138 0
    outer loop
      vertex 143.536 6.46447 5
      vertex 142.778 5.84265 20
      vertex 143.536 6.46447 20
    endloop
  endfacet
  facet normal -0.634238 0.773138 0
    outer loop
      vertex 142.778 5.84265 20
      vertex 143.536 6.46447 5
      vertex 142.778 5.84265 5
    endloop
  endfacet
  facet normal 0.773006 0.634398 0
    outer loop
      vertex 6.46447 6.46447 20
      vertex 5.84265 7.22215 5
      vertex 5.84265 7.22215 20
    endloop
  endfacet
  facet normal 0.773006 0.634398 0
    outer loop
      vertex 5.84265 7.22215 5
      vertex 6.46447 6.46447 20
      vertex 6.46447 6.46447 5
    endloop
  endfacet
  facet normal -0.471197 -0.882028 0
    outer loop
      vertex 141.913 94.6194 5
      vertex 142.778 94.1573 20
      vertex 141.913 94.6194 20
    endloop
  endfacet
  facet normal -0.471197 -0.882028 -0
    outer loop
      vertex 142.778 94.1573 20
      vertex 141.913 94.6194 5
      vertex 142.778 94.1573 5
    endloop
  endfacet
  facet normal -0.0980888 -0.995178 0
    outer loop
      vertex 140 95 5
      vertex 140.975 94.9039 20
      vertex 140 95 20
    endloop
  endfacet
  facet normal -0.0980888 -0.995178 -0
    outer loop
      vertex 140.975 94.9039 20
      vertex 140 95 5
      vertex 140.975 94.9039 5
    endloop
  endfacet
  facet normal 0.471438 -0.881899 0
    outer loop
      vertex 7.22215 94.1573 5
      vertex 8.08658 94.6194 20
      vertex 7.22215 94.1573 20
    endloop
  endfacet
  facet normal 0.471438 -0.881899 0
    outer loop
      vertex 8.08658 94.6194 20
      vertex 7.22215 94.1573 5
      vertex 8.08658 94.6194 5
    endloop
  endfacet
  facet normal 0.098044 -0.995182 0
    outer loop
      vertex 9.02455 94.9039 5
      vertex 10 95 20
      vertex 9.02455 94.9039 20
    endloop
  endfacet
  facet normal 0.098044 -0.995182 0
    outer loop
      vertex 10 95 20
      vertex 9.02455 94.9039 5
      vertex 10 95 5
    endloop
  endfacet
  facet normal -0.995192 -0.0979479 0
    outer loop
      vertex 145 90 5
      vertex 144.904 90.9754 20
      vertex 144.904 90.9754 5
    endloop
  endfacet
  facet normal -0.995192 -0.0979479 0
    outer loop
      vertex 144.904 90.9754 20
      vertex 145 90 5
      vertex 145 90 20
    endloop
  endfacet
  facet normal -0.773417 0.633898 0
    outer loop
      vertex 143.536 6.46447 5
      vertex 144.157 7.22215 20
      vertex 144.157 7.22215 5
    endloop
  endfacet
  facet normal -0.773417 0.633898 0
    outer loop
      vertex 144.157 7.22215 20
      vertex 143.536 6.46447 5
      vertex 143.536 6.46447 20
    endloop
  endfacet
  facet normal 0.956943 -0.290276 0
    outer loop
      vertex 5.09607 90.9754 20
      vertex 5.3806 91.9134 5
      vertex 5.3806 91.9134 20
    endloop
  endfacet
  facet normal 0.956943 -0.290276 0
    outer loop
      vertex 5.3806 91.9134 5
      vertex 5.09607 90.9754 20
      vertex 5.09607 90.9754 5
    endloop
  endfacet
  facet normal 0.881913 -0.471411 0
    outer loop
      vertex 5.3806 91.9134 20
      vertex 5.84265 92.7778 5
      vertex 5.84265 92.7778 20
    endloop
  endfacet
  facet normal 0.881913 -0.471411 0
    outer loop
      vertex 5.84265 92.7778 5
      vertex 5.3806 91.9134 20
      vertex 5.3806 91.9134 5
    endloop
  endfacet
  facet normal -0.773425 -0.633888 0
    outer loop
      vertex 144.157 92.7778 5
      vertex 143.536 93.5355 20
      vertex 143.536 93.5355 5
    endloop
  endfacet
  facet normal -0.773425 -0.633888 0
    outer loop
      vertex 143.536 93.5355 20
      vertex 144.157 92.7778 5
      vertex 144.157 92.7778 20
    endloop
  endfacet
  facet normal -0.881935 -0.471372 0
    outer loop
      vertex 144.619 91.9134 5
      vertex 144.157 92.7778 20
      vertex 144.157 92.7778 5
    endloop
  endfacet
  facet normal -0.881935 -0.471372 0
    outer loop
      vertex 144.157 92.7778 20
      vertex 144.619 91.9134 5
      vertex 144.619 91.9134 20
    endloop
  endfacet
  facet normal -0.290248 -0.956951 0
    outer loop
      vertex 140.975 94.9039 5
      vertex 141.913 94.6194 20
      vertex 140.975 94.9039 20
    endloop
  endfacet
  facet normal -0.290248 -0.956951 -0
    outer loop
      vertex 141.913 94.6194 20
      vertex 140.975 94.9039 5
      vertex 141.913 94.6194 5
    endloop
  endfacet
  facet normal 0.290257 -0.956949 0
    outer loop
      vertex 8.08658 94.6194 5
      vertex 9.02455 94.9039 20
      vertex 8.08658 94.6194 20
    endloop
  endfacet
  facet normal 0.290257 -0.956949 0
    outer loop
      vertex 9.02455 94.9039 20
      vertex 8.08658 94.6194 5
      vertex 9.02455 94.9039 5
    endloop
  endfacet
  facet normal -0.995192 0.0979429 0
    outer loop
      vertex 144.904 9.02455 5
      vertex 145 10 20
      vertex 145 10 5
    endloop
  endfacet
  facet normal -0.995192 0.0979429 0
    outer loop
      vertex 145 10 20
      vertex 144.904 9.02455 5
      vertex 144.904 9.02455 20
    endloop
  endfacet
  facet normal 0.471399 0.88192 -0
    outer loop
      vertex 8.08658 5.3806 5
      vertex 7.22215 5.84265 20
      vertex 8.08658 5.3806 20
    endloop
  endfacet
  facet normal 0.471399 0.88192 0
    outer loop
      vertex 7.22215 5.84265 20
      vertex 8.08658 5.3806 5
      vertex 7.22215 5.84265 5
    endloop
  endfacet
  facet normal 0.0980137 0.995185 -0
    outer loop
      vertex 10 5 5
      vertex 9.02455 5.09607 20
      vertex 10 5 20
    endloop
  endfacet
  facet normal 0.0980137 0.995185 0
    outer loop
      vertex 9.02455 5.09607 20
      vertex 10 5 5
      vertex 9.02455 5.09607 5
    endloop
  endfacet
  facet normal 0.290285 0.95694 -0
    outer loop
      vertex 9.02455 5.09607 5
      vertex 8.08658 5.3806 20
      vertex 9.02455 5.09607 20
    endloop
  endfacet
  facet normal 0.290285 0.95694 0
    outer loop
      vertex 8.08658 5.3806 20
      vertex 9.02455 5.09607 5
      vertex 8.08658 5.3806 5
    endloop
  endfacet
  facet normal -0.471157 0.882049 0
    outer loop
      vertex 142.778 5.84265 5
      vertex 141.913 5.3806 20
      vertex 142.778 5.84265 20
    endloop
  endfacet
  facet normal -0.471157 0.882049 0
    outer loop
      vertex 141.913 5.3806 20
      vertex 142.778 5.84265 5
      vertex 141.913 5.3806 5
    endloop
  endfacet
  facet normal -0.290276 0.956943 0
    outer loop
      vertex 141.913 5.3806 5
      vertex 140.975 5.09607 20
      vertex 141.913 5.3806 20
    endloop
  endfacet
  facet normal -0.290276 0.956943 0
    outer loop
      vertex 140.975 5.09607 20
      vertex 141.913 5.3806 5
      vertex 140.975 5.09607 5
    endloop
  endfacet
  facet normal -0.881941 0.471359 0
    outer loop
      vertex 144.157 7.22215 5
      vertex 144.619 8.08658 20
      vertex 144.619 8.08658 5
    endloop
  endfacet
  facet normal -0.881941 0.471359 0
    outer loop
      vertex 144.619 8.08658 20
      vertex 144.157 7.22215 5
      vertex 144.157 7.22215 20
    endloop
  endfacet
  facet normal -0.956807 0.290724 0
    outer loop
      vertex 144.619 8.08658 5
      vertex 144.904 9.02455 20
      vertex 144.904 9.02455 5
    endloop
  endfacet
  facet normal -0.956807 0.290724 0
    outer loop
      vertex 144.904 9.02455 20
      vertex 144.619 8.08658 5
      vertex 144.619 8.08658 20
    endloop
  endfacet
  facet normal 0.634398 0.773006 -0
    outer loop
      vertex 7.22215 5.84265 5
      vertex 6.46447 6.46447 20
      vertex 7.22215 5.84265 20
    endloop
  endfacet
  facet normal 0.634398 0.773006 0
    outer loop
      vertex 6.46447 6.46447 20
      vertex 7.22215 5.84265 5
      vertex 6.46447 6.46447 5
    endloop
  endfacet
  facet normal 0.956943 0.290276 0
    outer loop
      vertex 15.3806 18.0866 5
      vertex 15.0961 19.0245 0
      vertex 15.0961 19.0245 5
    endloop
  endfacet
  facet normal 0.956943 0.290276 0
    outer loop
      vertex 15.0961 19.0245 0
      vertex 15.3806 18.0866 5
      vertex 15.3806 18.0866 0
    endloop
  endfacet
  facet normal 0.881915 0.471409 0
    outer loop
      vertex 15.8427 17.2221 5
      vertex 15.3806 18.0866 0
      vertex 15.3806 18.0866 5
    endloop
  endfacet
  facet normal 0.881915 0.471409 0
    outer loop
      vertex 15.3806 18.0866 0
      vertex 15.8427 17.2221 5
      vertex 15.8427 17.2221 0
    endloop
  endfacet
  facet normal 0.995183 0.098039 0
    outer loop
      vertex 15.0961 19.0245 5
      vertex 15 20 0
      vertex 15 20 5
    endloop
  endfacet
  facet normal 0.995183 0.098039 0
    outer loop
      vertex 15 20 0
      vertex 15.0961 19.0245 5
      vertex 15.0961 19.0245 0
    endloop
  endfacet
  facet normal -0.881935 -0.471372 0
    outer loop
      vertex 134.619 81.9134 0
      vertex 134.157 82.7778 5
      vertex 134.157 82.7778 0
    endloop
  endfacet
  facet normal -0.881935 -0.471372 0
    outer loop
      vertex 134.157 82.7778 5
      vertex 134.619 81.9134 0
      vertex 134.619 81.9134 5
    endloop
  endfacet
  facet normal 0 1 -0
    outer loop
      vertex 130 15 0
      vertex 20 15 5
      vertex 130 15 5
    endloop
  endfacet
  facet normal 0 1 0
    outer loop
      vertex 20 15 5
      vertex 130 15 0
      vertex 20 15 0
    endloop
  endfacet
  facet normal -0.0980888 0.995178 0
    outer loop
      vertex 130.975 15.0961 0
      vertex 130 15 5
      vertex 130.975 15.0961 5
    endloop
  endfacet
  facet normal -0.0980888 0.995178 0
    outer loop
      vertex 130 15 5
      vertex 130.975 15.0961 0
      vertex 130 15 0
    endloop
  endfacet
  facet normal 0.471409 -0.881915 0
    outer loop
      vertex 17.2221 84.1573 0
      vertex 18.0866 84.6194 5
      vertex 17.2221 84.1573 5
    endloop
  endfacet
  facet normal 0.471409 -0.881915 0
    outer loop
      vertex 18.0866 84.6194 5
      vertex 17.2221 84.1573 0
      vertex 18.0866 84.6194 0
    endloop
  endfacet
  facet normal 0.290276 0.956943 -0
    outer loop
      vertex 19.0245 15.0961 0
      vertex 18.0866 15.3806 5
      vertex 19.0245 15.0961 5
    endloop
  endfacet
  facet normal 0.290276 0.956943 0
    outer loop
      vertex 18.0866 15.3806 5
      vertex 19.0245 15.0961 0
      vertex 18.0866 15.3806 0
    endloop
  endfacet
  facet normal -1 0 0
    outer loop
      vertex 135 20 0
      vertex 135 80 5
      vertex 135 80 0
    endloop
  endfacet
  facet normal -1 -0 0
    outer loop
      vertex 135 80 5
      vertex 135 20 0
      vertex 135 20 5
    endloop
  endfacet
  facet normal 0.772984 0.634426 0
    outer loop
      vertex 16.4645 16.4645 5
      vertex 15.8427 17.2221 0
      vertex 15.8427 17.2221 5
    endloop
  endfacet
  facet normal 0.772984 0.634426 0
    outer loop
      vertex 15.8427 17.2221 0
      vertex 16.4645 16.4645 5
      vertex 16.4645 16.4645 0
    endloop
  endfacet
  facet normal 1 -0 0
    outer loop
      vertex 15 20 5
      vertex 15 80 0
      vertex 15 80 5
    endloop
  endfacet
  facet normal 1 0 0
    outer loop
      vertex 15 80 0
      vertex 15 20 5
      vertex 15 20 0
    endloop
  endfacet
  facet normal -0.773425 -0.633888 0
    outer loop
      vertex 134.157 82.7778 0
      vertex 133.536 83.5355 5
      vertex 133.536 83.5355 0
    endloop
  endfacet
  facet normal -0.773425 -0.633888 0
    outer loop
      vertex 133.536 83.5355 5
      vertex 134.157 82.7778 0
      vertex 134.157 82.7778 5
    endloop
  endfacet
  facet normal -0.95681 -0.290715 0
    outer loop
      vertex 134.904 80.9754 0
      vertex 134.619 81.9134 5
      vertex 134.619 81.9134 0
    endloop
  endfacet
  facet normal -0.95681 -0.290715 0
    outer loop
      vertex 134.619 81.9134 5
      vertex 134.904 80.9754 0
      vertex 134.904 80.9754 5
    endloop
  endfacet
  facet normal -0.995192 -0.0979479 0
    outer loop
      vertex 135 80 0
      vertex 134.904 80.9754 5
      vertex 134.904 80.9754 0
    endloop
  endfacet
  facet normal -0.995192 -0.0979479 0
    outer loop
      vertex 134.904 80.9754 5
      vertex 135 80 0
      vertex 135 80 5
    endloop
  endfacet
  facet normal -0.290248 0.956951 0
    outer loop
      vertex 131.913 15.3806 0
      vertex 130.975 15.0961 5
      vertex 131.913 15.3806 5
    endloop
  endfacet
  facet normal -0.290248 0.956951 0
    outer loop
      vertex 130.975 15.0961 5
      vertex 131.913 15.3806 0
      vertex 130.975 15.0961 0
    endloop
  endfacet
  facet normal 0.773025 -0.634376 0
    outer loop
      vertex 15.8427 82.7778 5
      vertex 16.4645 83.5355 0
      vertex 16.4645 83.5355 5
    endloop
  endfacet
  facet normal 0.773025 -0.634376 0
    outer loop
      vertex 16.4645 83.5355 0
      vertex 15.8427 82.7778 5
      vertex 15.8427 82.7778 0
    endloop
  endfacet
  facet normal 0.995182 -0.098049 0
    outer loop
      vertex 15 80 5
      vertex 15.0961 80.9754 0
      vertex 15.0961 80.9754 5
    endloop
  endfacet
  facet normal 0.995182 -0.098049 0
    outer loop
      vertex 15.0961 80.9754 0
      vertex 15 80 5
      vertex 15 80 0
    endloop
  endfacet
  facet normal 0.956951 -0.290248 0
    outer loop
      vertex 15.0961 80.9754 5
      vertex 15.3806 81.9134 0
      vertex 15.3806 81.9134 5
    endloop
  endfacet
  facet normal 0.956951 -0.290248 0
    outer loop
      vertex 15.3806 81.9134 0
      vertex 15.0961 80.9754 5
      vertex 15.0961 80.9754 0
    endloop
  endfacet
  facet normal -0.634226 -0.773148 0
    outer loop
      vertex 132.778 84.1573 0
      vertex 133.536 83.5355 5
      vertex 132.778 84.1573 5
    endloop
  endfacet
  facet normal -0.634226 -0.773148 -0
    outer loop
      vertex 133.536 83.5355 5
      vertex 132.778 84.1573 0
      vertex 133.536 83.5355 0
    endloop
  endfacet
  facet normal -0.0980888 -0.995178 0
    outer loop
      vertex 130 85 0
      vertex 130.975 84.9039 5
      vertex 130 85 5
    endloop
  endfacet
  facet normal -0.0980888 -0.995178 -0
    outer loop
      vertex 130.975 84.9039 5
      vertex 130 85 0
      vertex 130.975 84.9039 0
    endloop
  endfacet
  facet normal -0.471197 -0.882028 0
    outer loop
      vertex 131.913 84.6194 0
      vertex 132.778 84.1573 5
      vertex 131.913 84.6194 5
    endloop
  endfacet
  facet normal -0.471197 -0.882028 -0
    outer loop
      vertex 132.778 84.1573 5
      vertex 131.913 84.6194 0
      vertex 132.778 84.1573 0
    endloop
  endfacet
  facet normal -0.956801 0.290743 0
    outer loop
      vertex 134.619 18.0866 0
      vertex 134.904 19.0245 5
      vertex 134.904 19.0245 0
    endloop
  endfacet
  facet normal -0.956801 0.290743 0
    outer loop
      vertex 134.904 19.0245 5
      vertex 134.619 18.0866 0
      vertex 134.619 18.0866 5
    endloop
  endfacet
  facet normal -0.773384 0.633938 0
    outer loop
      vertex 133.536 16.4645 0
      vertex 134.157 17.2221 5
      vertex 134.157 17.2221 0
    endloop
  endfacet
  facet normal -0.773384 0.633938 0
    outer loop
      vertex 134.157 17.2221 5
      vertex 133.536 16.4645 0
      vertex 133.536 16.4645 5
    endloop
  endfacet
  facet normal 0.471409 0.881915 -0
    outer loop
      vertex 18.0866 15.3806 0
      vertex 17.2221 15.8427 5
      vertex 18.0866 15.3806 5
    endloop
  endfacet
  facet normal 0.471409 0.881915 0
    outer loop
      vertex 17.2221 15.8427 5
      vertex 18.0866 15.3806 0
      vertex 17.2221 15.8427 0
    endloop
  endfacet
  facet normal 0.634426 -0.772984 0
    outer loop
      vertex 16.4645 83.5355 0
      vertex 17.2221 84.1573 5
      vertex 16.4645 83.5355 5
    endloop
  endfacet
  facet normal 0.634426 -0.772984 0
    outer loop
      vertex 17.2221 84.1573 5
      vertex 16.4645 83.5355 0
      vertex 17.2221 84.1573 0
    endloop
  endfacet
  facet normal 0.881892 -0.471451 0
    outer loop
      vertex 15.3806 81.9134 5
      vertex 15.8427 82.7778 0
      vertex 15.8427 82.7778 5
    endloop
  endfacet
  facet normal 0.881892 -0.471451 0
    outer loop
      vertex 15.8427 82.7778 0
      vertex 15.3806 81.9134 5
      vertex 15.3806 81.9134 0
    endloop
  endfacet
  facet normal 0 -1 0
    outer loop
      vertex 20 85 0
      vertex 130 85 5
      vertex 20 85 5
    endloop
  endfacet
  facet normal 0 -1 -0
    outer loop
      vertex 130 85 5
      vertex 20 85 0
      vertex 130 85 0
    endloop
  endfacet
  facet normal -0.881957 0.471329 0
    outer loop
      vertex 134.157 17.2221 0
      vertex 134.619 18.0866 5
      vertex 134.619 18.0866 0
    endloop
  endfacet
  facet normal -0.881957 0.471329 0
    outer loop
      vertex 134.619 18.0866 5
      vertex 134.157 17.2221 0
      vertex 134.157 17.2221 5
    endloop
  endfacet
  facet normal -0.634226 0.773148 0
    outer loop
      vertex 133.536 16.4645 0
      vertex 132.778 15.8427 5
      vertex 133.536 16.4645 5
    endloop
  endfacet
  facet normal -0.634226 0.773148 0
    outer loop
      vertex 132.778 15.8427 5
      vertex 133.536 16.4645 0
      vertex 132.778 15.8427 0
    endloop
  endfacet
  facet normal -0.471197 0.882028 0
    outer loop
      vertex 132.778 15.8427 0
      vertex 131.913 15.3806 5
      vertex 132.778 15.8427 5
    endloop
  endfacet
  facet normal -0.471197 0.882028 0
    outer loop
      vertex 131.913 15.3806 5
      vertex 132.778 15.8427 0
      vertex 131.913 15.3806 0
    endloop
  endfacet
  facet normal 0.098039 0.995183 -0
    outer loop
      vertex 20 15 0
      vertex 19.0245 15.0961 5
      vertex 20 15 5
    endloop
  endfacet
  facet normal 0.098039 0.995183 0
    outer loop
      vertex 19.0245 15.0961 5
      vertex 20 15 0
      vertex 19.0245 15.0961 0
    endloop
  endfacet
  facet normal 0.634426 0.772984 -0
    outer loop
      vertex 17.2221 15.8427 0
      vertex 16.4645 16.4645 5
      vertex 17.2221 15.8427 5
    endloop
  endfacet
  facet normal 0.634426 0.772984 0
    outer loop
      vertex 16.4645 16.4645 5
      vertex 17.2221 15.8427 0
      vertex 16.4645 16.4645 0
    endloop
  endfacet
  facet normal 0.290276 -0.956943 0
    outer loop
      vertex 18.0866 84.6194 0
      vertex 19.0245 84.9039 5
      vertex 18.0866 84.6194 5
    endloop
  endfacet
  facet normal 0.290276 -0.956943 0
    outer loop
      vertex 19.0245 84.9039 5
      vertex 18.0866 84.6194 0
      vertex 19.0245 84.9039 0
    endloop
  endfacet
  facet normal 0.098039 -0.995183 0
    outer loop
      vertex 19.0245 84.9039 0
      vertex 20 85 5
      vertex 19.0245 84.9039 5
    endloop
  endfacet
  facet normal 0.098039 -0.995183 0
    outer loop
      vertex 20 85 5
      vertex 19.0245 84.9039 0
      vertex 20 85 0
    endloop
  endfacet
  facet normal -0.290248 -0.956951 0
    outer loop
      vertex 130.975 84.9039 0
      vertex 131.913 84.6194 5
      vertex 130.975 84.9039 5
    endloop
  endfacet
  facet normal -0.290248 -0.956951 -0
    outer loop
      vertex 131.913 84.6194 5
      vertex 130.975 84.9039 0
      vertex 131.913 84.6194 0
    endloop
  endfacet
  facet normal -0.995193 0.097938 0
    outer loop
      vertex 134.904 19.0245 0
      vertex 135 20 5
      vertex 135 20 0
    endloop
  endfacet
  facet normal -0.995193 0.097938 0
    outer loop
      vertex 135 20 5
      vertex 134.904 19.0245 0
      vertex 134.904 19.0245 5
    endloop
  endfacet
endsolid OpenSCAD_Model
