solid OpenSCAD_Model
  facet normal -1 0 0
    outer loop
      vertex 2.38125 0 2.54
      vertex 2.38125 20 9.04875
      vertex 2.38125 20 2.54
    endloop
  endfacet
  facet normal -1 -0 0
    outer loop
      vertex 2.38125 20 9.04875
      vertex 2.38125 0 2.54
      vertex 2.38125 0 9.04875
    endloop
  endfacet
  facet normal -0 0 1
    outer loop
      vertex 2.38125 20 9.04875
      vertex 21.4312 0 9.04875
      vertex 21.4312 20 9.04875
    endloop
  endfacet
  facet normal 0 0 1
    outer loop
      vertex 21.4312 0 9.04875
      vertex 2.38125 20 9.04875
      vertex 2.38125 0 9.04875
    endloop
  endfacet
  facet normal 1 -0 0
    outer loop
      vertex 21.4312 0 9.04875
      vertex 21.4312 20 2.54
      vertex 21.4312 20 9.04875
    endloop
  endfacet
  facet normal 1 0 0
    outer loop
      vertex 21.4312 20 2.54
      vertex 21.4312 0 9.04875
      vertex 21.4312 0 2.54
    endloop
  endfacet
  facet normal 0 0 -1
    outer loop
      vertex 0 0 0
      vertex 23.8125 20 0
      vertex 23.8125 0 0
    endloop
  endfacet
  facet normal -0 0 -1
    outer loop
      vertex 23.8125 20 0
      vertex 0 0 0
      vertex 0 20 0
    endloop
  endfacet
  facet normal 0 -1 0
    outer loop
      vertex 0 0 0
      vertex 2.38125 0 2.54
      vertex 0 0 2.54
    endloop
  endfacet
  facet normal 0 -1 -0
    outer loop
      vertex 2.38125 0 2.54
      vertex 0 0 0
      vertex 21.4312 0 2.54
    endloop
  endfacet
  facet normal 0 -1 0
    outer loop
      vertex 23.8125 0 0
      vertex 21.4312 0 2.54
      vertex 0 0 0
    endloop
  endfacet
  facet normal 0 -1 0
    outer loop
      vertex 21.4312 0 2.54
      vertex 23.8125 0 0
      vertex 23.8125 0 2.54
    endloop
  endfacet
  facet normal 0 -1 0
    outer loop
      vertex 2.38125 0 2.54
      vertex 21.4312 0 9.04875
      vertex 2.38125 0 9.04875
    endloop
  endfacet
  facet normal 0 -1 -0
    outer loop
      vertex 21.4312 0 9.04875
      vertex 2.38125 0 2.54
      vertex 21.4312 0 2.54
    endloop
  endfacet
  facet normal 0 1 -0
    outer loop
      vertex 23.8125 20 0
      vertex 21.4312 20 2.54
      vertex 23.8125 20 2.54
    endloop
  endfacet
  facet normal 0 1 0
    outer loop
      vertex 21.4312 20 2.54
      vertex 23.8125 20 0
      vertex 2.38125 20 2.54
    endloop
  endfacet
  facet normal 0 1 0
    outer loop
      vertex 0 20 0
      vertex 2.38125 20 2.54
      vertex 23.8125 20 0
    endloop
  endfacet
  facet normal 0 1 0
    outer loop
      vertex 2.38125 20 2.54
      vertex 0 20 0
      vertex 0 20 2.54
    endloop
  endfacet
  facet normal 0 1 -0
    outer loop
      vertex 21.4312 20 2.54
      vertex 2.38125 20 9.04875
      vertex 21.4312 20 9.04875
    endloop
  endfacet
  facet normal 0 1 0
    outer loop
      vertex 2.38125 20 9.04875
      vertex 21.4312 20 2.54
      vertex 2.38125 20 2.54
    endloop
  endfacet
  facet normal -1 0 0
    outer loop
      vertex 0 0 0
      vertex 0 20 2.54
      vertex 0 20 0
    endloop
  endfacet
  facet normal -1 -0 0
    outer loop
      vertex 0 20 2.54
      vertex 0 0 0
      vertex 0 0 2.54
    endloop
  endfacet
  facet normal -0 0 1
    outer loop
      vertex 21.4312 20 2.54
      vertex 23.8125 0 2.54
      vertex 23.8125 20 2.54
    endloop
  endfacet
  facet normal 0 0 1
    outer loop
      vertex 23.8125 0 2.54
      vertex 21.4312 20 2.54
      vertex 21.4312 0 2.54
    endloop
  endfacet
  facet normal -0 0 1
    outer loop
      vertex 0 20 2.54
      vertex 2.38125 0 2.54
      vertex 2.38125 20 2.54
    endloop
  endfacet
  facet normal 0 0 1
    outer loop
      vertex 2.38125 0 2.54
      vertex 0 20 2.54
      vertex 0 0 2.54
    endloop
  endfacet
  facet normal 1 -0 0
    outer loop
      vertex 23.8125 0 2.54
      vertex 23.8125 20 0
      vertex 23.8125 20 2.54
    endloop
  endfacet
  facet normal 1 0 0
    outer loop
      vertex 23.8125 20 0
      vertex 23.8125 0 2.54
      vertex 23.8125 0 0
    endloop
  endfacet
endsolid OpenSCAD_Model
