solid OpenSCAD_Model
  facet normal 0 -0.948683 0.316228
    outer loop
      vertex -10 -10 1
      vertex 9 -9 4
      vertex -9 -9 4
    endloop
  endfacet
  facet normal 0 -0.948683 0.316228
    outer loop
      vertex 9 -9 4
      vertex -10 -10 1
      vertex 10 -10 1
    endloop
  endfacet
  facet normal -0.948683 0 0.316228
    outer loop
      vertex -10 10 1
      vertex -9 -9 4
      vertex -9 9 4
    endloop
  endfacet
  facet normal -0.948683 0 0.316228
    outer loop
      vertex -9 -9 4
      vertex -10 10 1
      vertex -10 -10 1
    endloop
  endfacet
  facet normal 0 -1 0
    outer loop
      vertex -10 -10 0
      vertex 10 -10 1
      vertex -10 -10 1
    endloop
  endfacet
  facet normal 0 -1 -0
    outer loop
      vertex 10 -10 1
      vertex -10 -10 0
      vertex 10 -10 0
    endloop
  endfacet
  facet normal -0 0 1
    outer loop
      vertex -9 9 4
      vertex 9 -9 4
      vertex 9 9 4
    endloop
  endfacet
  facet normal 0 0 1
    outer loop
      vertex 9 -9 4
      vertex -9 9 4
      vertex -9 -9 4
    endloop
  endfacet
  facet normal 0.948683 -0 0.316228
    outer loop
      vertex 9 -9 4
      vertex 10 10 1
      vertex 9 9 4
    endloop
  endfacet
  facet normal 0.948683 0 0.316228
    outer loop
      vertex 10 10 1
      vertex 9 -9 4
      vertex 10 -10 1
    endloop
  endfacet
  facet normal -1 0 0
    outer loop
      vertex -10 -10 0
      vertex -10 10 1
      vertex -10 10 0
    endloop
  endfacet
  facet normal -1 -0 0
    outer loop
      vertex -10 10 1
      vertex -10 -10 0
      vertex -10 -10 1
    endloop
  endfacet
  facet normal 0 1 -0
    outer loop
      vertex 10 10 0
      vertex -10 10 1
      vertex 10 10 1
    endloop
  endfacet
  facet normal 0 1 0
    outer loop
      vertex -10 10 1
      vertex 10 10 0
      vertex -10 10 0
    endloop
  endfacet
  facet normal 0 0.948683 0.316228
    outer loop
      vertex 10 10 1
      vertex -9 9 4
      vertex 9 9 4
    endloop
  endfacet
  facet normal 0 0.948683 0.316228
    outer loop
      vertex -9 9 4
      vertex 10 10 1
      vertex -10 10 1
    endloop
  endfacet
  facet normal 0 0 -1
    outer loop
      vertex 10 -10 0
      vertex 4 0 0
      vertex 10 10 0
    endloop
  endfacet
  facet normal 0 0 -1
    outer loop
      vertex 10 -10 0
      vertex 3.92314 -0.780361 0
      vertex 4 0 0
    endloop
  endfacet
  facet normal 0 0 -1
    outer loop
      vertex 10 -10 0
      vertex 3.69552 -1.53073 0
      vertex 3.92314 -0.780361 0
    endloop
  endfacet
  facet normal 0 0 -1
    outer loop
      vertex 10 -10 0
      vertex 3.32588 -2.22228 0
      vertex 3.69552 -1.53073 0
    endloop
  endfacet
  facet normal 0 0 -1
    outer loop
      vertex 10 -10 0
      vertex 2.82843 -2.82843 0
      vertex 3.32588 -2.22228 0
    endloop
  endfacet
  facet normal 0 0 -1
    outer loop
      vertex 10 -10 0
      vertex 2.22228 -3.32588 0
      vertex 2.82843 -2.82843 0
    endloop
  endfacet
  facet normal 0 0 -1
    outer loop
      vertex 10 -10 0
      vertex 1.53073 -3.69552 0
      vertex 2.22228 -3.32588 0
    endloop
  endfacet
  facet normal 0 0 -1
    outer loop
      vertex 10 -10 0
      vertex 0.780361 -3.92314 0
      vertex 1.53073 -3.69552 0
    endloop
  endfacet
  facet normal 0 0 -1
    outer loop
      vertex 10 -10 0
      vertex 0 -4 0
      vertex 0.780361 -3.92314 0
    endloop
  endfacet
  facet normal 0 0 -1
    outer loop
      vertex -10 -10 0
      vertex 0 -4 0
      vertex 10 -10 0
    endloop
  endfacet
  facet normal -0 0 -1
    outer loop
      vertex 0 -4 0
      vertex -10 -10 0
      vertex -0.780361 -3.92314 0
    endloop
  endfacet
  facet normal -0 0 -1
    outer loop
      vertex -0.780361 -3.92314 0
      vertex -10 -10 0
      vertex -1.53073 -3.69552 0
    endloop
  endfacet
  facet normal -0 0 -1
    outer loop
      vertex -3.92314 -0.780361 0
      vertex -10 -10 0
      vertex -4 0 0
    endloop
  endfacet
  facet normal -0 0 -1
    outer loop
      vertex -3.69552 -1.53073 0
      vertex -10 -10 0
      vertex -3.92314 -0.780361 0
    endloop
  endfacet
  facet normal -0 0 -1
    outer loop
      vertex -3.32588 -2.22228 0
      vertex -10 -10 0
      vertex -3.69552 -1.53073 0
    endloop
  endfacet
  facet normal -0 0 -1
    outer loop
      vertex -2.82843 -2.82843 0
      vertex -10 -10 0
      vertex -3.32588 -2.22228 0
    endloop
  endfacet
  facet normal -0 0 -1
    outer loop
      vertex -2.22228 -3.32588 0
      vertex -10 -10 0
      vertex -2.82843 -2.82843 0
    endloop
  endfacet
  facet normal -0 0 -1
    outer loop
      vertex -1.53073 -3.69552 0
      vertex -10 -10 0
      vertex -2.22228 -3.32588 0
    endloop
  endfacet
  facet normal 0 0 -1
    outer loop
      vertex 3.92314 0.780361 0
      vertex 10 10 0
      vertex 4 0 0
    endloop
  endfacet
  facet normal 0 0 -1
    outer loop
      vertex 3.69552 1.53073 0
      vertex 10 10 0
      vertex 3.92314 0.780361 0
    endloop
  endfacet
  facet normal 0 0 -1
    outer loop
      vertex 3.32588 2.22228 0
      vertex 10 10 0
      vertex 3.69552 1.53073 0
    endloop
  endfacet
  facet normal 0 0 -1
    outer loop
      vertex 2.82843 2.82843 0
      vertex 10 10 0
      vertex 3.32588 2.22228 0
    endloop
  endfacet
  facet normal 0 0 -1
    outer loop
      vertex 2.22228 3.32588 0
      vertex 10 10 0
      vertex 2.82843 2.82843 0
    endloop
  endfacet
  facet normal 0 0 -1
    outer loop
      vertex 1.53073 3.69552 0
      vertex 10 10 0
      vertex 2.22228 3.32588 0
    endloop
  endfacet
  facet normal 0 0 -1
    outer loop
      vertex 0.780361 3.92314 0
      vertex 10 10 0
      vertex 1.53073 3.69552 0
    endloop
  endfacet
  facet normal 0 0 -1
    outer loop
      vertex 0 4 0
      vertex 10 10 0
      vertex 0.780361 3.92314 0
    endloop
  endfacet
  facet normal 0 0 -1
    outer loop
      vertex -10 10 0
      vertex 0 4 0
      vertex -0.780361 3.92314 0
    endloop
  endfacet
  facet normal 0 0 -1
    outer loop
      vertex -10 10 0
      vertex -0.780361 3.92314 0
      vertex -1.53073 3.69552 0
    endloop
  endfacet
  facet normal 0 0 -1
    outer loop
      vertex -10 10 0
      vertex -1.53073 3.69552 0
      vertex -2.22228 3.32588 0
    endloop
  endfacet
  facet normal 0 0 -1
    outer loop
      vertex -10 10 0
      vertex -4 0 0
      vertex -10 -10 0
    endloop
  endfacet
  facet normal 0 0 -1
    outer loop
      vertex -4 0 0
      vertex -10 10 0
      vertex -3.92314 0.780361 0
    endloop
  endfacet
  facet normal 0 0 -1
    outer loop
      vertex -3.92314 0.780361 0
      vertex -10 10 0
      vertex -3.69552 1.53073 0
    endloop
  endfacet
  facet normal 0 0 -1
    outer loop
      vertex 0 4 0
      vertex -10 10 0
      vertex 10 10 0
    endloop
  endfacet
  facet normal 0 0 -1
    outer loop
      vertex -2.82843 2.82843 0
      vertex -10 10 0
      vertex -2.22228 3.32588 0
    endloop
  endfacet
  facet normal 0 0 -1
    outer loop
      vertex -3.32588 2.22228 0
      vertex -10 10 0
      vertex -2.82843 2.82843 0
    endloop
  endfacet
  facet normal 0 0 -1
    outer loop
      vertex -3.69552 1.53073 0
      vertex -10 10 0
      vertex -3.32588 2.22228 0
    endloop
  endfacet
  facet normal 1 -0 0
    outer loop
      vertex 10 -10 1
      vertex 10 10 0
      vertex 10 10 1
    endloop
  endfacet
  facet normal 1 0 0
    outer loop
      vertex 10 10 0
      vertex 10 -10 1
      vertex 10 -10 0
    endloop
  endfacet
  facet normal 0.995185 0.0980186 0
    outer loop
      vertex 4 0 0
      vertex 3.92314 0.780361 -5
      vertex 3.92314 0.780361 0
    endloop
  endfacet
  facet normal 0.995185 0.0980186 0
    outer loop
      vertex 3.92314 0.780361 -5
      vertex 4 0 0
      vertex 4 0 -5
    endloop
  endfacet
  facet normal -0.995185 0.0980186 0
    outer loop
      vertex -4 0 -5
      vertex -3.92314 0.780361 0
      vertex -3.92314 0.780361 -5
    endloop
  endfacet
  facet normal -0.995185 0.0980186 0
    outer loop
      vertex -3.92314 0.780361 0
      vertex -4 0 -5
      vertex -4 0 0
    endloop
  endfacet
  facet normal 0.0980186 0.995185 -0
    outer loop
      vertex 0.780361 3.92314 -5
      vertex 0 4 0
      vertex 0.780361 3.92314 0
    endloop
  endfacet
  facet normal 0.0980186 0.995185 0
    outer loop
      vertex 0 4 0
      vertex 0.780361 3.92314 -5
      vertex 0 4 -5
    endloop
  endfacet
  facet normal 0.63439 0.773013 -0
    outer loop
      vertex 2.82843 2.82843 -5
      vertex 2.22228 3.32588 0
      vertex 2.82843 2.82843 0
    endloop
  endfacet
  facet normal 0.63439 0.773013 0
    outer loop
      vertex 2.22228 3.32588 0
      vertex 2.82843 2.82843 -5
      vertex 2.22228 3.32588 -5
    endloop
  endfacet
  facet normal -0.63439 0.773013 0
    outer loop
      vertex -2.22228 3.32588 -5
      vertex -2.82843 2.82843 0
      vertex -2.22228 3.32588 0
    endloop
  endfacet
  facet normal -0.63439 0.773013 0
    outer loop
      vertex -2.82843 2.82843 0
      vertex -2.22228 3.32588 -5
      vertex -2.82843 2.82843 -5
    endloop
  endfacet
  facet normal -0.290282 0.956941 0
    outer loop
      vertex -0.780361 3.92314 -5
      vertex -1.53073 3.69552 0
      vertex -0.780361 3.92314 0
    endloop
  endfacet
  facet normal -0.290282 0.956941 0
    outer loop
      vertex -1.53073 3.69552 0
      vertex -0.780361 3.92314 -5
      vertex -1.53073 3.69552 -5
    endloop
  endfacet
  facet normal 0 0 -1
    outer loop
      vertex 3.92314 -0.780361 -5
      vertex 3.92314 0.780361 -5
      vertex 4 0 -5
    endloop
  endfacet
  facet normal 0 0 -1
    outer loop
      vertex 3.69552 -1.53073 -5
      vertex 3.92314 0.780361 -5
      vertex 3.92314 -0.780361 -5
    endloop
  endfacet
  facet normal 0 0 -1
    outer loop
      vertex 3.69552 -1.53073 -5
      vertex 3.69552 1.53073 -5
      vertex 3.92314 0.780361 -5
    endloop
  endfacet
  facet normal 0 0 -1
    outer loop
      vertex 3.32588 -2.22228 -5
      vertex 3.69552 1.53073 -5
      vertex 3.69552 -1.53073 -5
    endloop
  endfacet
  facet normal 0 0 -1
    outer loop
      vertex 3.32588 -2.22228 -5
      vertex 3.32588 2.22228 -5
      vertex 3.69552 1.53073 -5
    endloop
  endfacet
  facet normal 0 0 -1
    outer loop
      vertex 2.82843 -2.82843 -5
      vertex 3.32588 2.22228 -5
      vertex 3.32588 -2.22228 -5
    endloop
  endfacet
  facet normal 0 0 -1
    outer loop
      vertex 2.82843 -2.82843 -5
      vertex 2.82843 2.82843 -5
      vertex 3.32588 2.22228 -5
    endloop
  endfacet
  facet normal 0 0 -1
    outer loop
      vertex 2.22228 -3.32588 -5
      vertex 2.82843 2.82843 -5
      vertex 2.82843 -2.82843 -5
    endloop
  endfacet
  facet normal 0 0 -1
    outer loop
      vertex 2.22228 -3.32588 -5
      vertex 2.22228 3.32588 -5
      vertex 2.82843 2.82843 -5
    endloop
  endfacet
  facet normal 0 0 -1
    outer loop
      vertex 1.53073 -3.69552 -5
      vertex 2.22228 3.32588 -5
      vertex 2.22228 -3.32588 -5
    endloop
  endfacet
  facet normal 0 0 -1
    outer loop
      vertex 1.53073 -3.69552 -5
      vertex 1.53073 3.69552 -5
      vertex 2.22228 3.32588 -5
    endloop
  endfacet
  facet normal 0 0 -1
    outer loop
      vertex 0.780361 -3.92314 -5
      vertex 1.53073 3.69552 -5
      vertex 1.53073 -3.69552 -5
    endloop
  endfacet
  facet normal 0 0 -1
    outer loop
      vertex 0.780361 -3.92314 -5
      vertex 0.780361 3.92314 -5
      vertex 1.53073 3.69552 -5
    endloop
  endfacet
  facet normal 0 0 -1
    outer loop
      vertex 0 -4 -5
      vertex 0.780361 3.92314 -5
      vertex 0.780361 -3.92314 -5
    endloop
  endfacet
  facet normal 0 0 -1
    outer loop
      vertex 0 -4 -5
      vertex 0 4 -5
      vertex 0.780361 3.92314 -5
    endloop
  endfacet
  facet normal 0 0 -1
    outer loop
      vertex -0.780361 -3.92314 -5
      vertex 0 4 -5
      vertex 0 -4 -5
    endloop
  endfacet
  facet normal 0 0 -1
    outer loop
      vertex -0.780361 -3.92314 -5
      vertex -0.780361 3.92314 -5
      vertex 0 4 -5
    endloop
  endfacet
  facet normal 0 0 -1
    outer loop
      vertex -1.53073 -3.69552 -5
      vertex -0.780361 3.92314 -5
      vertex -0.780361 -3.92314 -5
    endloop
  endfacet
  facet normal 0 0 -1
    outer loop
      vertex -1.53073 -3.69552 -5
      vertex -1.53073 3.69552 -5
      vertex -0.780361 3.92314 -5
    endloop
  endfacet
  facet normal 0 0 -1
    outer loop
      vertex -2.22228 -3.32588 -5
      vertex -1.53073 3.69552 -5
      vertex -1.53073 -3.69552 -5
    endloop
  endfacet
  facet normal 0 0 -1
    outer loop
      vertex -2.22228 -3.32588 -5
      vertex -2.22228 3.32588 -5
      vertex -1.53073 3.69552 -5
    endloop
  endfacet
  facet normal 0 0 -1
    outer loop
      vertex -2.82843 -2.82843 -5
      vertex -2.22228 3.32588 -5
      vertex -2.22228 -3.32588 -5
    endloop
  endfacet
  facet normal 0 0 -1
    outer loop
      vertex -2.82843 -2.82843 -5
      vertex -2.82843 2.82843 -5
      vertex -2.22228 3.32588 -5
    endloop
  endfacet
  facet normal 0 0 -1
    outer loop
      vertex -3.32588 -2.22228 -5
      vertex -2.82843 2.82843 -5
      vertex -2.82843 -2.82843 -5
    endloop
  endfacet
  facet normal 0 0 -1
    outer loop
      vertex -3.32588 -2.22228 -5
      vertex -3.32588 2.22228 -5
      vertex -2.82843 2.82843 -5
    endloop
  endfacet
  facet normal 0 0 -1
    outer loop
      vertex -3.69552 -1.53073 -5
      vertex -3.32588 2.22228 -5
      vertex -3.32588 -2.22228 -5
    endloop
  endfacet
  facet normal 0 0 -1
    outer loop
      vertex -3.69552 -1.53073 -5
      vertex -3.69552 1.53073 -5
      vertex -3.32588 2.22228 -5
    endloop
  endfacet
  facet normal 0 0 -1
    outer loop
      vertex -3.92314 -0.780361 -5
      vertex -3.69552 1.53073 -5
      vertex -3.69552 -1.53073 -5
    endloop
  endfacet
  facet normal 0 0 -1
    outer loop
      vertex -3.92314 -0.780361 -5
      vertex -3.92314 0.780361 -5
      vertex -3.69552 1.53073 -5
    endloop
  endfacet
  facet normal 0 -0 -1
    outer loop
      vertex -3.92314 0.780361 -5
      vertex -3.92314 -0.780361 -5
      vertex -4 0 -5
    endloop
  endfacet
  facet normal 0.881922 0.471396 0
    outer loop
      vertex 3.69552 1.53073 0
      vertex 3.32588 2.22228 -5
      vertex 3.32588 2.22228 0
    endloop
  endfacet
  facet normal 0.881922 0.471396 0
    outer loop
      vertex 3.32588 2.22228 -5
      vertex 3.69552 1.53073 0
      vertex 3.69552 1.53073 -5
    endloop
  endfacet
  facet normal 0.956941 0.290282 0
    outer loop
      vertex 3.92314 0.780361 0
      vertex 3.69552 1.53073 -5
      vertex 3.69552 1.53073 0
    endloop
  endfacet
  facet normal 0.956941 0.290282 0
    outer loop
      vertex 3.69552 1.53073 -5
      vertex 3.92314 0.780361 0
      vertex 3.92314 0.780361 -5
    endloop
  endfacet
  facet normal 0.773013 0.63439 0
    outer loop
      vertex 3.32588 2.22228 0
      vertex 2.82843 2.82843 -5
      vertex 2.82843 2.82843 0
    endloop
  endfacet
  facet normal 0.773013 0.63439 0
    outer loop
      vertex 2.82843 2.82843 -5
      vertex 3.32588 2.22228 0
      vertex 3.32588 2.22228 -5
    endloop
  endfacet
  facet normal 0.290282 0.956941 -0
    outer loop
      vertex 1.53073 3.69552 -5
      vertex 0.780361 3.92314 0
      vertex 1.53073 3.69552 0
    endloop
  endfacet
  facet normal 0.290282 0.956941 0
    outer loop
      vertex 0.780361 3.92314 0
      vertex 1.53073 3.69552 -5
      vertex 0.780361 3.92314 -5
    endloop
  endfacet
  facet normal 0.471396 0.881922 -0
    outer loop
      vertex 2.22228 3.32588 -5
      vertex 1.53073 3.69552 0
      vertex 2.22228 3.32588 0
    endloop
  endfacet
  facet normal 0.471396 0.881922 0
    outer loop
      vertex 1.53073 3.69552 0
      vertex 2.22228 3.32588 -5
      vertex 1.53073 3.69552 -5
    endloop
  endfacet
  facet normal -0.881922 0.471396 0
    outer loop
      vertex -3.69552 1.53073 -5
      vertex -3.32588 2.22228 0
      vertex -3.32588 2.22228 -5
    endloop
  endfacet
  facet normal -0.881922 0.471396 0
    outer loop
      vertex -3.32588 2.22228 0
      vertex -3.69552 1.53073 -5
      vertex -3.69552 1.53073 0
    endloop
  endfacet
  facet normal -0.773013 0.63439 0
    outer loop
      vertex -3.32588 2.22228 -5
      vertex -2.82843 2.82843 0
      vertex -2.82843 2.82843 -5
    endloop
  endfacet
  facet normal -0.773013 0.63439 0
    outer loop
      vertex -2.82843 2.82843 0
      vertex -3.32588 2.22228 -5
      vertex -3.32588 2.22228 0
    endloop
  endfacet
  facet normal -0.956941 0.290282 0
    outer loop
      vertex -3.92314 0.780361 -5
      vertex -3.69552 1.53073 0
      vertex -3.69552 1.53073 -5
    endloop
  endfacet
  facet normal -0.956941 0.290282 0
    outer loop
      vertex -3.69552 1.53073 0
      vertex -3.92314 0.780361 -5
      vertex -3.92314 0.780361 0
    endloop
  endfacet
  facet normal -0.471396 0.881922 0
    outer loop
      vertex -1.53073 3.69552 -5
      vertex -2.22228 3.32588 0
      vertex -1.53073 3.69552 0
    endloop
  endfacet
  facet normal -0.471396 0.881922 0
    outer loop
      vertex -2.22228 3.32588 0
      vertex -1.53073 3.69552 -5
      vertex -2.22228 3.32588 -5
    endloop
  endfacet
  facet normal -0.0980186 0.995185 0
    outer loop
      vertex 0 4 -5
      vertex -0.780361 3.92314 0
      vertex 0 4 0
    endloop
  endfacet
  facet normal -0.0980186 0.995185 0
    outer loop
      vertex -0.780361 3.92314 0
      vertex 0 4 -5
      vertex -0.780361 3.92314 -5
    endloop
  endfacet
  facet normal 0.995185 -0.0980186 0
    outer loop
      vertex 3.92314 -0.780361 0
      vertex 4 0 -5
      vertex 4 0 0
    endloop
  endfacet
  facet normal 0.995185 -0.0980186 0
    outer loop
      vertex 4 0 -5
      vertex 3.92314 -0.780361 0
      vertex 3.92314 -0.780361 -5
    endloop
  endfacet
  facet normal 0.290282 -0.956941 0
    outer loop
      vertex 0.780361 -3.92314 -5
      vertex 1.53073 -3.69552 0
      vertex 0.780361 -3.92314 0
    endloop
  endfacet
  facet normal 0.290282 -0.956941 0
    outer loop
      vertex 1.53073 -3.69552 0
      vertex 0.780361 -3.92314 -5
      vertex 1.53073 -3.69552 -5
    endloop
  endfacet
  facet normal 0.0980186 -0.995185 0
    outer loop
      vertex 0 -4 -5
      vertex 0.780361 -3.92314 0
      vertex 0 -4 0
    endloop
  endfacet
  facet normal 0.0980186 -0.995185 0
    outer loop
      vertex 0.780361 -3.92314 0
      vertex 0 -4 -5
      vertex 0.780361 -3.92314 -5
    endloop
  endfacet
  facet normal 0.63439 -0.773013 0
    outer loop
      vertex 2.22228 -3.32588 -5
      vertex 2.82843 -2.82843 0
      vertex 2.22228 -3.32588 0
    endloop
  endfacet
  facet normal 0.63439 -0.773013 0
    outer loop
      vertex 2.82843 -2.82843 0
      vertex 2.22228 -3.32588 -5
      vertex 2.82843 -2.82843 -5
    endloop
  endfacet
  facet normal -0.63439 -0.773013 0
    outer loop
      vertex -2.82843 -2.82843 -5
      vertex -2.22228 -3.32588 0
      vertex -2.82843 -2.82843 0
    endloop
  endfacet
  facet normal -0.63439 -0.773013 -0
    outer loop
      vertex -2.22228 -3.32588 0
      vertex -2.82843 -2.82843 -5
      vertex -2.22228 -3.32588 -5
    endloop
  endfacet
  facet normal -0.290282 -0.956941 0
    outer loop
      vertex -1.53073 -3.69552 -5
      vertex -0.780361 -3.92314 0
      vertex -1.53073 -3.69552 0
    endloop
  endfacet
  facet normal -0.290282 -0.956941 -0
    outer loop
      vertex -0.780361 -3.92314 0
      vertex -1.53073 -3.69552 -5
      vertex -0.780361 -3.92314 -5
    endloop
  endfacet
  facet normal -0.881922 -0.471396 0
    outer loop
      vertex -3.32588 -2.22228 -5
      vertex -3.69552 -1.53073 0
      vertex -3.69552 -1.53073 -5
    endloop
  endfacet
  facet normal -0.881922 -0.471396 0
    outer loop
      vertex -3.69552 -1.53073 0
      vertex -3.32588 -2.22228 -5
      vertex -3.32588 -2.22228 0
    endloop
  endfacet
  facet normal -0.773013 -0.63439 0
    outer loop
      vertex -2.82843 -2.82843 -5
      vertex -3.32588 -2.22228 0
      vertex -3.32588 -2.22228 -5
    endloop
  endfacet
  facet normal -0.773013 -0.63439 0
    outer loop
      vertex -3.32588 -2.22228 0
      vertex -2.82843 -2.82843 -5
      vertex -2.82843 -2.82843 0
    endloop
  endfacet
  facet normal -0.995185 -0.0980186 0
    outer loop
      vertex -3.92314 -0.780361 -5
      vertex -4 0 0
      vertex -4 0 -5
    endloop
  endfacet
  facet normal -0.995185 -0.0980186 0
    outer loop
      vertex -4 0 0
      vertex -3.92314 -0.780361 -5
      vertex -3.92314 -0.780361 0
    endloop
  endfacet
  facet normal 0.773013 -0.63439 0
    outer loop
      vertex 2.82843 -2.82843 0
      vertex 3.32588 -2.22228 -5
      vertex 3.32588 -2.22228 0
    endloop
  endfacet
  facet normal 0.773013 -0.63439 0
    outer loop
      vertex 3.32588 -2.22228 -5
      vertex 2.82843 -2.82843 0
      vertex 2.82843 -2.82843 -5
    endloop
  endfacet
  facet normal 0.956941 -0.290282 0
    outer loop
      vertex 3.69552 -1.53073 0
      vertex 3.92314 -0.780361 -5
      vertex 3.92314 -0.780361 0
    endloop
  endfacet
  facet normal 0.956941 -0.290282 0
    outer loop
      vertex 3.92314 -0.780361 -5
      vertex 3.69552 -1.53073 0
      vertex 3.69552 -1.53073 -5
    endloop
  endfacet
  facet normal 0.881922 -0.471396 0
    outer loop
      vertex 3.32588 -2.22228 0
      vertex 3.69552 -1.53073 -5
      vertex 3.69552 -1.53073 0
    endloop
  endfacet
  facet normal 0.881922 -0.471396 0
    outer loop
      vertex 3.69552 -1.53073 -5
      vertex 3.32588 -2.22228 0
      vertex 3.32588 -2.22228 -5
    endloop
  endfacet
  facet normal -0.471396 -0.881922 0
    outer loop
      vertex -2.22228 -3.32588 -5
      vertex -1.53073 -3.69552 0
      vertex -2.22228 -3.32588 0
    endloop
  endfacet
  facet normal -0.471396 -0.881922 -0
    outer loop
      vertex -1.53073 -3.69552 0
      vertex -2.22228 -3.32588 -5
      vertex -1.53073 -3.69552 -5
    endloop
  endfacet
  facet normal -0.0980186 -0.995185 0
    outer loop
      vertex -0.780361 -3.92314 -5
      vertex 0 -4 0
      vertex -0.780361 -3.92314 0
    endloop
  endfacet
  facet normal -0.0980186 -0.995185 -0
    outer loop
      vertex 0 -4 0
      vertex -0.780361 -3.92314 -5
      vertex 0 -4 -5
    endloop
  endfacet
  facet normal -0.956941 -0.290282 0
    outer loop
      vertex -3.69552 -1.53073 -5
      vertex -3.92314 -0.780361 0
      vertex -3.92314 -0.780361 -5
    endloop
  endfacet
  facet normal -0.956941 -0.290282 0
    outer loop
      vertex -3.92314 -0.780361 0
      vertex -3.69552 -1.53073 -5
      vertex -3.69552 -1.53073 0
    endloop
  endfacet
  facet normal 0.471396 -0.881922 0
    outer loop
      vertex 1.53073 -3.69552 -5
      vertex 2.22228 -3.32588 0
      vertex 1.53073 -3.69552 0
    endloop
  endfacet
  facet normal 0.471396 -0.881922 0
    outer loop
      vertex 2.22228 -3.32588 0
      vertex 1.53073 -3.69552 -5
      vertex 2.22228 -3.32588 -5
    endloop
  endfacet
endsolid OpenSCAD_Model
