solid OpenSCAD_Model
  facet normal 0.671555 0.740955 -0
    outer loop
      vertex 3.35876 3.35876 0
      vertex 3.01337 3.6718 5.8
      vertex 3.35876 3.35876 5.8
    endloop
  endfacet
  facet normal 0.671555 0.740955 0
    outer loop
      vertex 3.01337 3.6718 5.8
      vertex 3.35876 3.35876 0
      vertex 3.01337 3.6718 0
    endloop
  endfacet
  facet normal -0.336888 -0.941545 0
    outer loop
      vertex -1.81775 -4.38843 0
      vertex -1.37885 -4.54547 5.8
      vertex -1.81775 -4.38843 5.8
    endloop
  endfacet
  facet normal -0.336888 -0.941545 -0
    outer loop
      vertex -1.37885 -4.54547 5.8
      vertex -1.81775 -4.38843 0
      vertex -1.37885 -4.54547 0
    endloop
  endfacet
  facet normal 0.595697 0.803209 -0
    outer loop
      vertex 3.01337 3.6718 0
      vertex 2.63896 3.94948 5.8
      vertex 3.01337 3.6718 5.8
    endloop
  endfacet
  facet normal 0.595697 0.803209 0
    outer loop
      vertex 2.63896 3.94948 5.8
      vertex 3.01337 3.6718 0
      vertex 2.63896 3.94948 0
    endloop
  endfacet
  facet normal -0.336888 0.941545 0
    outer loop
      vertex -1.37885 4.54547 0
      vertex -1.81775 4.38843 5.8
      vertex -1.37885 4.54547 5.8
    endloop
  endfacet
  facet normal -0.336888 0.941545 0
    outer loop
      vertex -1.81775 4.38843 5.8
      vertex -1.37885 4.54547 0
      vertex -1.81775 4.38843 0
    endloop
  endfacet
  facet normal -0.903988 0.427559 0
    outer loop
      vertex -4.38843 1.81775 0
      vertex -4.18913 2.23913 5.8
      vertex -4.18913 2.23913 0
    endloop
  endfacet
  facet normal -0.903988 0.427559 0
    outer loop
      vertex -4.18913 2.23913 5.8
      vertex -4.38843 1.81775 0
      vertex -4.38843 1.81775 5.8
    endloop
  endfacet
  facet normal -0.903988 -0.427559 0
    outer loop
      vertex -4.18913 -2.23913 0
      vertex -4.38843 -1.81775 5.8
      vertex -4.38843 -1.81775 0
    endloop
  endfacet
  facet normal -0.903988 -0.427559 0
    outer loop
      vertex -4.38843 -1.81775 5.8
      vertex -4.18913 -2.23913 0
      vertex -4.18913 -2.23913 5.8
    endloop
  endfacet
  facet normal 0.970033 0.242974 0
    outer loop
      vertex 4.65873 0.926679 5.8
      vertex 4.54547 1.37885 0
      vertex 4.54547 1.37885 5.8
    endloop
  endfacet
  facet normal 0.970033 0.242974 0
    outer loop
      vertex 4.54547 1.37885 0
      vertex 4.65873 0.926679 5.8
      vertex 4.65873 0.926679 0
    endloop
  endfacet
  facet normal 0.941545 0.336888 0
    outer loop
      vertex 4.54547 1.37885 5.8
      vertex 4.38843 1.81775 0
      vertex 4.38843 1.81775 5.8
    endloop
  endfacet
  facet normal 0.941545 0.336888 0
    outer loop
      vertex 4.38843 1.81775 0
      vertex 4.54547 1.37885 5.8
      vertex 4.54547 1.37885 0
    endloop
  endfacet
  facet normal 0.803209 0.595697 0
    outer loop
      vertex 3.94948 2.63896 5.8
      vertex 3.6718 3.01337 0
      vertex 3.6718 3.01337 5.8
    endloop
  endfacet
  facet normal 0.803209 0.595697 0
    outer loop
      vertex 3.6718 3.01337 0
      vertex 3.94948 2.63896 5.8
      vertex 3.94948 2.63896 0
    endloop
  endfacet
  facet normal 0.514105 0.857728 -0
    outer loop
      vertex 2.63896 3.94948 0
      vertex 2.23913 4.18913 5.8
      vertex 2.63896 3.94948 5.8
    endloop
  endfacet
  facet normal 0.514105 0.857728 0
    outer loop
      vertex 2.23913 4.18913 5.8
      vertex 2.63896 3.94948 0
      vertex 2.23913 4.18913 0
    endloop
  endfacet
  facet normal -0.595697 0.803209 0
    outer loop
      vertex -2.63896 3.94948 0
      vertex -3.01337 3.6718 5.8
      vertex -2.63896 3.94948 5.8
    endloop
  endfacet
  facet normal -0.595697 0.803209 0
    outer loop
      vertex -3.01337 3.6718 5.8
      vertex -2.63896 3.94948 0
      vertex -3.01337 3.6718 0
    endloop
  endfacet
  facet normal 0.903988 -0.427559 0
    outer loop
      vertex 4.18913 -2.23913 5.8
      vertex 4.38843 -1.81775 0
      vertex 4.38843 -1.81775 5.8
    endloop
  endfacet
  facet normal 0.903988 -0.427559 0
    outer loop
      vertex 4.38843 -1.81775 0
      vertex 4.18913 -2.23913 5.8
      vertex 4.18913 -2.23913 0
    endloop
  endfacet
  facet normal 0.242974 -0.970033 0
    outer loop
      vertex 0.926679 -4.65873 0
      vertex 1.37885 -4.54547 5.8
      vertex 0.926679 -4.65873 5.8
    endloop
  endfacet
  facet normal 0.242974 -0.970033 0
    outer loop
      vertex 1.37885 -4.54547 5.8
      vertex 0.926679 -4.65873 0
      vertex 1.37885 -4.54547 0
    endloop
  endfacet
  facet normal 0.671555 -0.740955 0
    outer loop
      vertex 3.01337 -3.6718 0
      vertex 3.35876 -3.35876 5.8
      vertex 3.01337 -3.6718 5.8
    endloop
  endfacet
  facet normal 0.671555 -0.740955 0
    outer loop
      vertex 3.35876 -3.35876 5.8
      vertex 3.01337 -3.6718 0
      vertex 3.35876 -3.35876 0
    endloop
  endfacet
  facet normal 0.989176 0.146736 0
    outer loop
      vertex 4.72713 0.465581 5.8
      vertex 4.65873 0.926679 0
      vertex 4.65873 0.926679 5.8
    endloop
  endfacet
  facet normal 0.989176 0.146736 0
    outer loop
      vertex 4.65873 0.926679 0
      vertex 4.72713 0.465581 5.8
      vertex 4.72713 0.465581 0
    endloop
  endfacet
  facet normal 0.903988 0.427559 0
    outer loop
      vertex 4.38843 1.81775 5.8
      vertex 4.18913 2.23913 0
      vertex 4.18913 2.23913 5.8
    endloop
  endfacet
  facet normal 0.903988 0.427559 0
    outer loop
      vertex 4.18913 2.23913 0
      vertex 4.38843 1.81775 5.8
      vertex 4.38843 1.81775 0
    endloop
  endfacet
  facet normal 0.857728 0.514105 0
    outer loop
      vertex 4.18913 2.23913 5.8
      vertex 3.94948 2.63896 0
      vertex 3.94948 2.63896 5.8
    endloop
  endfacet
  facet normal 0.857728 0.514105 0
    outer loop
      vertex 3.94948 2.63896 0
      vertex 4.18913 2.23913 5.8
      vertex 4.18913 2.23913 0
    endloop
  endfacet
  facet normal 0.740955 0.671555 0
    outer loop
      vertex 3.6718 3.01337 5.8
      vertex 3.35876 3.35876 0
      vertex 3.35876 3.35876 5.8
    endloop
  endfacet
  facet normal 0.740955 0.671555 0
    outer loop
      vertex 3.35876 3.35876 0
      vertex 3.6718 3.01337 5.8
      vertex 3.6718 3.01337 0
    endloop
  endfacet
  facet normal 0.0490623 0.998796 -0
    outer loop
      vertex 0.465581 4.72713 0
      vertex 0 4.75 5.8
      vertex 0.465581 4.72713 5.8
    endloop
  endfacet
  facet normal 0.0490623 0.998796 0
    outer loop
      vertex 0 4.75 5.8
      vertex 0.465581 4.72713 0
      vertex 0 4.75 0
    endloop
  endfacet
  facet normal 0.427559 0.903988 -0
    outer loop
      vertex 2.23913 4.18913 0
      vertex 1.81775 4.38843 5.8
      vertex 2.23913 4.18913 5.8
    endloop
  endfacet
  facet normal 0.427559 0.903988 0
    outer loop
      vertex 1.81775 4.38843 5.8
      vertex 2.23913 4.18913 0
      vertex 1.81775 4.38843 0
    endloop
  endfacet
  facet normal 0.242974 0.970033 -0
    outer loop
      vertex 1.37885 4.54547 0
      vertex 0.926679 4.65873 5.8
      vertex 1.37885 4.54547 5.8
    endloop
  endfacet
  facet normal 0.242974 0.970033 0
    outer loop
      vertex 0.926679 4.65873 5.8
      vertex 1.37885 4.54547 0
      vertex 0.926679 4.65873 0
    endloop
  endfacet
  facet normal 0.146736 0.989176 -0
    outer loop
      vertex 0.926679 4.65873 0
      vertex 0.465581 4.72713 5.8
      vertex 0.926679 4.65873 5.8
    endloop
  endfacet
  facet normal 0.146736 0.989176 0
    outer loop
      vertex 0.465581 4.72713 5.8
      vertex 0.926679 4.65873 0
      vertex 0.465581 4.72713 0
    endloop
  endfacet
  facet normal -0.998796 0.0490623 0
    outer loop
      vertex -4.75 0 0
      vertex -4.72713 0.465581 5.8
      vertex -4.72713 0.465581 0
    endloop
  endfacet
  facet normal -0.998796 0.0490623 0
    outer loop
      vertex -4.72713 0.465581 5.8
      vertex -4.75 0 0
      vertex -4.75 0 5.8
    endloop
  endfacet
  facet normal -0.970033 0.242974 0
    outer loop
      vertex -4.65873 0.926679 0
      vertex -4.54547 1.37885 5.8
      vertex -4.54547 1.37885 0
    endloop
  endfacet
  facet normal -0.970033 0.242974 0
    outer loop
      vertex -4.54547 1.37885 5.8
      vertex -4.65873 0.926679 0
      vertex -4.65873 0.926679 5.8
    endloop
  endfacet
  facet normal -0.989176 0.146736 0
    outer loop
      vertex -4.72713 0.465581 0
      vertex -4.65873 0.926679 5.8
      vertex -4.65873 0.926679 0
    endloop
  endfacet
  facet normal -0.989176 0.146736 0
    outer loop
      vertex -4.65873 0.926679 5.8
      vertex -4.72713 0.465581 0
      vertex -4.72713 0.465581 5.8
    endloop
  endfacet
  facet normal -0.740955 0.671555 0
    outer loop
      vertex -3.6718 3.01337 0
      vertex -3.35876 3.35876 5.8
      vertex -3.35876 3.35876 0
    endloop
  endfacet
  facet normal -0.740955 0.671555 0
    outer loop
      vertex -3.35876 3.35876 5.8
      vertex -3.6718 3.01337 0
      vertex -3.6718 3.01337 5.8
    endloop
  endfacet
  facet normal -0.803209 0.595697 0
    outer loop
      vertex -3.94948 2.63896 0
      vertex -3.6718 3.01337 5.8
      vertex -3.6718 3.01337 0
    endloop
  endfacet
  facet normal -0.803209 0.595697 0
    outer loop
      vertex -3.6718 3.01337 5.8
      vertex -3.94948 2.63896 0
      vertex -3.94948 2.63896 5.8
    endloop
  endfacet
  facet normal -0.0490623 0.998796 0
    outer loop
      vertex 0 4.75 0
      vertex -0.465581 4.72713 5.8
      vertex 0 4.75 5.8
    endloop
  endfacet
  facet normal -0.0490623 0.998796 0
    outer loop
      vertex -0.465581 4.72713 5.8
      vertex 0 4.75 0
      vertex -0.465581 4.72713 0
    endloop
  endfacet
  facet normal -0.242974 0.970033 0
    outer loop
      vertex -0.926679 4.65873 0
      vertex -1.37885 4.54547 5.8
      vertex -0.926679 4.65873 5.8
    endloop
  endfacet
  facet normal -0.242974 0.970033 0
    outer loop
      vertex -1.37885 4.54547 5.8
      vertex -0.926679 4.65873 0
      vertex -1.37885 4.54547 0
    endloop
  endfacet
  facet normal -0.146736 0.989176 0
    outer loop
      vertex -0.465581 4.72713 0
      vertex -0.926679 4.65873 5.8
      vertex -0.465581 4.72713 5.8
    endloop
  endfacet
  facet normal -0.146736 0.989176 0
    outer loop
      vertex -0.926679 4.65873 5.8
      vertex -0.465581 4.72713 0
      vertex -0.926679 4.65873 0
    endloop
  endfacet
  facet normal -0.427559 0.903988 0
    outer loop
      vertex -1.81775 4.38843 0
      vertex -2.23913 4.18913 5.8
      vertex -1.81775 4.38843 5.8
    endloop
  endfacet
  facet normal -0.427559 0.903988 0
    outer loop
      vertex -2.23913 4.18913 5.8
      vertex -1.81775 4.38843 0
      vertex -2.23913 4.18913 0
    endloop
  endfacet
  facet normal -0.514105 0.857728 0
    outer loop
      vertex -2.23913 4.18913 0
      vertex -2.63896 3.94948 5.8
      vertex -2.23913 4.18913 5.8
    endloop
  endfacet
  facet normal -0.514105 0.857728 0
    outer loop
      vertex -2.63896 3.94948 5.8
      vertex -2.23913 4.18913 0
      vertex -2.63896 3.94948 0
    endloop
  endfacet
  facet normal -0.671555 0.740955 0
    outer loop
      vertex -3.01337 3.6718 0
      vertex -3.35876 3.35876 5.8
      vertex -3.01337 3.6718 5.8
    endloop
  endfacet
  facet normal -0.671555 0.740955 0
    outer loop
      vertex -3.35876 3.35876 5.8
      vertex -3.01337 3.6718 0
      vertex -3.35876 3.35876 0
    endloop
  endfacet
  facet normal 0.998796 0.0490623 0
    outer loop
      vertex 4.75 0 5.8
      vertex 4.72713 0.465581 0
      vertex 4.72713 0.465581 5.8
    endloop
  endfacet
  facet normal 0.998796 0.0490623 0
    outer loop
      vertex 4.72713 0.465581 0
      vertex 4.75 0 5.8
      vertex 4.75 0 0
    endloop
  endfacet
  facet normal 0.0490623 -0.998796 0
    outer loop
      vertex 0 -4.75 0
      vertex 0.465581 -4.72713 5.8
      vertex 0 -4.75 5.8
    endloop
  endfacet
  facet normal 0.0490623 -0.998796 0
    outer loop
      vertex 0.465581 -4.72713 5.8
      vertex 0 -4.75 0
      vertex 0.465581 -4.72713 0
    endloop
  endfacet
  facet normal 0.941545 -0.336888 0
    outer loop
      vertex 4.38843 -1.81775 5.8
      vertex 4.54547 -1.37885 0
      vertex 4.54547 -1.37885 5.8
    endloop
  endfacet
  facet normal 0.941545 -0.336888 0
    outer loop
      vertex 4.54547 -1.37885 0
      vertex 4.38843 -1.81775 5.8
      vertex 4.38843 -1.81775 0
    endloop
  endfacet
  facet normal 0.146736 -0.989176 0
    outer loop
      vertex 0.465581 -4.72713 0
      vertex 0.926679 -4.65873 5.8
      vertex 0.465581 -4.72713 5.8
    endloop
  endfacet
  facet normal 0.146736 -0.989176 0
    outer loop
      vertex 0.926679 -4.65873 5.8
      vertex 0.465581 -4.72713 0
      vertex 0.926679 -4.65873 0
    endloop
  endfacet
  facet normal 0.427559 -0.903988 0
    outer loop
      vertex 1.81775 -4.38843 0
      vertex 2.23913 -4.18913 5.8
      vertex 1.81775 -4.38843 5.8
    endloop
  endfacet
  facet normal 0.427559 -0.903988 0
    outer loop
      vertex 2.23913 -4.18913 5.8
      vertex 1.81775 -4.38843 0
      vertex 2.23913 -4.18913 0
    endloop
  endfacet
  facet normal 0.595697 -0.803209 0
    outer loop
      vertex 2.63896 -3.94948 0
      vertex 3.01337 -3.6718 5.8
      vertex 2.63896 -3.94948 5.8
    endloop
  endfacet
  facet normal 0.595697 -0.803209 0
    outer loop
      vertex 3.01337 -3.6718 5.8
      vertex 2.63896 -3.94948 0
      vertex 3.01337 -3.6718 0
    endloop
  endfacet
  facet normal 0.740955 -0.671555 0
    outer loop
      vertex 3.35876 -3.35876 5.8
      vertex 3.6718 -3.01337 0
      vertex 3.6718 -3.01337 5.8
    endloop
  endfacet
  facet normal 0.740955 -0.671555 0
    outer loop
      vertex 3.6718 -3.01337 0
      vertex 3.35876 -3.35876 5.8
      vertex 3.35876 -3.35876 0
    endloop
  endfacet
  facet normal 0.857728 -0.514105 0
    outer loop
      vertex 3.94948 -2.63896 5.8
      vertex 4.18913 -2.23913 0
      vertex 4.18913 -2.23913 5.8
    endloop
  endfacet
  facet normal 0.857728 -0.514105 0
    outer loop
      vertex 4.18913 -2.23913 0
      vertex 3.94948 -2.63896 5.8
      vertex 3.94948 -2.63896 0
    endloop
  endfacet
  facet normal 0.803209 -0.595697 0
    outer loop
      vertex 3.6718 -3.01337 5.8
      vertex 3.94948 -2.63896 0
      vertex 3.94948 -2.63896 5.8
    endloop
  endfacet
  facet normal 0.803209 -0.595697 0
    outer loop
      vertex 3.94948 -2.63896 0
      vertex 3.6718 -3.01337 5.8
      vertex 3.6718 -3.01337 0
    endloop
  endfacet
  facet normal -0.146736 -0.989176 0
    outer loop
      vertex -0.926679 -4.65873 0
      vertex -0.465581 -4.72713 5.8
      vertex -0.926679 -4.65873 5.8
    endloop
  endfacet
  facet normal -0.146736 -0.989176 -0
    outer loop
      vertex -0.465581 -4.72713 5.8
      vertex -0.926679 -4.65873 0
      vertex -0.465581 -4.72713 0
    endloop
  endfacet
  facet normal -0.0490623 -0.998796 0
    outer loop
      vertex -0.465581 -4.72713 0
      vertex 0 -4.75 5.8
      vertex -0.465581 -4.72713 5.8
    endloop
  endfacet
  facet normal -0.0490623 -0.998796 -0
    outer loop
      vertex 0 -4.75 5.8
      vertex -0.465581 -4.72713 0
      vertex 0 -4.75 0
    endloop
  endfacet
  facet normal -0.514105 -0.857728 0
    outer loop
      vertex -2.63896 -3.94948 0
      vertex -2.23913 -4.18913 5.8
      vertex -2.63896 -3.94948 5.8
    endloop
  endfacet
  facet normal -0.514105 -0.857728 -0
    outer loop
      vertex -2.23913 -4.18913 5.8
      vertex -2.63896 -3.94948 0
      vertex -2.23913 -4.18913 0
    endloop
  endfacet
  facet normal -0.671555 -0.740955 0
    outer loop
      vertex -3.35876 -3.35876 0
      vertex -3.01337 -3.6718 5.8
      vertex -3.35876 -3.35876 5.8
    endloop
  endfacet
  facet normal -0.671555 -0.740955 -0
    outer loop
      vertex -3.01337 -3.6718 5.8
      vertex -3.35876 -3.35876 0
      vertex -3.01337 -3.6718 0
    endloop
  endfacet
  facet normal -0.427559 -0.903988 0
    outer loop
      vertex -2.23913 -4.18913 0
      vertex -1.81775 -4.38843 5.8
      vertex -2.23913 -4.18913 5.8
    endloop
  endfacet
  facet normal -0.427559 -0.903988 -0
    outer loop
      vertex -1.81775 -4.38843 5.8
      vertex -2.23913 -4.18913 0
      vertex -1.81775 -4.38843 0
    endloop
  endfacet
  facet normal -0.970033 -0.242974 0
    outer loop
      vertex -4.54547 -1.37885 0
      vertex -4.65873 -0.926679 5.8
      vertex -4.65873 -0.926679 0
    endloop
  endfacet
  facet normal -0.970033 -0.242974 0
    outer loop
      vertex -4.65873 -0.926679 5.8
      vertex -4.54547 -1.37885 0
      vertex -4.54547 -1.37885 5.8
    endloop
  endfacet
  facet normal -0.998796 -0.0490623 0
    outer loop
      vertex -4.72713 -0.465581 0
      vertex -4.75 0 5.8
      vertex -4.75 0 0
    endloop
  endfacet
  facet normal -0.998796 -0.0490623 0
    outer loop
      vertex -4.75 0 5.8
      vertex -4.72713 -0.465581 0
      vertex -4.72713 -0.465581 5.8
    endloop
  endfacet
  facet normal 0 0 -1
    outer loop
      vertex 2 0 0
      vertex 4.75 0 0
      vertex 4.72713 -0.465581 0
    endloop
  endfacet
  facet normal 0 0 -1
    outer loop
      vertex 1.99037 -0.196033 0
      vertex 4.72713 -0.465581 0
      vertex 4.65873 -0.926679 0
    endloop
  endfacet
  facet normal 0 0 -1
    outer loop
      vertex 4.75 0 0
      vertex 2 0 0
      vertex 4.72713 0.465581 0
    endloop
  endfacet
  facet normal 0 0 -1
    outer loop
      vertex 1.96157 -0.390181 0
      vertex 4.65873 -0.926679 0
      vertex 4.54547 -1.37885 0
    endloop
  endfacet
  facet normal 0 0 -1
    outer loop
      vertex 1.99037 0.196033 0
      vertex 4.72713 0.465581 0
      vertex 2 0 0
    endloop
  endfacet
  facet normal 0 0 -1
    outer loop
      vertex 1.91388 -0.580569 0
      vertex 4.54547 -1.37885 0
      vertex 4.38843 -1.81775 0
    endloop
  endfacet
  facet normal -0 0 -1
    outer loop
      vertex 4.72713 0.465581 0
      vertex 1.99037 0.196033 0
      vertex 4.65873 0.926679 0
    endloop
  endfacet
  facet normal 0 0 -1
    outer loop
      vertex 1.84776 -0.765367 0
      vertex 4.38843 -1.81775 0
      vertex 4.18913 -2.23913 0
    endloop
  endfacet
  facet normal 0 0 -1
    outer loop
      vertex 1.96157 0.390181 0
      vertex 4.65873 0.926679 0
      vertex 1.99037 0.196033 0
    endloop
  endfacet
  facet normal 0 0 -1
    outer loop
      vertex 1.76384 -0.942793 0
      vertex 4.18913 -2.23913 0
      vertex 3.94948 -2.63896 0
    endloop
  endfacet
  facet normal -0 0 -1
    outer loop
      vertex 4.65873 0.926679 0
      vertex 1.96157 0.390181 0
      vertex 4.54547 1.37885 0
    endloop
  endfacet
  facet normal 0 0 -1
    outer loop
      vertex 1.66294 -1.11114 0
      vertex 3.94948 -2.63896 0
      vertex 3.6718 -3.01337 0
    endloop
  endfacet
  facet normal 0 0 -1
    outer loop
      vertex 1.91388 0.580569 0
      vertex 4.54547 1.37885 0
      vertex 1.96157 0.390181 0
    endloop
  endfacet
  facet normal 0 0 -1
    outer loop
      vertex 1.54602 -1.26879 0
      vertex 3.6718 -3.01337 0
      vertex 3.35876 -3.35876 0
    endloop
  endfacet
  facet normal -0 0 -1
    outer loop
      vertex 4.54547 1.37885 0
      vertex 1.91388 0.580569 0
      vertex 4.38843 1.81775 0
    endloop
  endfacet
  facet normal 0 0 -1
    outer loop
      vertex 1.41421 -1.41421 0
      vertex 3.35876 -3.35876 0
      vertex 3.01337 -3.6718 0
    endloop
  endfacet
  facet normal 0 0 -1
    outer loop
      vertex 1.84776 0.765367 0
      vertex 4.38843 1.81775 0
      vertex 1.91388 0.580569 0
    endloop
  endfacet
  facet normal 0 0 -1
    outer loop
      vertex 1.26879 -1.54602 0
      vertex 3.01337 -3.6718 0
      vertex 2.63896 -3.94948 0
    endloop
  endfacet
  facet normal -0 0 -1
    outer loop
      vertex 4.38843 1.81775 0
      vertex 1.84776 0.765367 0
      vertex 4.18913 2.23913 0
    endloop
  endfacet
  facet normal 0 0 -1
    outer loop
      vertex 1.11114 -1.66294 0
      vertex 2.63896 -3.94948 0
      vertex 2.23913 -4.18913 0
    endloop
  endfacet
  facet normal 0 0 -1
    outer loop
      vertex 1.76384 0.942793 0
      vertex 4.18913 2.23913 0
      vertex 1.84776 0.765367 0
    endloop
  endfacet
  facet normal -0 0 -1
    outer loop
      vertex 4.18913 2.23913 0
      vertex 1.76384 0.942793 0
      vertex 3.94948 2.63896 0
    endloop
  endfacet
  facet normal 0 0 -1
    outer loop
      vertex 4.72713 -0.465581 0
      vertex 1.99037 -0.196033 0
      vertex 2 0 0
    endloop
  endfacet
  facet normal 0 0 -1
    outer loop
      vertex 4.65873 -0.926679 0
      vertex 1.96157 -0.390181 0
      vertex 1.99037 -0.196033 0
    endloop
  endfacet
  facet normal 0 0 -1
    outer loop
      vertex 4.54547 -1.37885 0
      vertex 1.91388 -0.580569 0
      vertex 1.96157 -0.390181 0
    endloop
  endfacet
  facet normal 0 0 -1
    outer loop
      vertex 4.38843 -1.81775 0
      vertex 1.84776 -0.765367 0
      vertex 1.91388 -0.580569 0
    endloop
  endfacet
  facet normal 0 0 -1
    outer loop
      vertex 0.942793 -1.76384 0
      vertex 2.23913 -4.18913 0
      vertex 1.81775 -4.38843 0
    endloop
  endfacet
  facet normal 0 0 -1
    outer loop
      vertex 4.18913 -2.23913 0
      vertex 1.76384 -0.942793 0
      vertex 1.84776 -0.765367 0
    endloop
  endfacet
  facet normal 0 0 -1
    outer loop
      vertex 3.94948 -2.63896 0
      vertex 1.66294 -1.11114 0
      vertex 1.76384 -0.942793 0
    endloop
  endfacet
  facet normal 0 0 -1
    outer loop
      vertex 3.6718 -3.01337 0
      vertex 1.54602 -1.26879 0
      vertex 1.66294 -1.11114 0
    endloop
  endfacet
  facet normal 0 0 -1
    outer loop
      vertex 3.35876 -3.35876 0
      vertex 1.41421 -1.41421 0
      vertex 1.54602 -1.26879 0
    endloop
  endfacet
  facet normal 0 0 -1
    outer loop
      vertex 0.765367 -1.84776 0
      vertex 1.81775 -4.38843 0
      vertex 1.37885 -4.54547 0
    endloop
  endfacet
  facet normal 0 0 -1
    outer loop
      vertex 3.01337 -3.6718 0
      vertex 1.26879 -1.54602 0
      vertex 1.41421 -1.41421 0
    endloop
  endfacet
  facet normal 0 0 -1
    outer loop
      vertex 2.63896 -3.94948 0
      vertex 1.11114 -1.66294 0
      vertex 1.26879 -1.54602 0
    endloop
  endfacet
  facet normal 0 0 -1
    outer loop
      vertex 2.23913 -4.18913 0
      vertex 0.942793 -1.76384 0
      vertex 1.11114 -1.66294 0
    endloop
  endfacet
  facet normal 0 0 -1
    outer loop
      vertex 0.580569 -1.91388 0
      vertex 1.37885 -4.54547 0
      vertex 0.926679 -4.65873 0
    endloop
  endfacet
  facet normal 0 0 -1
    outer loop
      vertex 1.81775 -4.38843 0
      vertex 0.765367 -1.84776 0
      vertex 0.942793 -1.76384 0
    endloop
  endfacet
  facet normal 0 0 -1
    outer loop
      vertex 1.37885 -4.54547 0
      vertex 0.580569 -1.91388 0
      vertex 0.765367 -1.84776 0
    endloop
  endfacet
  facet normal 0 0 -1
    outer loop
      vertex 0.390181 -1.96157 0
      vertex 0.926679 -4.65873 0
      vertex 0.465581 -4.72713 0
    endloop
  endfacet
  facet normal 0 0 -1
    outer loop
      vertex 0.926679 -4.65873 0
      vertex 0.390181 -1.96157 0
      vertex 0.580569 -1.91388 0
    endloop
  endfacet
  facet normal 0 0 -1
    outer loop
      vertex 0.465581 -4.72713 0
      vertex 0.196033 -1.99037 0
      vertex 0.390181 -1.96157 0
    endloop
  endfacet
  facet normal 0 0 -1
    outer loop
      vertex 0 -4.75 0
      vertex 0.196033 -1.99037 0
      vertex 0.465581 -4.72713 0
    endloop
  endfacet
  facet normal 0 0 -1
    outer loop
      vertex 0 -4.75 0
      vertex 0 -2 0
      vertex 0.196033 -1.99037 0
    endloop
  endfacet
  facet normal 0 0 -1
    outer loop
      vertex 0 -4.75 0
      vertex -0.196033 -1.99037 0
      vertex 0 -2 0
    endloop
  endfacet
  facet normal 0 0 -1
    outer loop
      vertex -0.465581 -4.72713 0
      vertex -0.196033 -1.99037 0
      vertex 0 -4.75 0
    endloop
  endfacet
  facet normal -0 0 -1
    outer loop
      vertex -0.196033 -1.99037 0
      vertex -0.465581 -4.72713 0
      vertex -0.390181 -1.96157 0
    endloop
  endfacet
  facet normal 0 0 -1
    outer loop
      vertex -0.926679 -4.65873 0
      vertex -0.390181 -1.96157 0
      vertex -0.465581 -4.72713 0
    endloop
  endfacet
  facet normal -0 0 -1
    outer loop
      vertex -0.390181 -1.96157 0
      vertex -0.926679 -4.65873 0
      vertex -0.580569 -1.91388 0
    endloop
  endfacet
  facet normal 0 0 -1
    outer loop
      vertex -1.37885 -4.54547 0
      vertex -0.580569 -1.91388 0
      vertex -0.926679 -4.65873 0
    endloop
  endfacet
  facet normal -0 0 -1
    outer loop
      vertex -0.580569 -1.91388 0
      vertex -1.37885 -4.54547 0
      vertex -0.765367 -1.84776 0
    endloop
  endfacet
  facet normal 0 0 -1
    outer loop
      vertex -1.81775 -4.38843 0
      vertex -0.765367 -1.84776 0
      vertex -1.37885 -4.54547 0
    endloop
  endfacet
  facet normal -0 0 -1
    outer loop
      vertex -0.765367 -1.84776 0
      vertex -1.81775 -4.38843 0
      vertex -0.942793 -1.76384 0
    endloop
  endfacet
  facet normal 0 0 -1
    outer loop
      vertex -2.23913 -4.18913 0
      vertex -0.942793 -1.76384 0
      vertex -1.81775 -4.38843 0
    endloop
  endfacet
  facet normal -0 0 -1
    outer loop
      vertex -0.942793 -1.76384 0
      vertex -2.23913 -4.18913 0
      vertex -1.11114 -1.66294 0
    endloop
  endfacet
  facet normal 0 0 -1
    outer loop
      vertex -2.63896 -3.94948 0
      vertex -1.11114 -1.66294 0
      vertex -2.23913 -4.18913 0
    endloop
  endfacet
  facet normal -0 0 -1
    outer loop
      vertex -1.11114 -1.66294 0
      vertex -2.63896 -3.94948 0
      vertex -1.26879 -1.54602 0
    endloop
  endfacet
  facet normal 0 0 -1
    outer loop
      vertex -3.01337 -3.6718 0
      vertex -1.26879 -1.54602 0
      vertex -2.63896 -3.94948 0
    endloop
  endfacet
  facet normal -0 0 -1
    outer loop
      vertex -1.26879 -1.54602 0
      vertex -3.01337 -3.6718 0
      vertex -1.41421 -1.41421 0
    endloop
  endfacet
  facet normal 0 0 -1
    outer loop
      vertex -3.35876 -3.35876 0
      vertex -1.41421 -1.41421 0
      vertex -3.01337 -3.6718 0
    endloop
  endfacet
  facet normal -0 0 -1
    outer loop
      vertex -1.41421 -1.41421 0
      vertex -3.35876 -3.35876 0
      vertex -1.54602 -1.26879 0
    endloop
  endfacet
  facet normal 0 0 -1
    outer loop
      vertex -3.6718 -3.01337 0
      vertex -1.54602 -1.26879 0
      vertex -3.35876 -3.35876 0
    endloop
  endfacet
  facet normal -0 0 -1
    outer loop
      vertex -1.54602 -1.26879 0
      vertex -3.6718 -3.01337 0
      vertex -1.66294 -1.11114 0
    endloop
  endfacet
  facet normal 0 0 -1
    outer loop
      vertex -3.94948 -2.63896 0
      vertex -1.66294 -1.11114 0
      vertex -3.6718 -3.01337 0
    endloop
  endfacet
  facet normal -0 0 -1
    outer loop
      vertex -1.66294 -1.11114 0
      vertex -3.94948 -2.63896 0
      vertex -1.76384 -0.942793 0
    endloop
  endfacet
  facet normal 0 0 -1
    outer loop
      vertex 1.66294 1.11114 0
      vertex 3.94948 2.63896 0
      vertex 1.76384 0.942793 0
    endloop
  endfacet
  facet normal -0 0 -1
    outer loop
      vertex 3.94948 2.63896 0
      vertex 1.66294 1.11114 0
      vertex 3.6718 3.01337 0
    endloop
  endfacet
  facet normal 0 0 -1
    outer loop
      vertex 1.54602 1.26879 0
      vertex 3.6718 3.01337 0
      vertex 1.66294 1.11114 0
    endloop
  endfacet
  facet normal -0 0 -1
    outer loop
      vertex 3.6718 3.01337 0
      vertex 1.54602 1.26879 0
      vertex 3.35876 3.35876 0
    endloop
  endfacet
  facet normal 0 0 -1
    outer loop
      vertex 1.41421 1.41421 0
      vertex 3.35876 3.35876 0
      vertex 1.54602 1.26879 0
    endloop
  endfacet
  facet normal -0 0 -1
    outer loop
      vertex 3.35876 3.35876 0
      vertex 1.41421 1.41421 0
      vertex 3.01337 3.6718 0
    endloop
  endfacet
  facet normal 0 0 -1
    outer loop
      vertex 1.26879 1.54602 0
      vertex 3.01337 3.6718 0
      vertex 1.41421 1.41421 0
    endloop
  endfacet
  facet normal -0 0 -1
    outer loop
      vertex 3.01337 3.6718 0
      vertex 1.26879 1.54602 0
      vertex 2.63896 3.94948 0
    endloop
  endfacet
  facet normal 0 0 -1
    outer loop
      vertex 1.11114 1.66294 0
      vertex 2.63896 3.94948 0
      vertex 1.26879 1.54602 0
    endloop
  endfacet
  facet normal -0 0 -1
    outer loop
      vertex 2.63896 3.94948 0
      vertex 1.11114 1.66294 0
      vertex 2.23913 4.18913 0
    endloop
  endfacet
  facet normal 0 0 -1
    outer loop
      vertex 0.942793 1.76384 0
      vertex 2.23913 4.18913 0
      vertex 1.11114 1.66294 0
    endloop
  endfacet
  facet normal -0 0 -1
    outer loop
      vertex 2.23913 4.18913 0
      vertex 0.942793 1.76384 0
      vertex 1.81775 4.38843 0
    endloop
  endfacet
  facet normal 0 0 -1
    outer loop
      vertex 0.765367 1.84776 0
      vertex 1.81775 4.38843 0
      vertex 0.942793 1.76384 0
    endloop
  endfacet
  facet normal -0 0 -1
    outer loop
      vertex 1.81775 4.38843 0
      vertex 0.765367 1.84776 0
      vertex 1.37885 4.54547 0
    endloop
  endfacet
  facet normal 0 0 -1
    outer loop
      vertex 0.580569 1.91388 0
      vertex 1.37885 4.54547 0
      vertex 0.765367 1.84776 0
    endloop
  endfacet
  facet normal -0 0 -1
    outer loop
      vertex 1.37885 4.54547 0
      vertex 0.580569 1.91388 0
      vertex 0.926679 4.65873 0
    endloop
  endfacet
  facet normal 0 0 -1
    outer loop
      vertex 0.390181 1.96157 0
      vertex 0.926679 4.65873 0
      vertex 0.580569 1.91388 0
    endloop
  endfacet
  facet normal -0 0 -1
    outer loop
      vertex 0.926679 4.65873 0
      vertex 0.390181 1.96157 0
      vertex 0.465581 4.72713 0
    endloop
  endfacet
  facet normal 0 0 -1
    outer loop
      vertex 0.196033 1.99037 0
      vertex 0.465581 4.72713 0
      vertex 0.390181 1.96157 0
    endloop
  endfacet
  facet normal 0 0 -1
    outer loop
      vertex 0 2 0
      vertex 0.465581 4.72713 0
      vertex 0.196033 1.99037 0
    endloop
  endfacet
  facet normal 0 0 -1
    outer loop
      vertex 0 2 0
      vertex 0 4.75 0
      vertex 0.465581 4.72713 0
    endloop
  endfacet
  facet normal 0 0 -1
    outer loop
      vertex -0.196033 1.99037 0
      vertex 0 4.75 0
      vertex 0 2 0
    endloop
  endfacet
  facet normal 0 0 -1
    outer loop
      vertex -0.465581 4.72713 0
      vertex -0.196033 1.99037 0
      vertex -0.390181 1.96157 0
    endloop
  endfacet
  facet normal 0 0 -1
    outer loop
      vertex -0.196033 1.99037 0
      vertex -0.465581 4.72713 0
      vertex 0 4.75 0
    endloop
  endfacet
  facet normal 0 0 -1
    outer loop
      vertex -0.926679 4.65873 0
      vertex -0.390181 1.96157 0
      vertex -0.580569 1.91388 0
    endloop
  endfacet
  facet normal 0 0 -1
    outer loop
      vertex -1.37885 4.54547 0
      vertex -0.580569 1.91388 0
      vertex -0.765367 1.84776 0
    endloop
  endfacet
  facet normal 0 0 -1
    outer loop
      vertex -0.390181 1.96157 0
      vertex -0.926679 4.65873 0
      vertex -0.465581 4.72713 0
    endloop
  endfacet
  facet normal 0 0 -1
    outer loop
      vertex -1.81775 4.38843 0
      vertex -0.765367 1.84776 0
      vertex -0.942793 1.76384 0
    endloop
  endfacet
  facet normal 0 0 -1
    outer loop
      vertex -2.23913 4.18913 0
      vertex -0.942793 1.76384 0
      vertex -1.11114 1.66294 0
    endloop
  endfacet
  facet normal 0 0 -1
    outer loop
      vertex -2.63896 3.94948 0
      vertex -1.11114 1.66294 0
      vertex -1.26879 1.54602 0
    endloop
  endfacet
  facet normal 0 0 -1
    outer loop
      vertex -0.580569 1.91388 0
      vertex -1.37885 4.54547 0
      vertex -0.926679 4.65873 0
    endloop
  endfacet
  facet normal 0 0 -1
    outer loop
      vertex -3.01337 3.6718 0
      vertex -1.26879 1.54602 0
      vertex -1.41421 1.41421 0
    endloop
  endfacet
  facet normal 0 0 -1
    outer loop
      vertex -3.35876 3.35876 0
      vertex -1.41421 1.41421 0
      vertex -1.54602 1.26879 0
    endloop
  endfacet
  facet normal 0 0 -1
    outer loop
      vertex -3.6718 3.01337 0
      vertex -1.54602 1.26879 0
      vertex -1.66294 1.11114 0
    endloop
  endfacet
  facet normal 0 0 -1
    outer loop
      vertex -3.94948 2.63896 0
      vertex -1.66294 1.11114 0
      vertex -1.76384 0.942793 0
    endloop
  endfacet
  facet normal 0 0 -1
    outer loop
      vertex -0.765367 1.84776 0
      vertex -1.81775 4.38843 0
      vertex -1.37885 4.54547 0
    endloop
  endfacet
  facet normal 0 0 -1
    outer loop
      vertex -4.18913 2.23913 0
      vertex -1.76384 0.942793 0
      vertex -1.84776 0.765367 0
    endloop
  endfacet
  facet normal 0 0 -1
    outer loop
      vertex -4.38843 1.81775 0
      vertex -1.84776 0.765367 0
      vertex -1.91388 0.580569 0
    endloop
  endfacet
  facet normal 0 0 -1
    outer loop
      vertex -4.54547 1.37885 0
      vertex -1.91388 0.580569 0
      vertex -1.96157 0.390181 0
    endloop
  endfacet
  facet normal 0 0 -1
    outer loop
      vertex -4.65873 0.926679 0
      vertex -1.96157 0.390181 0
      vertex -1.99037 0.196033 0
    endloop
  endfacet
  facet normal 0 0 -1
    outer loop
      vertex -4.72713 0.465581 0
      vertex -1.99037 0.196033 0
      vertex -2 0 0
    endloop
  endfacet
  facet normal 0 0 -1
    outer loop
      vertex -4.18913 -2.23913 0
      vertex -1.76384 -0.942793 0
      vertex -3.94948 -2.63896 0
    endloop
  endfacet
  facet normal 0 0 -1
    outer loop
      vertex -0.942793 1.76384 0
      vertex -2.23913 4.18913 0
      vertex -1.81775 4.38843 0
    endloop
  endfacet
  facet normal -0 0 -1
    outer loop
      vertex -1.76384 -0.942793 0
      vertex -4.18913 -2.23913 0
      vertex -1.84776 -0.765367 0
    endloop
  endfacet
  facet normal 0 0 -1
    outer loop
      vertex -1.11114 1.66294 0
      vertex -2.63896 3.94948 0
      vertex -2.23913 4.18913 0
    endloop
  endfacet
  facet normal 0 0 -1
    outer loop
      vertex -4.38843 -1.81775 0
      vertex -1.84776 -0.765367 0
      vertex -4.18913 -2.23913 0
    endloop
  endfacet
  facet normal 0 0 -1
    outer loop
      vertex -1.26879 1.54602 0
      vertex -3.01337 3.6718 0
      vertex -2.63896 3.94948 0
    endloop
  endfacet
  facet normal -0 0 -1
    outer loop
      vertex -1.84776 -0.765367 0
      vertex -4.38843 -1.81775 0
      vertex -1.91388 -0.580569 0
    endloop
  endfacet
  facet normal 0 0 -1
    outer loop
      vertex -1.41421 1.41421 0
      vertex -3.35876 3.35876 0
      vertex -3.01337 3.6718 0
    endloop
  endfacet
  facet normal 0 0 -1
    outer loop
      vertex -4.54547 -1.37885 0
      vertex -1.91388 -0.580569 0
      vertex -4.38843 -1.81775 0
    endloop
  endfacet
  facet normal 0 0 -1
    outer loop
      vertex -1.54602 1.26879 0
      vertex -3.6718 3.01337 0
      vertex -3.35876 3.35876 0
    endloop
  endfacet
  facet normal -0 0 -1
    outer loop
      vertex -1.91388 -0.580569 0
      vertex -4.54547 -1.37885 0
      vertex -1.96157 -0.390181 0
    endloop
  endfacet
  facet normal 0 0 -1
    outer loop
      vertex -1.66294 1.11114 0
      vertex -3.94948 2.63896 0
      vertex -3.6718 3.01337 0
    endloop
  endfacet
  facet normal 0 0 -1
    outer loop
      vertex -4.65873 -0.926679 0
      vertex -1.96157 -0.390181 0
      vertex -4.54547 -1.37885 0
    endloop
  endfacet
  facet normal 0 0 -1
    outer loop
      vertex -1.76384 0.942793 0
      vertex -4.18913 2.23913 0
      vertex -3.94948 2.63896 0
    endloop
  endfacet
  facet normal -0 0 -1
    outer loop
      vertex -1.96157 -0.390181 0
      vertex -4.65873 -0.926679 0
      vertex -1.99037 -0.196033 0
    endloop
  endfacet
  facet normal 0 0 -1
    outer loop
      vertex -1.84776 0.765367 0
      vertex -4.38843 1.81775 0
      vertex -4.18913 2.23913 0
    endloop
  endfacet
  facet normal 0 0 -1
    outer loop
      vertex -4.72713 -0.465581 0
      vertex -1.99037 -0.196033 0
      vertex -4.65873 -0.926679 0
    endloop
  endfacet
  facet normal 0 0 -1
    outer loop
      vertex -1.91388 0.580569 0
      vertex -4.54547 1.37885 0
      vertex -4.38843 1.81775 0
    endloop
  endfacet
  facet normal -0 0 -1
    outer loop
      vertex -1.99037 -0.196033 0
      vertex -4.72713 -0.465581 0
      vertex -2 0 0
    endloop
  endfacet
  facet normal 0 0 -1
    outer loop
      vertex -1.96157 0.390181 0
      vertex -4.65873 0.926679 0
      vertex -4.54547 1.37885 0
    endloop
  endfacet
  facet normal 0 0 -1
    outer loop
      vertex -4.75 0 0
      vertex -2 0 0
      vertex -4.72713 -0.465581 0
    endloop
  endfacet
  facet normal 0 0 -1
    outer loop
      vertex -1.99037 0.196033 0
      vertex -4.72713 0.465581 0
      vertex -4.65873 0.926679 0
    endloop
  endfacet
  facet normal 0 0 -1
    outer loop
      vertex -2 0 0
      vertex -4.75 0 0
      vertex -4.72713 0.465581 0
    endloop
  endfacet
  facet normal -0.740955 -0.671555 0
    outer loop
      vertex -3.35876 -3.35876 0
      vertex -3.6718 -3.01337 5.8
      vertex -3.6718 -3.01337 0
    endloop
  endfacet
  facet normal -0.740955 -0.671555 0
    outer loop
      vertex -3.6718 -3.01337 5.8
      vertex -3.35876 -3.35876 0
      vertex -3.35876 -3.35876 5.8
    endloop
  endfacet
  facet normal -0.803209 -0.595697 0
    outer loop
      vertex -3.6718 -3.01337 0
      vertex -3.94948 -2.63896 5.8
      vertex -3.94948 -2.63896 0
    endloop
  endfacet
  facet normal -0.803209 -0.595697 0
    outer loop
      vertex -3.94948 -2.63896 5.8
      vertex -3.6718 -3.01337 0
      vertex -3.6718 -3.01337 5.8
    endloop
  endfacet
  facet normal 0.336888 0.941545 -0
    outer loop
      vertex 1.81775 4.38843 0
      vertex 1.37885 4.54547 5.8
      vertex 1.81775 4.38843 5.8
    endloop
  endfacet
  facet normal 0.336888 0.941545 0
    outer loop
      vertex 1.37885 4.54547 5.8
      vertex 1.81775 4.38843 0
      vertex 1.37885 4.54547 0
    endloop
  endfacet
  facet normal 0 0 1
    outer loop
      vertex 2 0 5.8
      vertex 4.75 0 5.8
      vertex 4.72713 0.465581 5.8
    endloop
  endfacet
  facet normal 0 0 1
    outer loop
      vertex 1.99037 0.196033 5.8
      vertex 4.72713 0.465581 5.8
      vertex 4.65873 0.926679 5.8
    endloop
  endfacet
  facet normal 0 0 1
    outer loop
      vertex 4.75 0 5.8
      vertex 2 0 5.8
      vertex 4.72713 -0.465581 5.8
    endloop
  endfacet
  facet normal 0 0 1
    outer loop
      vertex 1.96157 0.390181 5.8
      vertex 4.65873 0.926679 5.8
      vertex 4.54547 1.37885 5.8
    endloop
  endfacet
  facet normal -0 0 1
    outer loop
      vertex 1.99037 -0.196033 5.8
      vertex 4.72713 -0.465581 5.8
      vertex 2 0 5.8
    endloop
  endfacet
  facet normal 0 0 1
    outer loop
      vertex 1.91388 0.580569 5.8
      vertex 4.54547 1.37885 5.8
      vertex 4.38843 1.81775 5.8
    endloop
  endfacet
  facet normal 0 0 1
    outer loop
      vertex 4.72713 -0.465581 5.8
      vertex 1.99037 -0.196033 5.8
      vertex 4.65873 -0.926679 5.8
    endloop
  endfacet
  facet normal 0 0 1
    outer loop
      vertex 1.84776 0.765367 5.8
      vertex 4.38843 1.81775 5.8
      vertex 4.18913 2.23913 5.8
    endloop
  endfacet
  facet normal -0 0 1
    outer loop
      vertex 1.96157 -0.390181 5.8
      vertex 4.65873 -0.926679 5.8
      vertex 1.99037 -0.196033 5.8
    endloop
  endfacet
  facet normal 0 0 1
    outer loop
      vertex 1.76384 0.942793 5.8
      vertex 4.18913 2.23913 5.8
      vertex 3.94948 2.63896 5.8
    endloop
  endfacet
  facet normal 0 0 1
    outer loop
      vertex 4.65873 -0.926679 5.8
      vertex 1.96157 -0.390181 5.8
      vertex 4.54547 -1.37885 5.8
    endloop
  endfacet
  facet normal 0 0 1
    outer loop
      vertex 1.66294 1.11114 5.8
      vertex 3.94948 2.63896 5.8
      vertex 3.6718 3.01337 5.8
    endloop
  endfacet
  facet normal -0 0 1
    outer loop
      vertex 1.91388 -0.580569 5.8
      vertex 4.54547 -1.37885 5.8
      vertex 1.96157 -0.390181 5.8
    endloop
  endfacet
  facet normal 0 0 1
    outer loop
      vertex 1.54602 1.26879 5.8
      vertex 3.6718 3.01337 5.8
      vertex 3.35876 3.35876 5.8
    endloop
  endfacet
  facet normal 0 0 1
    outer loop
      vertex 4.54547 -1.37885 5.8
      vertex 1.91388 -0.580569 5.8
      vertex 4.38843 -1.81775 5.8
    endloop
  endfacet
  facet normal 0 0 1
    outer loop
      vertex 1.41421 1.41421 5.8
      vertex 3.35876 3.35876 5.8
      vertex 3.01337 3.6718 5.8
    endloop
  endfacet
  facet normal -0 0 1
    outer loop
      vertex 1.84776 -0.765367 5.8
      vertex 4.38843 -1.81775 5.8
      vertex 1.91388 -0.580569 5.8
    endloop
  endfacet
  facet normal 0 0 1
    outer loop
      vertex 1.26879 1.54602 5.8
      vertex 3.01337 3.6718 5.8
      vertex 2.63896 3.94948 5.8
    endloop
  endfacet
  facet normal 0 0 1
    outer loop
      vertex 4.38843 -1.81775 5.8
      vertex 1.84776 -0.765367 5.8
      vertex 4.18913 -2.23913 5.8
    endloop
  endfacet
  facet normal 0 0 1
    outer loop
      vertex 1.11114 1.66294 5.8
      vertex 2.63896 3.94948 5.8
      vertex 2.23913 4.18913 5.8
    endloop
  endfacet
  facet normal -0 0 1
    outer loop
      vertex 1.76384 -0.942793 5.8
      vertex 4.18913 -2.23913 5.8
      vertex 1.84776 -0.765367 5.8
    endloop
  endfacet
  facet normal 0 0 1
    outer loop
      vertex 4.18913 -2.23913 5.8
      vertex 1.76384 -0.942793 5.8
      vertex 3.94948 -2.63896 5.8
    endloop
  endfacet
  facet normal 0 0 1
    outer loop
      vertex 4.72713 0.465581 5.8
      vertex 1.99037 0.196033 5.8
      vertex 2 0 5.8
    endloop
  endfacet
  facet normal 0 0 1
    outer loop
      vertex 4.65873 0.926679 5.8
      vertex 1.96157 0.390181 5.8
      vertex 1.99037 0.196033 5.8
    endloop
  endfacet
  facet normal 0 0 1
    outer loop
      vertex 4.54547 1.37885 5.8
      vertex 1.91388 0.580569 5.8
      vertex 1.96157 0.390181 5.8
    endloop
  endfacet
  facet normal 0 0 1
    outer loop
      vertex 4.38843 1.81775 5.8
      vertex 1.84776 0.765367 5.8
      vertex 1.91388 0.580569 5.8
    endloop
  endfacet
  facet normal 0 0 1
    outer loop
      vertex 0.942793 1.76384 5.8
      vertex 2.23913 4.18913 5.8
      vertex 1.81775 4.38843 5.8
    endloop
  endfacet
  facet normal 0 0 1
    outer loop
      vertex 4.18913 2.23913 5.8
      vertex 1.76384 0.942793 5.8
      vertex 1.84776 0.765367 5.8
    endloop
  endfacet
  facet normal 0 0 1
    outer loop
      vertex 3.94948 2.63896 5.8
      vertex 1.66294 1.11114 5.8
      vertex 1.76384 0.942793 5.8
    endloop
  endfacet
  facet normal 0 0 1
    outer loop
      vertex 3.6718 3.01337 5.8
      vertex 1.54602 1.26879 5.8
      vertex 1.66294 1.11114 5.8
    endloop
  endfacet
  facet normal 0 0 1
    outer loop
      vertex 3.35876 3.35876 5.8
      vertex 1.41421 1.41421 5.8
      vertex 1.54602 1.26879 5.8
    endloop
  endfacet
  facet normal 0 0 1
    outer loop
      vertex 0.765367 1.84776 5.8
      vertex 1.81775 4.38843 5.8
      vertex 1.37885 4.54547 5.8
    endloop
  endfacet
  facet normal 0 0 1
    outer loop
      vertex 3.01337 3.6718 5.8
      vertex 1.26879 1.54602 5.8
      vertex 1.41421 1.41421 5.8
    endloop
  endfacet
  facet normal 0 0 1
    outer loop
      vertex 2.63896 3.94948 5.8
      vertex 1.11114 1.66294 5.8
      vertex 1.26879 1.54602 5.8
    endloop
  endfacet
  facet normal 0 0 1
    outer loop
      vertex 2.23913 4.18913 5.8
      vertex 0.942793 1.76384 5.8
      vertex 1.11114 1.66294 5.8
    endloop
  endfacet
  facet normal 0 0 1
    outer loop
      vertex 0.580569 1.91388 5.8
      vertex 1.37885 4.54547 5.8
      vertex 0.926679 4.65873 5.8
    endloop
  endfacet
  facet normal 0 0 1
    outer loop
      vertex 1.81775 4.38843 5.8
      vertex 0.765367 1.84776 5.8
      vertex 0.942793 1.76384 5.8
    endloop
  endfacet
  facet normal 0 0 1
    outer loop
      vertex 1.37885 4.54547 5.8
      vertex 0.580569 1.91388 5.8
      vertex 0.765367 1.84776 5.8
    endloop
  endfacet
  facet normal 0 0 1
    outer loop
      vertex 0.390181 1.96157 5.8
      vertex 0.926679 4.65873 5.8
      vertex 0.465581 4.72713 5.8
    endloop
  endfacet
  facet normal 0 0 1
    outer loop
      vertex 0.926679 4.65873 5.8
      vertex 0.390181 1.96157 5.8
      vertex 0.580569 1.91388 5.8
    endloop
  endfacet
  facet normal 0 0 1
    outer loop
      vertex 0.465581 4.72713 5.8
      vertex 0.196033 1.99037 5.8
      vertex 0.390181 1.96157 5.8
    endloop
  endfacet
  facet normal 0 0 1
    outer loop
      vertex 0 4.75 5.8
      vertex 0.196033 1.99037 5.8
      vertex 0.465581 4.72713 5.8
    endloop
  endfacet
  facet normal 0 0 1
    outer loop
      vertex 0 4.75 5.8
      vertex 0 2 5.8
      vertex 0.196033 1.99037 5.8
    endloop
  endfacet
  facet normal 0 0 1
    outer loop
      vertex 0 4.75 5.8
      vertex -0.196033 1.99037 5.8
      vertex 0 2 5.8
    endloop
  endfacet
  facet normal -0 0 1
    outer loop
      vertex -0.465581 4.72713 5.8
      vertex -0.196033 1.99037 5.8
      vertex 0 4.75 5.8
    endloop
  endfacet
  facet normal 0 0 1
    outer loop
      vertex -0.196033 1.99037 5.8
      vertex -0.465581 4.72713 5.8
      vertex -0.390181 1.96157 5.8
    endloop
  endfacet
  facet normal -0 0 1
    outer loop
      vertex -0.926679 4.65873 5.8
      vertex -0.390181 1.96157 5.8
      vertex -0.465581 4.72713 5.8
    endloop
  endfacet
  facet normal 0 0 1
    outer loop
      vertex -0.390181 1.96157 5.8
      vertex -0.926679 4.65873 5.8
      vertex -0.580569 1.91388 5.8
    endloop
  endfacet
  facet normal -0 0 1
    outer loop
      vertex -1.37885 4.54547 5.8
      vertex -0.580569 1.91388 5.8
      vertex -0.926679 4.65873 5.8
    endloop
  endfacet
  facet normal 0 0 1
    outer loop
      vertex -0.580569 1.91388 5.8
      vertex -1.37885 4.54547 5.8
      vertex -0.765367 1.84776 5.8
    endloop
  endfacet
  facet normal -0 0 1
    outer loop
      vertex -1.81775 4.38843 5.8
      vertex -0.765367 1.84776 5.8
      vertex -1.37885 4.54547 5.8
    endloop
  endfacet
  facet normal 0 0 1
    outer loop
      vertex -0.765367 1.84776 5.8
      vertex -1.81775 4.38843 5.8
      vertex -0.942793 1.76384 5.8
    endloop
  endfacet
  facet normal -0 0 1
    outer loop
      vertex -2.23913 4.18913 5.8
      vertex -0.942793 1.76384 5.8
      vertex -1.81775 4.38843 5.8
    endloop
  endfacet
  facet normal 0 0 1
    outer loop
      vertex -0.942793 1.76384 5.8
      vertex -2.23913 4.18913 5.8
      vertex -1.11114 1.66294 5.8
    endloop
  endfacet
  facet normal -0 0 1
    outer loop
      vertex -2.63896 3.94948 5.8
      vertex -1.11114 1.66294 5.8
      vertex -2.23913 4.18913 5.8
    endloop
  endfacet
  facet normal 0 0 1
    outer loop
      vertex -1.11114 1.66294 5.8
      vertex -2.63896 3.94948 5.8
      vertex -1.26879 1.54602 5.8
    endloop
  endfacet
  facet normal -0 0 1
    outer loop
      vertex -3.01337 3.6718 5.8
      vertex -1.26879 1.54602 5.8
      vertex -2.63896 3.94948 5.8
    endloop
  endfacet
  facet normal 0 0 1
    outer loop
      vertex -1.26879 1.54602 5.8
      vertex -3.01337 3.6718 5.8
      vertex -1.41421 1.41421 5.8
    endloop
  endfacet
  facet normal -0 0 1
    outer loop
      vertex -3.35876 3.35876 5.8
      vertex -1.41421 1.41421 5.8
      vertex -3.01337 3.6718 5.8
    endloop
  endfacet
  facet normal 0 0 1
    outer loop
      vertex -1.41421 1.41421 5.8
      vertex -3.35876 3.35876 5.8
      vertex -1.54602 1.26879 5.8
    endloop
  endfacet
  facet normal -0 0 1
    outer loop
      vertex -3.6718 3.01337 5.8
      vertex -1.54602 1.26879 5.8
      vertex -3.35876 3.35876 5.8
    endloop
  endfacet
  facet normal 0 0 1
    outer loop
      vertex -1.54602 1.26879 5.8
      vertex -3.6718 3.01337 5.8
      vertex -1.66294 1.11114 5.8
    endloop
  endfacet
  facet normal -0 0 1
    outer loop
      vertex -3.94948 2.63896 5.8
      vertex -1.66294 1.11114 5.8
      vertex -3.6718 3.01337 5.8
    endloop
  endfacet
  facet normal 0 0 1
    outer loop
      vertex -1.66294 1.11114 5.8
      vertex -3.94948 2.63896 5.8
      vertex -1.76384 0.942793 5.8
    endloop
  endfacet
  facet normal -0 0 1
    outer loop
      vertex 1.66294 -1.11114 5.8
      vertex 3.94948 -2.63896 5.8
      vertex 1.76384 -0.942793 5.8
    endloop
  endfacet
  facet normal 0 0 1
    outer loop
      vertex 3.94948 -2.63896 5.8
      vertex 1.66294 -1.11114 5.8
      vertex 3.6718 -3.01337 5.8
    endloop
  endfacet
  facet normal -0 0 1
    outer loop
      vertex 1.54602 -1.26879 5.8
      vertex 3.6718 -3.01337 5.8
      vertex 1.66294 -1.11114 5.8
    endloop
  endfacet
  facet normal 0 0 1
    outer loop
      vertex 3.6718 -3.01337 5.8
      vertex 1.54602 -1.26879 5.8
      vertex 3.35876 -3.35876 5.8
    endloop
  endfacet
  facet normal -0 0 1
    outer loop
      vertex 1.41421 -1.41421 5.8
      vertex 3.35876 -3.35876 5.8
      vertex 1.54602 -1.26879 5.8
    endloop
  endfacet
  facet normal 0 0 1
    outer loop
      vertex 3.35876 -3.35876 5.8
      vertex 1.41421 -1.41421 5.8
      vertex 3.01337 -3.6718 5.8
    endloop
  endfacet
  facet normal -0 0 1
    outer loop
      vertex 1.26879 -1.54602 5.8
      vertex 3.01337 -3.6718 5.8
      vertex 1.41421 -1.41421 5.8
    endloop
  endfacet
  facet normal 0 0 1
    outer loop
      vertex 3.01337 -3.6718 5.8
      vertex 1.26879 -1.54602 5.8
      vertex 2.63896 -3.94948 5.8
    endloop
  endfacet
  facet normal -0 0 1
    outer loop
      vertex 1.11114 -1.66294 5.8
      vertex 2.63896 -3.94948 5.8
      vertex 1.26879 -1.54602 5.8
    endloop
  endfacet
  facet normal 0 0 1
    outer loop
      vertex 2.63896 -3.94948 5.8
      vertex 1.11114 -1.66294 5.8
      vertex 2.23913 -4.18913 5.8
    endloop
  endfacet
  facet normal -0 0 1
    outer loop
      vertex 0.942793 -1.76384 5.8
      vertex 2.23913 -4.18913 5.8
      vertex 1.11114 -1.66294 5.8
    endloop
  endfacet
  facet normal 0 0 1
    outer loop
      vertex 2.23913 -4.18913 5.8
      vertex 0.942793 -1.76384 5.8
      vertex 1.81775 -4.38843 5.8
    endloop
  endfacet
  facet normal -0 0 1
    outer loop
      vertex 0.765367 -1.84776 5.8
      vertex 1.81775 -4.38843 5.8
      vertex 0.942793 -1.76384 5.8
    endloop
  endfacet
  facet normal 0 0 1
    outer loop
      vertex 1.81775 -4.38843 5.8
      vertex 0.765367 -1.84776 5.8
      vertex 1.37885 -4.54547 5.8
    endloop
  endfacet
  facet normal -0 0 1
    outer loop
      vertex 0.580569 -1.91388 5.8
      vertex 1.37885 -4.54547 5.8
      vertex 0.765367 -1.84776 5.8
    endloop
  endfacet
  facet normal 0 0 1
    outer loop
      vertex 1.37885 -4.54547 5.8
      vertex 0.580569 -1.91388 5.8
      vertex 0.926679 -4.65873 5.8
    endloop
  endfacet
  facet normal -0 0 1
    outer loop
      vertex 0.390181 -1.96157 5.8
      vertex 0.926679 -4.65873 5.8
      vertex 0.580569 -1.91388 5.8
    endloop
  endfacet
  facet normal 0 0 1
    outer loop
      vertex 0.926679 -4.65873 5.8
      vertex 0.390181 -1.96157 5.8
      vertex 0.465581 -4.72713 5.8
    endloop
  endfacet
  facet normal -0 0 1
    outer loop
      vertex 0.196033 -1.99037 5.8
      vertex 0.465581 -4.72713 5.8
      vertex 0.390181 -1.96157 5.8
    endloop
  endfacet
  facet normal -0 0 1
    outer loop
      vertex 0 -2 5.8
      vertex 0.465581 -4.72713 5.8
      vertex 0.196033 -1.99037 5.8
    endloop
  endfacet
  facet normal 0 0 1
    outer loop
      vertex 0 -2 5.8
      vertex 0 -4.75 5.8
      vertex 0.465581 -4.72713 5.8
    endloop
  endfacet
  facet normal 0 0 1
    outer loop
      vertex -0.196033 -1.99037 5.8
      vertex 0 -4.75 5.8
      vertex 0 -2 5.8
    endloop
  endfacet
  facet normal 0 0 1
    outer loop
      vertex -0.465581 -4.72713 5.8
      vertex -0.196033 -1.99037 5.8
      vertex -0.390181 -1.96157 5.8
    endloop
  endfacet
  facet normal 0 0 1
    outer loop
      vertex -0.196033 -1.99037 5.8
      vertex -0.465581 -4.72713 5.8
      vertex 0 -4.75 5.8
    endloop
  endfacet
  facet normal 0 0 1
    outer loop
      vertex -0.926679 -4.65873 5.8
      vertex -0.390181 -1.96157 5.8
      vertex -0.580569 -1.91388 5.8
    endloop
  endfacet
  facet normal 0 0 1
    outer loop
      vertex -1.37885 -4.54547 5.8
      vertex -0.580569 -1.91388 5.8
      vertex -0.765367 -1.84776 5.8
    endloop
  endfacet
  facet normal 0 0 1
    outer loop
      vertex -0.390181 -1.96157 5.8
      vertex -0.926679 -4.65873 5.8
      vertex -0.465581 -4.72713 5.8
    endloop
  endfacet
  facet normal 0 0 1
    outer loop
      vertex -1.81775 -4.38843 5.8
      vertex -0.765367 -1.84776 5.8
      vertex -0.942793 -1.76384 5.8
    endloop
  endfacet
  facet normal 0 0 1
    outer loop
      vertex -2.23913 -4.18913 5.8
      vertex -0.942793 -1.76384 5.8
      vertex -1.11114 -1.66294 5.8
    endloop
  endfacet
  facet normal 0 0 1
    outer loop
      vertex -2.63896 -3.94948 5.8
      vertex -1.11114 -1.66294 5.8
      vertex -1.26879 -1.54602 5.8
    endloop
  endfacet
  facet normal 0 0 1
    outer loop
      vertex -0.580569 -1.91388 5.8
      vertex -1.37885 -4.54547 5.8
      vertex -0.926679 -4.65873 5.8
    endloop
  endfacet
  facet normal 0 0 1
    outer loop
      vertex -3.01337 -3.6718 5.8
      vertex -1.26879 -1.54602 5.8
      vertex -1.41421 -1.41421 5.8
    endloop
  endfacet
  facet normal 0 0 1
    outer loop
      vertex -3.35876 -3.35876 5.8
      vertex -1.41421 -1.41421 5.8
      vertex -1.54602 -1.26879 5.8
    endloop
  endfacet
  facet normal 0 0 1
    outer loop
      vertex -3.6718 -3.01337 5.8
      vertex -1.54602 -1.26879 5.8
      vertex -1.66294 -1.11114 5.8
    endloop
  endfacet
  facet normal 0 0 1
    outer loop
      vertex -3.94948 -2.63896 5.8
      vertex -1.66294 -1.11114 5.8
      vertex -1.76384 -0.942793 5.8
    endloop
  endfacet
  facet normal 0 0 1
    outer loop
      vertex -0.765367 -1.84776 5.8
      vertex -1.81775 -4.38843 5.8
      vertex -1.37885 -4.54547 5.8
    endloop
  endfacet
  facet normal 0 0 1
    outer loop
      vertex -4.18913 -2.23913 5.8
      vertex -1.76384 -0.942793 5.8
      vertex -1.84776 -0.765367 5.8
    endloop
  endfacet
  facet normal 0 0 1
    outer loop
      vertex -4.38843 -1.81775 5.8
      vertex -1.84776 -0.765367 5.8
      vertex -1.91388 -0.580569 5.8
    endloop
  endfacet
  facet normal 0 0 1
    outer loop
      vertex -4.54547 -1.37885 5.8
      vertex -1.91388 -0.580569 5.8
      vertex -1.96157 -0.390181 5.8
    endloop
  endfacet
  facet normal 0 0 1
    outer loop
      vertex -4.65873 -0.926679 5.8
      vertex -1.96157 -0.390181 5.8
      vertex -1.99037 -0.196033 5.8
    endloop
  endfacet
  facet normal 0 0 1
    outer loop
      vertex -4.72713 -0.465581 5.8
      vertex -1.99037 -0.196033 5.8
      vertex -2 0 5.8
    endloop
  endfacet
  facet normal -0 0 1
    outer loop
      vertex -4.18913 2.23913 5.8
      vertex -1.76384 0.942793 5.8
      vertex -3.94948 2.63896 5.8
    endloop
  endfacet
  facet normal 0 0 1
    outer loop
      vertex -0.942793 -1.76384 5.8
      vertex -2.23913 -4.18913 5.8
      vertex -1.81775 -4.38843 5.8
    endloop
  endfacet
  facet normal 0 0 1
    outer loop
      vertex -1.76384 0.942793 5.8
      vertex -4.18913 2.23913 5.8
      vertex -1.84776 0.765367 5.8
    endloop
  endfacet
  facet normal 0 0 1
    outer loop
      vertex -1.11114 -1.66294 5.8
      vertex -2.63896 -3.94948 5.8
      vertex -2.23913 -4.18913 5.8
    endloop
  endfacet
  facet normal -0 0 1
    outer loop
      vertex -4.38843 1.81775 5.8
      vertex -1.84776 0.765367 5.8
      vertex -4.18913 2.23913 5.8
    endloop
  endfacet
  facet normal 0 0 1
    outer loop
      vertex -1.26879 -1.54602 5.8
      vertex -3.01337 -3.6718 5.8
      vertex -2.63896 -3.94948 5.8
    endloop
  endfacet
  facet normal 0 0 1
    outer loop
      vertex -1.84776 0.765367 5.8
      vertex -4.38843 1.81775 5.8
      vertex -1.91388 0.580569 5.8
    endloop
  endfacet
  facet normal 0 0 1
    outer loop
      vertex -1.41421 -1.41421 5.8
      vertex -3.35876 -3.35876 5.8
      vertex -3.01337 -3.6718 5.8
    endloop
  endfacet
  facet normal -0 0 1
    outer loop
      vertex -4.54547 1.37885 5.8
      vertex -1.91388 0.580569 5.8
      vertex -4.38843 1.81775 5.8
    endloop
  endfacet
  facet normal 0 0 1
    outer loop
      vertex -1.54602 -1.26879 5.8
      vertex -3.6718 -3.01337 5.8
      vertex -3.35876 -3.35876 5.8
    endloop
  endfacet
  facet normal 0 0 1
    outer loop
      vertex -1.91388 0.580569 5.8
      vertex -4.54547 1.37885 5.8
      vertex -1.96157 0.390181 5.8
    endloop
  endfacet
  facet normal 0 0 1
    outer loop
      vertex -1.66294 -1.11114 5.8
      vertex -3.94948 -2.63896 5.8
      vertex -3.6718 -3.01337 5.8
    endloop
  endfacet
  facet normal -0 0 1
    outer loop
      vertex -4.65873 0.926679 5.8
      vertex -1.96157 0.390181 5.8
      vertex -4.54547 1.37885 5.8
    endloop
  endfacet
  facet normal 0 0 1
    outer loop
      vertex -1.76384 -0.942793 5.8
      vertex -4.18913 -2.23913 5.8
      vertex -3.94948 -2.63896 5.8
    endloop
  endfacet
  facet normal 0 0 1
    outer loop
      vertex -1.96157 0.390181 5.8
      vertex -4.65873 0.926679 5.8
      vertex -1.99037 0.196033 5.8
    endloop
  endfacet
  facet normal 0 0 1
    outer loop
      vertex -1.84776 -0.765367 5.8
      vertex -4.38843 -1.81775 5.8
      vertex -4.18913 -2.23913 5.8
    endloop
  endfacet
  facet normal -0 0 1
    outer loop
      vertex -4.72713 0.465581 5.8
      vertex -1.99037 0.196033 5.8
      vertex -4.65873 0.926679 5.8
    endloop
  endfacet
  facet normal 0 0 1
    outer loop
      vertex -1.91388 -0.580569 5.8
      vertex -4.54547 -1.37885 5.8
      vertex -4.38843 -1.81775 5.8
    endloop
  endfacet
  facet normal 0 0 1
    outer loop
      vertex -1.99037 0.196033 5.8
      vertex -4.72713 0.465581 5.8
      vertex -2 0 5.8
    endloop
  endfacet
  facet normal 0 0 1
    outer loop
      vertex -1.96157 -0.390181 5.8
      vertex -4.65873 -0.926679 5.8
      vertex -4.54547 -1.37885 5.8
    endloop
  endfacet
  facet normal 0 0 1
    outer loop
      vertex -4.75 0 5.8
      vertex -2 0 5.8
      vertex -4.72713 0.465581 5.8
    endloop
  endfacet
  facet normal 0 0 1
    outer loop
      vertex -1.99037 -0.196033 5.8
      vertex -4.72713 -0.465581 5.8
      vertex -4.65873 -0.926679 5.8
    endloop
  endfacet
  facet normal 0 0 1
    outer loop
      vertex -2 0 5.8
      vertex -4.75 0 5.8
      vertex -4.72713 -0.465581 5.8
    endloop
  endfacet
  facet normal -0.941545 0.336888 0
    outer loop
      vertex -4.54547 1.37885 0
      vertex -4.38843 1.81775 5.8
      vertex -4.38843 1.81775 0
    endloop
  endfacet
  facet normal -0.941545 0.336888 0
    outer loop
      vertex -4.38843 1.81775 5.8
      vertex -4.54547 1.37885 0
      vertex -4.54547 1.37885 5.8
    endloop
  endfacet
  facet normal -0.857728 0.514105 0
    outer loop
      vertex -4.18913 2.23913 0
      vertex -3.94948 2.63896 5.8
      vertex -3.94948 2.63896 0
    endloop
  endfacet
  facet normal -0.857728 0.514105 0
    outer loop
      vertex -3.94948 2.63896 5.8
      vertex -4.18913 2.23913 0
      vertex -4.18913 2.23913 5.8
    endloop
  endfacet
  facet normal 0.970033 -0.242974 0
    outer loop
      vertex 4.54547 -1.37885 5.8
      vertex 4.65873 -0.926679 0
      vertex 4.65873 -0.926679 5.8
    endloop
  endfacet
  facet normal 0.970033 -0.242974 0
    outer loop
      vertex 4.65873 -0.926679 0
      vertex 4.54547 -1.37885 5.8
      vertex 4.54547 -1.37885 0
    endloop
  endfacet
  facet normal 0.998796 -0.0490623 0
    outer loop
      vertex 4.72713 -0.465581 5.8
      vertex 4.75 0 0
      vertex 4.75 0 5.8
    endloop
  endfacet
  facet normal 0.998796 -0.0490623 0
    outer loop
      vertex 4.75 0 0
      vertex 4.72713 -0.465581 5.8
      vertex 4.72713 -0.465581 0
    endloop
  endfacet
  facet normal 0.336888 -0.941545 0
    outer loop
      vertex 1.37885 -4.54547 0
      vertex 1.81775 -4.38843 5.8
      vertex 1.37885 -4.54547 5.8
    endloop
  endfacet
  facet normal 0.336888 -0.941545 0
    outer loop
      vertex 1.81775 -4.38843 5.8
      vertex 1.37885 -4.54547 0
      vertex 1.81775 -4.38843 0
    endloop
  endfacet
  facet normal 0.514105 -0.857728 0
    outer loop
      vertex 2.23913 -4.18913 0
      vertex 2.63896 -3.94948 5.8
      vertex 2.23913 -4.18913 5.8
    endloop
  endfacet
  facet normal 0.514105 -0.857728 0
    outer loop
      vertex 2.63896 -3.94948 5.8
      vertex 2.23913 -4.18913 0
      vertex 2.63896 -3.94948 0
    endloop
  endfacet
  facet normal -0.242974 -0.970033 0
    outer loop
      vertex -1.37885 -4.54547 0
      vertex -0.926679 -4.65873 5.8
      vertex -1.37885 -4.54547 5.8
    endloop
  endfacet
  facet normal -0.242974 -0.970033 -0
    outer loop
      vertex -0.926679 -4.65873 5.8
      vertex -1.37885 -4.54547 0
      vertex -0.926679 -4.65873 0
    endloop
  endfacet
  facet normal -0.595697 -0.803209 0
    outer loop
      vertex -3.01337 -3.6718 0
      vertex -2.63896 -3.94948 5.8
      vertex -3.01337 -3.6718 5.8
    endloop
  endfacet
  facet normal -0.595697 -0.803209 -0
    outer loop
      vertex -2.63896 -3.94948 5.8
      vertex -3.01337 -3.6718 0
      vertex -2.63896 -3.94948 0
    endloop
  endfacet
  facet normal -0.989176 -0.146736 0
    outer loop
      vertex -4.65873 -0.926679 0
      vertex -4.72713 -0.465581 5.8
      vertex -4.72713 -0.465581 0
    endloop
  endfacet
  facet normal -0.989176 -0.146736 0
    outer loop
      vertex -4.72713 -0.465581 5.8
      vertex -4.65873 -0.926679 0
      vertex -4.65873 -0.926679 5.8
    endloop
  endfacet
  facet normal -0.941545 -0.336888 0
    outer loop
      vertex -4.38843 -1.81775 0
      vertex -4.54547 -1.37885 5.8
      vertex -4.54547 -1.37885 0
    endloop
  endfacet
  facet normal -0.941545 -0.336888 0
    outer loop
      vertex -4.54547 -1.37885 5.8
      vertex -4.38843 -1.81775 0
      vertex -4.38843 -1.81775 5.8
    endloop
  endfacet
  facet normal -0.857728 -0.514105 0
    outer loop
      vertex -3.94948 -2.63896 0
      vertex -4.18913 -2.23913 5.8
      vertex -4.18913 -2.23913 0
    endloop
  endfacet
  facet normal -0.857728 -0.514105 0
    outer loop
      vertex -4.18913 -2.23913 5.8
      vertex -3.94948 -2.63896 0
      vertex -3.94948 -2.63896 5.8
    endloop
  endfacet
  facet normal 0.989176 -0.146736 0
    outer loop
      vertex 4.65873 -0.926679 5.8
      vertex 4.72713 -0.465581 0
      vertex 4.72713 -0.465581 5.8
    endloop
  endfacet
  facet normal 0.989176 -0.146736 0
    outer loop
      vertex 4.72713 -0.465581 0
      vertex 4.65873 -0.926679 5.8
      vertex 4.65873 -0.926679 0
    endloop
  endfacet
  facet normal -0.595695 -0.80321 0
    outer loop
      vertex 1.11114 1.66294 0
      vertex 1.26879 1.54602 5.8
      vertex 1.11114 1.66294 5.8
    endloop
  endfacet
  facet normal -0.595695 -0.80321 -0
    outer loop
      vertex 1.26879 1.54602 5.8
      vertex 1.11114 1.66294 0
      vertex 1.26879 1.54602 0
    endloop
  endfacet
  facet normal 0.336882 -0.941547 0
    outer loop
      vertex -0.765367 1.84776 0
      vertex -0.580569 1.91388 5.8
      vertex -0.765367 1.84776 5.8
    endloop
  endfacet
  facet normal 0.336882 -0.941547 0
    outer loop
      vertex -0.580569 1.91388 5.8
      vertex -0.765367 1.84776 0
      vertex -0.580569 1.91388 0
    endloop
  endfacet
  facet normal 0.903982 -0.427571 0
    outer loop
      vertex -1.84776 0.765367 5.8
      vertex -1.76384 0.942793 0
      vertex -1.76384 0.942793 5.8
    endloop
  endfacet
  facet normal 0.903982 -0.427571 0
    outer loop
      vertex -1.76384 0.942793 0
      vertex -1.84776 0.765367 5.8
      vertex -1.84776 0.765367 0
    endloop
  endfacet
  facet normal -0.941547 0.336882 0
    outer loop
      vertex 1.84776 -0.765367 0
      vertex 1.91388 -0.580569 5.8
      vertex 1.91388 -0.580569 0
    endloop
  endfacet
  facet normal -0.941547 0.336882 0
    outer loop
      vertex 1.91388 -0.580569 5.8
      vertex 1.84776 -0.765367 0
      vertex 1.84776 -0.765367 5.8
    endloop
  endfacet
  facet normal -0.903982 -0.427571 0
    outer loop
      vertex 1.84776 0.765367 0
      vertex 1.76384 0.942793 5.8
      vertex 1.76384 0.942793 0
    endloop
  endfacet
  facet normal -0.903982 -0.427571 0
    outer loop
      vertex 1.76384 0.942793 5.8
      vertex 1.84776 0.765367 0
      vertex 1.84776 0.765367 5.8
    endloop
  endfacet
  facet normal -0.857736 -0.51409 0
    outer loop
      vertex 1.76384 0.942793 0
      vertex 1.66294 1.11114 5.8
      vertex 1.66294 1.11114 0
    endloop
  endfacet
  facet normal -0.857736 -0.51409 0
    outer loop
      vertex 1.66294 1.11114 5.8
      vertex 1.76384 0.942793 0
      vertex 1.76384 0.942793 5.8
    endloop
  endfacet
  facet normal -0.336882 -0.941547 0
    outer loop
      vertex 0.580569 1.91388 0
      vertex 0.765367 1.84776 5.8
      vertex 0.580569 1.91388 5.8
    endloop
  endfacet
  facet normal -0.336882 -0.941547 -0
    outer loop
      vertex 0.765367 1.84776 5.8
      vertex 0.580569 1.91388 0
      vertex 0.765367 1.84776 0
    endloop
  endfacet
  facet normal -0.242982 -0.970031 0
    outer loop
      vertex 0.390181 1.96157 0
      vertex 0.580569 1.91388 5.8
      vertex 0.390181 1.96157 5.8
    endloop
  endfacet
  facet normal -0.242982 -0.970031 -0
    outer loop
      vertex 0.580569 1.91388 5.8
      vertex 0.390181 1.96157 0
      vertex 0.580569 1.91388 0
    endloop
  endfacet
  facet normal 0.740928 -0.671584 0
    outer loop
      vertex -1.54602 1.26879 5.8
      vertex -1.41421 1.41421 0
      vertex -1.41421 1.41421 5.8
    endloop
  endfacet
  facet normal 0.740928 -0.671584 0
    outer loop
      vertex -1.41421 1.41421 0
      vertex -1.54602 1.26879 5.8
      vertex -1.54602 1.26879 0
    endloop
  endfacet
  facet normal 0.146735 -0.989176 0
    outer loop
      vertex -0.390181 1.96157 0
      vertex -0.196033 1.99037 5.8
      vertex -0.390181 1.96157 5.8
    endloop
  endfacet
  facet normal 0.146735 -0.989176 0
    outer loop
      vertex -0.196033 1.99037 5.8
      vertex -0.390181 1.96157 0
      vertex -0.196033 1.99037 0
    endloop
  endfacet
  facet normal -0.998796 0.0490652 0
    outer loop
      vertex 1.99037 -0.196033 0
      vertex 2 0 5.8
      vertex 2 0 0
    endloop
  endfacet
  facet normal -0.998796 0.0490652 0
    outer loop
      vertex 2 0 5.8
      vertex 1.99037 -0.196033 0
      vertex 1.99037 -0.196033 5.8
    endloop
  endfacet
  facet normal -0.80321 0.595695 0
    outer loop
      vertex 1.54602 -1.26879 0
      vertex 1.66294 -1.11114 5.8
      vertex 1.66294 -1.11114 0
    endloop
  endfacet
  facet normal -0.80321 0.595695 0
    outer loop
      vertex 1.66294 -1.11114 5.8
      vertex 1.54602 -1.26879 0
      vertex 1.54602 -1.26879 5.8
    endloop
  endfacet
  facet normal 0.146735 0.989176 -0
    outer loop
      vertex -0.196033 -1.99037 0
      vertex -0.390181 -1.96157 5.8
      vertex -0.196033 -1.99037 5.8
    endloop
  endfacet
  facet normal 0.146735 0.989176 0
    outer loop
      vertex -0.390181 -1.96157 5.8
      vertex -0.196033 -1.99037 0
      vertex -0.390181 -1.96157 0
    endloop
  endfacet
  facet normal 0.671584 0.740928 -0
    outer loop
      vertex -1.26879 -1.54602 0
      vertex -1.41421 -1.41421 5.8
      vertex -1.26879 -1.54602 5.8
    endloop
  endfacet
  facet normal 0.671584 0.740928 0
    outer loop
      vertex -1.41421 -1.41421 5.8
      vertex -1.26879 -1.54602 0
      vertex -1.41421 -1.41421 0
    endloop
  endfacet
  facet normal -0.970031 -0.242982 0
    outer loop
      vertex 1.96157 0.390181 0
      vertex 1.91388 0.580569 5.8
      vertex 1.91388 0.580569 0
    endloop
  endfacet
  facet normal -0.970031 -0.242982 0
    outer loop
      vertex 1.91388 0.580569 5.8
      vertex 1.96157 0.390181 0
      vertex 1.96157 0.390181 5.8
    endloop
  endfacet
  facet normal -0.941547 -0.336882 0
    outer loop
      vertex 1.91388 0.580569 0
      vertex 1.84776 0.765367 5.8
      vertex 1.84776 0.765367 0
    endloop
  endfacet
  facet normal -0.941547 -0.336882 0
    outer loop
      vertex 1.84776 0.765367 5.8
      vertex 1.91388 0.580569 0
      vertex 1.91388 0.580569 5.8
    endloop
  endfacet
  facet normal -0.740928 -0.671584 0
    outer loop
      vertex 1.54602 1.26879 0
      vertex 1.41421 1.41421 5.8
      vertex 1.41421 1.41421 0
    endloop
  endfacet
  facet normal -0.740928 -0.671584 0
    outer loop
      vertex 1.41421 1.41421 5.8
      vertex 1.54602 1.26879 0
      vertex 1.54602 1.26879 5.8
    endloop
  endfacet
  facet normal -0.80321 -0.595695 0
    outer loop
      vertex 1.66294 1.11114 0
      vertex 1.54602 1.26879 5.8
      vertex 1.54602 1.26879 0
    endloop
  endfacet
  facet normal -0.80321 -0.595695 0
    outer loop
      vertex 1.54602 1.26879 5.8
      vertex 1.66294 1.11114 0
      vertex 1.66294 1.11114 5.8
    endloop
  endfacet
  facet normal -0.671584 -0.740928 0
    outer loop
      vertex 1.26879 1.54602 0
      vertex 1.41421 1.41421 5.8
      vertex 1.26879 1.54602 5.8
    endloop
  endfacet
  facet normal -0.671584 -0.740928 -0
    outer loop
      vertex 1.41421 1.41421 5.8
      vertex 1.26879 1.54602 0
      vertex 1.41421 1.41421 0
    endloop
  endfacet
  facet normal -0.51409 -0.857736 0
    outer loop
      vertex 0.942793 1.76384 0
      vertex 1.11114 1.66294 5.8
      vertex 0.942793 1.76384 5.8
    endloop
  endfacet
  facet normal -0.51409 -0.857736 -0
    outer loop
      vertex 1.11114 1.66294 5.8
      vertex 0.942793 1.76384 0
      vertex 1.11114 1.66294 0
    endloop
  endfacet
  facet normal -0.0490652 -0.998796 0
    outer loop
      vertex 0 2 0
      vertex 0.196033 1.99037 5.8
      vertex 0 2 5.8
    endloop
  endfacet
  facet normal -0.0490652 -0.998796 -0
    outer loop
      vertex 0.196033 1.99037 5.8
      vertex 0 2 0
      vertex 0.196033 1.99037 0
    endloop
  endfacet
  facet normal -0.427571 -0.903982 0
    outer loop
      vertex 0.765367 1.84776 0
      vertex 0.942793 1.76384 5.8
      vertex 0.765367 1.84776 5.8
    endloop
  endfacet
  facet normal -0.427571 -0.903982 -0
    outer loop
      vertex 0.942793 1.76384 5.8
      vertex 0.765367 1.84776 0
      vertex 0.942793 1.76384 0
    endloop
  endfacet
  facet normal 0.998796 -0.0490652 0
    outer loop
      vertex -2 0 5.8
      vertex -1.99037 0.196033 0
      vertex -1.99037 0.196033 5.8
    endloop
  endfacet
  facet normal 0.998796 -0.0490652 0
    outer loop
      vertex -1.99037 0.196033 0
      vertex -2 0 5.8
      vertex -2 0 0
    endloop
  endfacet
  facet normal 0.941547 -0.336882 0
    outer loop
      vertex -1.91388 0.580569 5.8
      vertex -1.84776 0.765367 0
      vertex -1.84776 0.765367 5.8
    endloop
  endfacet
  facet normal 0.941547 -0.336882 0
    outer loop
      vertex -1.84776 0.765367 0
      vertex -1.91388 0.580569 5.8
      vertex -1.91388 0.580569 0
    endloop
  endfacet
  facet normal 0.970031 -0.242982 0
    outer loop
      vertex -1.96157 0.390181 5.8
      vertex -1.91388 0.580569 0
      vertex -1.91388 0.580569 5.8
    endloop
  endfacet
  facet normal 0.970031 -0.242982 0
    outer loop
      vertex -1.91388 0.580569 0
      vertex -1.96157 0.390181 5.8
      vertex -1.96157 0.390181 0
    endloop
  endfacet
  facet normal 0.857736 -0.51409 0
    outer loop
      vertex -1.76384 0.942793 5.8
      vertex -1.66294 1.11114 0
      vertex -1.66294 1.11114 5.8
    endloop
  endfacet
  facet normal 0.857736 -0.51409 0
    outer loop
      vertex -1.66294 1.11114 0
      vertex -1.76384 0.942793 5.8
      vertex -1.76384 0.942793 0
    endloop
  endfacet
  facet normal 0.80321 -0.595695 0
    outer loop
      vertex -1.66294 1.11114 5.8
      vertex -1.54602 1.26879 0
      vertex -1.54602 1.26879 5.8
    endloop
  endfacet
  facet normal 0.80321 -0.595695 0
    outer loop
      vertex -1.54602 1.26879 0
      vertex -1.66294 1.11114 5.8
      vertex -1.66294 1.11114 0
    endloop
  endfacet
  facet normal 0.242982 -0.970031 0
    outer loop
      vertex -0.580569 1.91388 0
      vertex -0.390181 1.96157 5.8
      vertex -0.580569 1.91388 5.8
    endloop
  endfacet
  facet normal 0.242982 -0.970031 0
    outer loop
      vertex -0.390181 1.96157 5.8
      vertex -0.580569 1.91388 0
      vertex -0.390181 1.96157 0
    endloop
  endfacet
  facet normal 0.0490652 -0.998796 0
    outer loop
      vertex -0.196033 1.99037 0
      vertex 0 2 5.8
      vertex -0.196033 1.99037 5.8
    endloop
  endfacet
  facet normal 0.0490652 -0.998796 0
    outer loop
      vertex 0 2 5.8
      vertex -0.196033 1.99037 0
      vertex 0 2 0
    endloop
  endfacet
  facet normal 0.51409 -0.857736 0
    outer loop
      vertex -1.11114 1.66294 0
      vertex -0.942793 1.76384 5.8
      vertex -1.11114 1.66294 5.8
    endloop
  endfacet
  facet normal 0.51409 -0.857736 0
    outer loop
      vertex -0.942793 1.76384 5.8
      vertex -1.11114 1.66294 0
      vertex -0.942793 1.76384 0
    endloop
  endfacet
  facet normal 0.595695 -0.80321 0
    outer loop
      vertex -1.26879 1.54602 0
      vertex -1.11114 1.66294 5.8
      vertex -1.26879 1.54602 5.8
    endloop
  endfacet
  facet normal 0.595695 -0.80321 0
    outer loop
      vertex -1.11114 1.66294 5.8
      vertex -1.26879 1.54602 0
      vertex -1.11114 1.66294 0
    endloop
  endfacet
  facet normal 0.427571 -0.903982 0
    outer loop
      vertex -0.942793 1.76384 0
      vertex -0.765367 1.84776 5.8
      vertex -0.942793 1.76384 5.8
    endloop
  endfacet
  facet normal 0.427571 -0.903982 0
    outer loop
      vertex -0.765367 1.84776 5.8
      vertex -0.942793 1.76384 0
      vertex -0.765367 1.84776 0
    endloop
  endfacet
  facet normal 0.671584 -0.740928 0
    outer loop
      vertex -1.41421 1.41421 0
      vertex -1.26879 1.54602 5.8
      vertex -1.41421 1.41421 5.8
    endloop
  endfacet
  facet normal 0.671584 -0.740928 0
    outer loop
      vertex -1.26879 1.54602 5.8
      vertex -1.41421 1.41421 0
      vertex -1.26879 1.54602 0
    endloop
  endfacet
  facet normal -0.998796 -0.0490652 0
    outer loop
      vertex 2 0 0
      vertex 1.99037 0.196033 5.8
      vertex 1.99037 0.196033 0
    endloop
  endfacet
  facet normal -0.998796 -0.0490652 0
    outer loop
      vertex 1.99037 0.196033 5.8
      vertex 2 0 0
      vertex 2 0 5.8
    endloop
  endfacet
  facet normal -0.0490652 0.998796 0
    outer loop
      vertex 0.196033 -1.99037 0
      vertex 0 -2 5.8
      vertex 0.196033 -1.99037 5.8
    endloop
  endfacet
  facet normal -0.0490652 0.998796 0
    outer loop
      vertex 0 -2 5.8
      vertex 0.196033 -1.99037 0
      vertex 0 -2 0
    endloop
  endfacet
  facet normal -0.146735 0.989176 0
    outer loop
      vertex 0.390181 -1.96157 0
      vertex 0.196033 -1.99037 5.8
      vertex 0.390181 -1.96157 5.8
    endloop
  endfacet
  facet normal -0.146735 0.989176 0
    outer loop
      vertex 0.196033 -1.99037 5.8
      vertex 0.390181 -1.96157 0
      vertex 0.196033 -1.99037 0
    endloop
  endfacet
  facet normal -0.242982 0.970031 0
    outer loop
      vertex 0.580569 -1.91388 0
      vertex 0.390181 -1.96157 5.8
      vertex 0.580569 -1.91388 5.8
    endloop
  endfacet
  facet normal -0.242982 0.970031 0
    outer loop
      vertex 0.390181 -1.96157 5.8
      vertex 0.580569 -1.91388 0
      vertex 0.390181 -1.96157 0
    endloop
  endfacet
  facet normal -0.595695 0.80321 0
    outer loop
      vertex 1.26879 -1.54602 0
      vertex 1.11114 -1.66294 5.8
      vertex 1.26879 -1.54602 5.8
    endloop
  endfacet
  facet normal -0.595695 0.80321 0
    outer loop
      vertex 1.11114 -1.66294 5.8
      vertex 1.26879 -1.54602 0
      vertex 1.11114 -1.66294 0
    endloop
  endfacet
  facet normal -0.427571 0.903982 0
    outer loop
      vertex 0.942793 -1.76384 0
      vertex 0.765367 -1.84776 5.8
      vertex 0.942793 -1.76384 5.8
    endloop
  endfacet
  facet normal -0.427571 0.903982 0
    outer loop
      vertex 0.765367 -1.84776 5.8
      vertex 0.942793 -1.76384 0
      vertex 0.765367 -1.84776 0
    endloop
  endfacet
  facet normal -0.903982 0.427571 0
    outer loop
      vertex 1.76384 -0.942793 0
      vertex 1.84776 -0.765367 5.8
      vertex 1.84776 -0.765367 0
    endloop
  endfacet
  facet normal -0.903982 0.427571 0
    outer loop
      vertex 1.84776 -0.765367 5.8
      vertex 1.76384 -0.942793 0
      vertex 1.76384 -0.942793 5.8
    endloop
  endfacet
  facet normal 0.0490652 0.998796 -0
    outer loop
      vertex 0 -2 0
      vertex -0.196033 -1.99037 5.8
      vertex 0 -2 5.8
    endloop
  endfacet
  facet normal 0.0490652 0.998796 0
    outer loop
      vertex -0.196033 -1.99037 5.8
      vertex 0 -2 0
      vertex -0.196033 -1.99037 0
    endloop
  endfacet
  facet normal 0.336882 0.941547 -0
    outer loop
      vertex -0.580569 -1.91388 0
      vertex -0.765367 -1.84776 5.8
      vertex -0.580569 -1.91388 5.8
    endloop
  endfacet
  facet normal 0.336882 0.941547 0
    outer loop
      vertex -0.765367 -1.84776 5.8
      vertex -0.580569 -1.91388 0
      vertex -0.765367 -1.84776 0
    endloop
  endfacet
  facet normal 0.51409 0.857736 -0
    outer loop
      vertex -0.942793 -1.76384 0
      vertex -1.11114 -1.66294 5.8
      vertex -0.942793 -1.76384 5.8
    endloop
  endfacet
  facet normal 0.51409 0.857736 0
    outer loop
      vertex -1.11114 -1.66294 5.8
      vertex -0.942793 -1.76384 0
      vertex -1.11114 -1.66294 0
    endloop
  endfacet
  facet normal 0.970031 0.242982 0
    outer loop
      vertex -1.91388 -0.580569 5.8
      vertex -1.96157 -0.390181 0
      vertex -1.96157 -0.390181 5.8
    endloop
  endfacet
  facet normal 0.970031 0.242982 0
    outer loop
      vertex -1.96157 -0.390181 0
      vertex -1.91388 -0.580569 5.8
      vertex -1.91388 -0.580569 0
    endloop
  endfacet
  facet normal 0.998796 0.0490652 0
    outer loop
      vertex -1.99037 -0.196033 5.8
      vertex -2 0 0
      vertex -2 0 5.8
    endloop
  endfacet
  facet normal 0.998796 0.0490652 0
    outer loop
      vertex -2 0 0
      vertex -1.99037 -0.196033 5.8
      vertex -1.99037 -0.196033 0
    endloop
  endfacet
  facet normal 0.80321 0.595695 0
    outer loop
      vertex -1.54602 -1.26879 5.8
      vertex -1.66294 -1.11114 0
      vertex -1.66294 -1.11114 5.8
    endloop
  endfacet
  facet normal 0.80321 0.595695 0
    outer loop
      vertex -1.66294 -1.11114 0
      vertex -1.54602 -1.26879 5.8
      vertex -1.54602 -1.26879 0
    endloop
  endfacet
  facet normal 0.903982 0.427571 0
    outer loop
      vertex -1.76384 -0.942793 5.8
      vertex -1.84776 -0.765367 0
      vertex -1.84776 -0.765367 5.8
    endloop
  endfacet
  facet normal 0.903982 0.427571 0
    outer loop
      vertex -1.84776 -0.765367 0
      vertex -1.76384 -0.942793 5.8
      vertex -1.76384 -0.942793 0
    endloop
  endfacet
  facet normal 0.740928 0.671584 0
    outer loop
      vertex -1.41421 -1.41421 5.8
      vertex -1.54602 -1.26879 0
      vertex -1.54602 -1.26879 5.8
    endloop
  endfacet
  facet normal 0.740928 0.671584 0
    outer loop
      vertex -1.54602 -1.26879 0
      vertex -1.41421 -1.41421 5.8
      vertex -1.41421 -1.41421 0
    endloop
  endfacet
  facet normal -0.989176 -0.146735 0
    outer loop
      vertex 1.99037 0.196033 0
      vertex 1.96157 0.390181 5.8
      vertex 1.96157 0.390181 0
    endloop
  endfacet
  facet normal -0.989176 -0.146735 0
    outer loop
      vertex 1.96157 0.390181 5.8
      vertex 1.99037 0.196033 0
      vertex 1.99037 0.196033 5.8
    endloop
  endfacet
  facet normal -0.146735 -0.989176 0
    outer loop
      vertex 0.196033 1.99037 0
      vertex 0.390181 1.96157 5.8
      vertex 0.196033 1.99037 5.8
    endloop
  endfacet
  facet normal -0.146735 -0.989176 -0
    outer loop
      vertex 0.390181 1.96157 5.8
      vertex 0.196033 1.99037 0
      vertex 0.390181 1.96157 0
    endloop
  endfacet
  facet normal 0.989176 -0.146735 0
    outer loop
      vertex -1.99037 0.196033 5.8
      vertex -1.96157 0.390181 0
      vertex -1.96157 0.390181 5.8
    endloop
  endfacet
  facet normal 0.989176 -0.146735 0
    outer loop
      vertex -1.96157 0.390181 0
      vertex -1.99037 0.196033 5.8
      vertex -1.99037 0.196033 0
    endloop
  endfacet
  facet normal -0.989176 0.146735 0
    outer loop
      vertex 1.96157 -0.390181 0
      vertex 1.99037 -0.196033 5.8
      vertex 1.99037 -0.196033 0
    endloop
  endfacet
  facet normal -0.989176 0.146735 0
    outer loop
      vertex 1.99037 -0.196033 5.8
      vertex 1.96157 -0.390181 0
      vertex 1.96157 -0.390181 5.8
    endloop
  endfacet
  facet normal -0.970031 0.242982 0
    outer loop
      vertex 1.91388 -0.580569 0
      vertex 1.96157 -0.390181 5.8
      vertex 1.96157 -0.390181 0
    endloop
  endfacet
  facet normal -0.970031 0.242982 0
    outer loop
      vertex 1.96157 -0.390181 5.8
      vertex 1.91388 -0.580569 0
      vertex 1.91388 -0.580569 5.8
    endloop
  endfacet
  facet normal -0.336882 0.941547 0
    outer loop
      vertex 0.765367 -1.84776 0
      vertex 0.580569 -1.91388 5.8
      vertex 0.765367 -1.84776 5.8
    endloop
  endfacet
  facet normal -0.336882 0.941547 0
    outer loop
      vertex 0.580569 -1.91388 5.8
      vertex 0.765367 -1.84776 0
      vertex 0.580569 -1.91388 0
    endloop
  endfacet
  facet normal -0.740928 0.671584 0
    outer loop
      vertex 1.41421 -1.41421 0
      vertex 1.54602 -1.26879 5.8
      vertex 1.54602 -1.26879 0
    endloop
  endfacet
  facet normal -0.740928 0.671584 0
    outer loop
      vertex 1.54602 -1.26879 5.8
      vertex 1.41421 -1.41421 0
      vertex 1.41421 -1.41421 5.8
    endloop
  endfacet
  facet normal -0.671584 0.740928 0
    outer loop
      vertex 1.41421 -1.41421 0
      vertex 1.26879 -1.54602 5.8
      vertex 1.41421 -1.41421 5.8
    endloop
  endfacet
  facet normal -0.671584 0.740928 0
    outer loop
      vertex 1.26879 -1.54602 5.8
      vertex 1.41421 -1.41421 0
      vertex 1.26879 -1.54602 0
    endloop
  endfacet
  facet normal -0.51409 0.857736 0
    outer loop
      vertex 1.11114 -1.66294 0
      vertex 0.942793 -1.76384 5.8
      vertex 1.11114 -1.66294 5.8
    endloop
  endfacet
  facet normal -0.51409 0.857736 0
    outer loop
      vertex 0.942793 -1.76384 5.8
      vertex 1.11114 -1.66294 0
      vertex 0.942793 -1.76384 0
    endloop
  endfacet
  facet normal -0.857736 0.51409 0
    outer loop
      vertex 1.66294 -1.11114 0
      vertex 1.76384 -0.942793 5.8
      vertex 1.76384 -0.942793 0
    endloop
  endfacet
  facet normal -0.857736 0.51409 0
    outer loop
      vertex 1.76384 -0.942793 5.8
      vertex 1.66294 -1.11114 0
      vertex 1.66294 -1.11114 5.8
    endloop
  endfacet
  facet normal 0.242982 0.970031 -0
    outer loop
      vertex -0.390181 -1.96157 0
      vertex -0.580569 -1.91388 5.8
      vertex -0.390181 -1.96157 5.8
    endloop
  endfacet
  facet normal 0.242982 0.970031 0
    outer loop
      vertex -0.580569 -1.91388 5.8
      vertex -0.390181 -1.96157 0
      vertex -0.580569 -1.91388 0
    endloop
  endfacet
  facet normal 0.427571 0.903982 -0
    outer loop
      vertex -0.765367 -1.84776 0
      vertex -0.942793 -1.76384 5.8
      vertex -0.765367 -1.84776 5.8
    endloop
  endfacet
  facet normal 0.427571 0.903982 0
    outer loop
      vertex -0.942793 -1.76384 5.8
      vertex -0.765367 -1.84776 0
      vertex -0.942793 -1.76384 0
    endloop
  endfacet
  facet normal 0.595695 0.80321 -0
    outer loop
      vertex -1.11114 -1.66294 0
      vertex -1.26879 -1.54602 5.8
      vertex -1.11114 -1.66294 5.8
    endloop
  endfacet
  facet normal 0.595695 0.80321 0
    outer loop
      vertex -1.26879 -1.54602 5.8
      vertex -1.11114 -1.66294 0
      vertex -1.26879 -1.54602 0
    endloop
  endfacet
  facet normal 0.941547 0.336882 0
    outer loop
      vertex -1.84776 -0.765367 5.8
      vertex -1.91388 -0.580569 0
      vertex -1.91388 -0.580569 5.8
    endloop
  endfacet
  facet normal 0.941547 0.336882 0
    outer loop
      vertex -1.91388 -0.580569 0
      vertex -1.84776 -0.765367 5.8
      vertex -1.84776 -0.765367 0
    endloop
  endfacet
  facet normal 0.989176 0.146735 0
    outer loop
      vertex -1.96157 -0.390181 5.8
      vertex -1.99037 -0.196033 0
      vertex -1.99037 -0.196033 5.8
    endloop
  endfacet
  facet normal 0.989176 0.146735 0
    outer loop
      vertex -1.99037 -0.196033 0
      vertex -1.96157 -0.390181 5.8
      vertex -1.96157 -0.390181 0
    endloop
  endfacet
  facet normal 0.857736 0.51409 0
    outer loop
      vertex -1.66294 -1.11114 5.8
      vertex -1.76384 -0.942793 0
      vertex -1.76384 -0.942793 5.8
    endloop
  endfacet
  facet normal 0.857736 0.51409 0
    outer loop
      vertex -1.76384 -0.942793 0
      vertex -1.66294 -1.11114 5.8
      vertex -1.66294 -1.11114 0
    endloop
  endfacet
endsolid OpenSCAD_Model
