solid OpenSCAD_Model
  facet normal -1 0 0
    outer loop
      vertex 1.5 2.5 1.5
      vertex 1.5 20 10
      vertex 1.5 20 1.5
    endloop
  endfacet
  facet normal -1 -0 0
    outer loop
      vertex 1.5 20 10
      vertex 1.5 2.5 1.5
      vertex 1.5 2.5 10
    endloop
  endfacet
  facet normal -0 0 1
    outer loop
      vertex 2.7 20 2.3
      vertex 20 2.7 2.3
      vertex 20 20 2.3
    endloop
  endfacet
  facet normal 0 0 1
    outer loop
      vertex 20 2.7 2.3
      vertex 2.7 20 2.3
      vertex 2.7 2.7 2.3
    endloop
  endfacet
  facet normal 1 0 0
    outer loop
      vertex 20 2.7 10
      vertex 20 1.5 10
      vertex 20 2.7 2.3
    endloop
  endfacet
  facet normal 1 0 0
    outer loop
      vertex 20 20 2.3
      vertex 20 19 1.5
      vertex 20 20 1.5
    endloop
  endfacet
  facet normal 1 -0 0
    outer loop
      vertex 20 2.7 2.3
      vertex 20 19 1.5
      vertex 20 20 2.3
    endloop
  endfacet
  facet normal 1 0 0
    outer loop
      vertex 20 2.7 2.3
      vertex 20 1.5 1.5
      vertex 20 19 1.5
    endloop
  endfacet
  facet normal 1 0 0
    outer loop
      vertex 20 1.5 1.5
      vertex 20 2.7 2.3
      vertex 20 1.5 10
    endloop
  endfacet
  facet normal 0 1 0
    outer loop
      vertex 19 20 1.5
      vertex 20 20 2.3
      vertex 20 20 1.5
    endloop
  endfacet
  facet normal 0 1 -0
    outer loop
      vertex 2.7 20 2.3
      vertex 1.5 20 10
      vertex 2.7 20 10
    endloop
  endfacet
  facet normal 0 1 0
    outer loop
      vertex 20 20 2.3
      vertex 19 20 1.5
      vertex 2.7 20 2.3
    endloop
  endfacet
  facet normal 0 1 0
    outer loop
      vertex 2.7 20 2.3
      vertex 1.5 20 1.5
      vertex 1.5 20 10
    endloop
  endfacet
  facet normal 0 1 0
    outer loop
      vertex 1.5 20 1.5
      vertex 2.7 20 2.3
      vertex 19 20 1.5
    endloop
  endfacet
  facet normal -0 0 -1
    outer loop
      vertex 19 20 1.5
      vertex 1.5 2.5 1.5
      vertex 1.5 20 1.5
    endloop
  endfacet
  facet normal 0 0 -1
    outer loop
      vertex 20 1.5 1.5
      vertex 2.5 1.5 1.5
      vertex 20 19 1.5
    endloop
  endfacet
  facet normal 0 0 1
    outer loop
      vertex 21 20 1.5
      vertex 20 20 1.5
      vertex 20 19 1.5
    endloop
  endfacet
  facet normal 0 -0 1
    outer loop
      vertex 20 20 1.5
      vertex 20 21 1.5
      vertex 19 20 1.5
    endloop
  endfacet
  facet normal 0 -1 0
    outer loop
      vertex 2.5 1.5 1.5
      vertex 20 1.5 10
      vertex 2.5 1.5 10
    endloop
  endfacet
  facet normal 0 -1 -0
    outer loop
      vertex 20 1.5 10
      vertex 2.5 1.5 1.5
      vertex 20 1.5 1.5
    endloop
  endfacet
  facet normal -0 0 1
    outer loop
      vertex 1.5 20 10
      vertex 2.7 2.7 10
      vertex 2.7 20 10
    endloop
  endfacet
  facet normal 0 0 1
    outer loop
      vertex 2.7 2.7 10
      vertex 1.5 20 10
      vertex 1.5 2.5 10
    endloop
  endfacet
  facet normal 0 0 1
    outer loop
      vertex 2.7 2.7 10
      vertex 1.5 2.5 10
      vertex 2.5 1.5 10
    endloop
  endfacet
  facet normal 0 0 1
    outer loop
      vertex 1.5 2.5 10
      vertex 1 0 10
      vertex 2.5 1.5 10
    endloop
  endfacet
  facet normal -0 0 1
    outer loop
      vertex 0 1 10
      vertex 1 0 10
      vertex 1.5 2.5 10
    endloop
  endfacet
  facet normal 0 0 1
    outer loop
      vertex 1 0 10
      vertex 0 1 10
      vertex 0 0 10
    endloop
  endfacet
  facet normal -0 0 1
    outer loop
      vertex 2.7 2.7 10
      vertex 20 1.5 10
      vertex 20 2.7 10
    endloop
  endfacet
  facet normal 0 0 1
    outer loop
      vertex 20 1.5 10
      vertex 2.7 2.7 10
      vertex 2.5 1.5 10
    endloop
  endfacet
  facet normal 0 1 -0
    outer loop
      vertex 20 2.7 2.3
      vertex 2.7 2.7 10
      vertex 20 2.7 10
    endloop
  endfacet
  facet normal 0 1 0
    outer loop
      vertex 2.7 2.7 10
      vertex 20 2.7 2.3
      vertex 2.7 2.7 2.3
    endloop
  endfacet
  facet normal 1 -0 0
    outer loop
      vertex 2.7 2.7 10
      vertex 2.7 20 2.3
      vertex 2.7 20 10
    endloop
  endfacet
  facet normal 1 0 0
    outer loop
      vertex 2.7 20 2.3
      vertex 2.7 2.7 10
      vertex 2.7 2.7 2.3
    endloop
  endfacet
  facet normal 0 0 -1
    outer loop
      vertex 1 0 0
      vertex 20 20 0
      vertex 21 20 0
    endloop
  endfacet
  facet normal 0 0 -1
    outer loop
      vertex 0 1 0
      vertex 20 20 0
      vertex 1 0 0
    endloop
  endfacet
  facet normal 0 0 -1
    outer loop
      vertex 0 1 0
      vertex 1 0 0
      vertex 0 0 0
    endloop
  endfacet
  facet normal -0 0 -1
    outer loop
      vertex 20 20 0
      vertex 0 1 0
      vertex 20 21 0
    endloop
  endfacet
  facet normal -0.707107 0.707107 0
    outer loop
      vertex 20 21 0
      vertex 19 20 1.5
      vertex 20 21 1.5
    endloop
  endfacet
  facet normal -0.707107 0.707107 0
    outer loop
      vertex 20 21 0
      vertex 1.5 2.5 1.5
      vertex 19 20 1.5
    endloop
  endfacet
  facet normal -0.707107 0.707107 0
    outer loop
      vertex 0 1 0
      vertex 1.5 2.5 1.5
      vertex 20 21 0
    endloop
  endfacet
  facet normal -0.707107 0.707107 0
    outer loop
      vertex 0 1 10
      vertex 1.5 2.5 1.5
      vertex 0 1 0
    endloop
  endfacet
  facet normal -0.707107 0.707107 0
    outer loop
      vertex 1.5 2.5 1.5
      vertex 0 1 10
      vertex 1.5 2.5 10
    endloop
  endfacet
  facet normal -1 0 0
    outer loop
      vertex 0 0 0
      vertex 0 1 10
      vertex 0 1 0
    endloop
  endfacet
  facet normal -1 -0 0
    outer loop
      vertex 0 1 10
      vertex 0 0 0
      vertex 0 0 10
    endloop
  endfacet
  facet normal 0 -1 0
    outer loop
      vertex 0 0 0
      vertex 1 0 10
      vertex 0 0 10
    endloop
  endfacet
  facet normal 0 -1 -0
    outer loop
      vertex 1 0 10
      vertex 0 0 0
      vertex 1 0 0
    endloop
  endfacet
  facet normal 0.707107 -0.707107 0
    outer loop
      vertex 2.5 1.5 10
      vertex 1 0 10
      vertex 2.5 1.5 1.5
    endloop
  endfacet
  facet normal 0.707107 -0.707107 0
    outer loop
      vertex 20 19 1.5
      vertex 21 20 0
      vertex 21 20 1.5
    endloop
  endfacet
  facet normal 0.707107 -0.707107 0
    outer loop
      vertex 2.5 1.5 1.5
      vertex 21 20 0
      vertex 20 19 1.5
    endloop
  endfacet
  facet normal 0.707107 -0.707107 0
    outer loop
      vertex 2.5 1.5 1.5
      vertex 1 0 0
      vertex 21 20 0
    endloop
  endfacet
  facet normal 0.707107 -0.707107 0
    outer loop
      vertex 1 0 0
      vertex 2.5 1.5 1.5
      vertex 1 0 10
    endloop
  endfacet
  facet normal 0 1 -0
    outer loop
      vertex 21 20 0
      vertex 20 20 1.5
      vertex 21 20 1.5
    endloop
  endfacet
  facet normal 0 1 0
    outer loop
      vertex 20 20 1.5
      vertex 21 20 0
      vertex 20 20 0
    endloop
  endfacet
  facet normal 1 -0 0
    outer loop
      vertex 20 20 1.5
      vertex 20 21 0
      vertex 20 21 1.5
    endloop
  endfacet
  facet normal 1 0 0
    outer loop
      vertex 20 21 0
      vertex 20 20 1.5
      vertex 20 20 0
    endloop
  endfacet
endsolid OpenSCAD_Model
