solid OpenSCAD_Model
  facet normal -1 0 0
    outer loop
      vertex 0 0 0
      vertex 0 12 3
      vertex 0 12 0
    endloop
  endfacet
  facet normal -1 -0 0
    outer loop
      vertex 0 12 3
      vertex 0 0 0
      vertex 0 0 3
    endloop
  endfacet
  facet normal 0 0 1
    outer loop
      vertex 5 12 3
      vertex 3.25 10 3
      vertex 5 0 3
    endloop
  endfacet
  facet normal 0 0 1
    outer loop
      vertex 5 12 3
      vertex 1.75 10 3
      vertex 3.25 10 3
    endloop
  endfacet
  facet normal -0 0 1
    outer loop
      vertex 0 12 3
      vertex 1.75 10 3
      vertex 5 12 3
    endloop
  endfacet
  facet normal 0 0 1
    outer loop
      vertex 0 0 3
      vertex 1.75 10 3
      vertex 0 12 3
    endloop
  endfacet
  facet normal 0 0 1
    outer loop
      vertex 1.75 10 3
      vertex 0 0 3
      vertex 1.75 0 3
    endloop
  endfacet
  facet normal 0 0 1
    outer loop
      vertex 5 0 3
      vertex 3.25 10 3
      vertex 3.25 0 3
    endloop
  endfacet
  facet normal 1 -0 0
    outer loop
      vertex 5 0 3
      vertex 5 12 0
      vertex 5 12 3
    endloop
  endfacet
  facet normal 1 0 0
    outer loop
      vertex 5 12 0
      vertex 5 0 3
      vertex 5 0 0
    endloop
  endfacet
  facet normal 0 0 -1
    outer loop
      vertex 1.75 0 0
      vertex 0 0 0
      vertex 1.75 10 0
    endloop
  endfacet
  facet normal 0 0 -1
    outer loop
      vertex 3.25 10 0
      vertex 5 0 0
      vertex 3.25 0 0
    endloop
  endfacet
  facet normal 0 0 -1
    outer loop
      vertex 5 0 0
      vertex 3.25 10 0
      vertex 5 12 0
    endloop
  endfacet
  facet normal 0 0 -1
    outer loop
      vertex 1.75 10 0
      vertex 5 12 0
      vertex 3.25 10 0
    endloop
  endfacet
  facet normal 0 0 -1
    outer loop
      vertex 1.75 10 0
      vertex 0 12 0
      vertex 5 12 0
    endloop
  endfacet
  facet normal 0 0 -1
    outer loop
      vertex 0 12 0
      vertex 1.75 10 0
      vertex 0 0 0
    endloop
  endfacet
  facet normal 0 -1 0
    outer loop
      vertex 3.25 0 0
      vertex 5 0 3
      vertex 3.25 0 3
    endloop
  endfacet
  facet normal 0 -1 -0
    outer loop
      vertex 5 0 3
      vertex 3.25 0 0
      vertex 5 0 0
    endloop
  endfacet
  facet normal 0 -1 0
    outer loop
      vertex 0 0 0
      vertex 1.75 0 3
      vertex 0 0 3
    endloop
  endfacet
  facet normal 0 -1 -0
    outer loop
      vertex 1.75 0 3
      vertex 0 0 0
      vertex 1.75 0 0
    endloop
  endfacet
  facet normal 0 1 -0
    outer loop
      vertex 5 12 0
      vertex 0 12 3
      vertex 5 12 3
    endloop
  endfacet
  facet normal 0 1 0
    outer loop
      vertex 0 12 3
      vertex 5 12 0
      vertex 0 12 0
    endloop
  endfacet
  facet normal 1 -0 0
    outer loop
      vertex 1.75 0 3
      vertex 1.75 10 0
      vertex 1.75 10 3
    endloop
  endfacet
  facet normal 1 0 0
    outer loop
      vertex 1.75 10 0
      vertex 1.75 0 3
      vertex 1.75 0 0
    endloop
  endfacet
  facet normal -1 0 0
    outer loop
      vertex 3.25 0 0
      vertex 3.25 10 3
      vertex 3.25 10 0
    endloop
  endfacet
  facet normal -1 -0 0
    outer loop
      vertex 3.25 10 3
      vertex 3.25 0 0
      vertex 3.25 0 3
    endloop
  endfacet
  facet normal 0 -1 0
    outer loop
      vertex 1.75 10 0
      vertex 3.25 10 3
      vertex 1.75 10 3
    endloop
  endfacet
  facet normal 0 -1 -0
    outer loop
      vertex 3.25 10 3
      vertex 1.75 10 0
      vertex 3.25 10 0
    endloop
  endfacet
endsolid OpenSCAD_Model
